<?xml version="1.0" encoding="utf-8"?>
<!-- Generator: Adobe Illustrator 21.0.0, SVG Export Plug-In . SVG Version: 6.00 Build 0)  -->
<svg version="1.1" xmlns="http://www.w3.org/2000/svg" xmlns:xlink="http://www.w3.org/1999/xlink" x="0px" y="0px"
	 viewBox="0 0 595 842" style="enable-background:new 0 0 595 842;" xml:space="preserve">
<style type="text/css">
	.st0{fill:#827B5D;}
	.st1{fill:#544F3B;}
	.st2{fill:#938B69;}
	.st3{fill:#CCC29A;}
	.st4{fill:#FF8800;}
	.st5{fill:#169B94;}
	.st6{fill:#02B7B7;}
	.st7{fill:#FFFFFF;}
	.st8{fill:#938C6A;}
	.st9{fill:#474334;}
	.st10{fill:#61008E;}
	.st11{fill:#3E005E;}
	.st12{fill:#005683;}
	.st13{fill:#00709C;}
	.st14{fill:#FFD200;}
	.st15{fill:#7600AD;}
	.st16{fill:#3D2D10;}
	.st17{fill:#664C22;}
	.st18{display:none;}
	.st19{display:inline;}
	.st20{fill:none;stroke:#E2007A;stroke-miterlimit:10;}
</style>
<g id="wapuu">
	<g>
		<g>
			<ellipse cx="250" cy="325.6" rx="2.7" ry="2.2"/>
			<path d="M250,329.8c-2.6,0-4.7-1.9-4.7-4.2s2.1-4.2,4.7-4.2c2.6,0,4.7,1.9,4.7,4.2S252.5,329.8,250,329.8z M249.3,325.6
				c0.1,0.1,0.3,0.2,0.7,0.2c0.4,0,0.6-0.1,0.7-0.2c-0.1-0.1-0.3-0.2-0.7-0.2C249.6,325.3,249.3,325.5,249.3,325.6z"/>
		</g>
		<g>
			<g>
				<path d="M258.7,357.4l-5.1-22.4c-0.8-4.1-7.8-8.1-7-10.8c0.4-1.4,0.4-2.8,0.1-4.1c3.7-1.9,2-3.6,2-3.6s1.7-2.7,1.3-6.7
					c-0.4-4-2.9-2.3-5-0.7c-2.8,2.1-3.9,4.1-4.4,5.4c-1.6-0.4-3.5-0.5-5.7-0.3c-1.4,0.1-2.5,0.4-3.4,0.9c-0.6-1.3-2.1-3.6-4.4-5
					c-2-1.2-3.4-1.9-2.7,2.4c0.6,3.4,1.8,7.2,3.2,9.1c0,1.8,0.4,3.3,0.5,3.7c-0.4,0.6-0.7,1.2-0.9,1.9c-0.5,1.6,0.6,3,2.2,2.9
					c0.2,0.5,0.4,1,0.7,1.4c-0.2,0.7-0.2,1.5,0,2.2c-0.9,2.2-1.7,5-0.8,8.4c0.9,3.1,1.7,8.5,2.1,11.1c-1.6,0.4-2.8,1.7-2.8,3.2
					c0,1.8,1.7,1.9,3.9,1.9c2.1,0,3.8-0.1,3.8-1.9c0-0.2,0-0.3,0-0.5c0.5,0.1,1,0.1,1.6,0.1c1.8,0,3.3-0.1,3.3-1.7
					c0-0.1,0-0.1,0-0.2c1.2,0.6,2.7,1.1,4.5,1.4c0.6-0.2,1.2-0.3,1.8-0.4c-0.2,0.3-0.2,0.7-0.2,1.1c0,1.2,0.9,1.5,2.1,1.6
					c-1.3,0.5-2.2,1.7-2.2,3c0,1.8,1.7,1.9,3.9,1.9s3.8-0.1,3.8-1.9c0-1.2-0.7-2.2-1.8-2.8c0.1-0.2,0.1-0.3,0.2-0.5
					c0.4-0.2,0.6-0.6,0.6-1.3c0-0.2,0-0.4-0.1-0.5c0.1-0.2,0.1-0.4,0.2-0.6C257.2,355.7,258.7,357.4,258.7,357.4z M236,346.7
					c0-0.1,0-0.1,0-0.2l0-0.1C235.9,346.5,235.9,346.6,236,346.7z M237.9,351.4c-1.2,0-2.3,0.6-2.8,1.4l0.9-6l0.1,0.3
					C236.2,348,236.6,349.7,237.9,351.4C237.9,351.4,237.9,351.4,237.9,351.4z"/>
				<path d="M251,364.7c-1.7,0-5.8,0-5.8-3.9c0-0.9,0.3-1.8,0.7-2.6c-0.2-0.2-0.3-0.5-0.4-0.8l-0.1,0c-1.1-0.2-2.1-0.4-3.1-0.7
					c-1.2,1.2-3.2,1.2-4.2,1.2c-0.9,2.4-4.1,2.4-5.5,2.4c0,0-0.1,0-0.1,0l-0.6,0.8l0.1-0.8c-1.9,0-5.3-0.4-5.3-3.9
					c0-1.8,1-3.4,2.6-4.4c-0.4-2.7-1.1-6.9-1.8-9.3c-1-3.6-0.3-6.6,0.6-9.1c-0.1-0.6-0.1-1.1,0-1.7c0,0,0,0,0,0
					c-0.8-0.3-1.6-0.8-2.1-1.5c-0.8-1.1-1-2.5-0.6-3.9c0.2-0.5,0.4-1.1,0.7-1.6c-0.2-0.7-0.3-1.7-0.4-2.8c-1.5-2.4-2.6-6.4-3.1-9.4
					c-0.4-2-0.5-4.1,1-5.1c1.6-1.1,3.3,0,4.6,0.7c2,1.1,3.4,2.8,4.3,4.3c0.7-0.2,1.5-0.3,2.3-0.4c1.7-0.2,3.3-0.2,4.8,0
					c0.8-1.4,2.1-3.1,4.4-4.8c1.6-1.2,3.8-2.9,5.9-1.9c1.3,0.6,2.1,1.9,2.3,4c0.3,3.1-0.5,5.6-1,6.9c0.1,0.5,0.2,1,0.1,1.6
					c-0.2,1.1-0.9,2.2-2.2,3c0.1,1.2,0,2.4-0.4,3.6c0.1,0.6,1.6,2.3,2.6,3.2c1.9,2,4,4.2,4.5,6.8l6.8,29.8l-5.1-5.6
					c-0.1-0.1-0.6-0.6-1.7-1.1c0.7,0.9,1.2,2,1.2,3.2C256.8,364.7,252.7,364.7,251,364.7z M249.1,360.6c0.3,0.1,1,0.1,1.9,0.1
					c0.4,0,1.3,0,1.8-0.1c-0.1-0.4-0.3-0.7-0.8-0.9l-1-0.5l-1,0.4C249.5,359.8,249.1,360.2,249.1,360.6z M230.6,356.4L230.6,356.4
					L230.6,356.4z M230.6,356.2c0.3,0.1,1,0.1,1.9,0.1c0,0,0,0,0,0l0.2-1.5l-0.9,0.2C231.2,355.2,230.7,355.7,230.6,356.2z
					 M249.3,355.8c0.1,0,0.1,0,0.2,0l2.2,0.2l0.1,0l-0.1-0.4l0.1-0.5c0.1-0.2,0.1-0.4,0.2-0.6l0.5-1.8l1.8,0.4
					c0.6,0.1,1.1,0.3,1.5,0.4l-4.1-18.2c-0.3-1.4-2-3.2-3.5-4.8c-2.1-2.3-4.2-4.4-3.5-6.9c0.3-1.1,0.3-2.2,0.1-3.2l-0.3-1.5l1.4-0.7
					c0.7-0.3,1-0.6,1.2-0.8l-0.8-0.8l0.8-1.3c0,0,1.3-2.2,1-5.5c0-0.2,0-0.4-0.1-0.5c-0.6,0.3-1.5,1-1.8,1.2
					c-2.4,1.8-3.4,3.5-3.7,4.5l-0.6,1.7l-1.7-0.4c-1.4-0.3-3.2-0.4-5.1-0.2c-1.1,0.1-2,0.3-2.7,0.7l-1.7,0.8l-0.9-1.7
					c-0.5-1-1.6-2.9-3.4-4c0,0.1,0,0.1,0,0.2c0.6,3.5,1.8,6.9,2.8,8.3l0.4,0.5l0,0.7c0,1.6,0.3,2.9,0.4,3.2l0.3,0.9l-0.5,0.8
					c-0.3,0.5-0.5,0.9-0.7,1.4c0,0.1-0.1,0.2,0,0.3c0,0.1,0.1,0.1,0.2,0.1l1.3,0l0.5,1.2c0.2,0.4,0.4,0.8,0.6,1.2l0.4,0.7L232,332
					c-0.1,0.4-0.1,0.8,0,1.2l0.2,0.6l-0.2,0.6c-0.8,2.1-1.5,4.4-0.7,7.1c0.8,2.8,1.5,7.2,2,10.2l1.7-11.8l2.8,6.1l0.1,0l0,0.1
					l-0.1,0l0.1,0.1l0,0c0,0,0,0.1,0,0.1l0,0l0,0.2c0.1,0.7,0.5,2.1,1.5,3.5l1,1.3l1.6,0.8c1,0.5,2.1,0.9,3.4,1.1
					c0.5-0.1,1-0.2,1.6-0.3l3.8-0.7L249.3,355.8z M239.2,354.3C239.2,354.3,239.2,354.3,239.2,354.3L239.2,354.3L239.2,354.3z
					 M236.7,353.9c0.4,0,0.8,0,1.2,0c0.6,0,1,0,1.3,0l0-0.5l-1.3,0C237.2,353.4,236.8,353.7,236.7,353.9z M237.8,353.4
					C237.8,353.4,237.8,353.4,237.8,353.4L237.8,353.4z"/>
			</g>
			<g>
				<path class="st0" d="M231.9,315.8c0,0-1.5-3.9-4.8-5.9c-2-1.2-3.4-1.9-2.7,2.4c0.7,4.2,2.4,9.2,4.2,10.1
					C230.4,323.4,231.9,315.8,231.9,315.8z"/>
				<path d="M228.9,323.3c-0.2,0-0.5-0.1-0.7-0.2c-2.4-1.3-4-7.3-4.6-10.6c-0.4-2.2-0.3-3.4,0.5-3.9c0.9-0.6,2.1,0.1,3.3,0.8
					c3.5,2,5,6.1,5.1,6.2l0.1,0.2l0,0.2c-0.3,1.5-1.3,6.3-3,7.2C229.4,323.2,229.2,323.3,228.9,323.3z M225,309.8
					c-0.1,0.1-0.2,0.7,0.1,2.4c0.8,4.6,2.5,8.8,3.8,9.6c0.6-0.3,1.6-3,2.2-5.9c-0.3-0.8-1.8-3.8-4.4-5.3
					C226.3,310.4,225.4,309.8,225,309.8z"/>
			</g>
			<g>
				<path class="st0" d="M240.3,316.2c0,0-0.4-3.4,4.7-7.3c2.1-1.6,4.6-3.4,5,0.7c0.4,4-1.3,6.7-1.3,6.7s2,2.2-3.3,4.2
					S240.3,316.2,240.3,316.2z"/>
				<path d="M243.5,321.7c-0.8,0-1.5-0.2-2-0.6c-1.9-1.3-1.9-4.4-1.9-4.8c0-0.5-0.1-4,5-7.9c1.7-1.3,3.3-2.4,4.7-1.8
					c0.9,0.4,1.4,1.4,1.5,3c0.3,3.3-0.7,5.8-1.1,6.8c0.2,0.4,0.3,0.9,0.2,1.6c-0.3,1.3-1.7,2.4-4.1,3.4
					C244.9,321.5,244.1,321.7,243.5,321.7z M241,316.2L241,316.2c0,0.7,0.2,2.8,1.3,3.6c0.7,0.5,1.6,0.5,2.8,0
					c2.5-1,3.1-1.9,3.2-2.3c0.1-0.4-0.1-0.7-0.2-0.7l-0.3-0.4l0.3-0.5c0,0,1.5-2.5,1.1-6.3c-0.1-1.4-0.5-1.7-0.7-1.8
					c-0.7-0.3-2.4,1-3.2,1.6c-4.7,3.5-4.4,6.6-4.4,6.6L241,316.2L241,316.2z"/>
			</g>
			<path class="st1" d="M242.6,316.2l0.5-1.3c0.7-1.7,3.4-4,3.7-4.2c0.3-0.3,0.8-0.2,1,0.1c0.3,0.3,0.2,0.8-0.1,1
				c-0.6,0.5-1.8,1.6-2.6,2.6c0.7,0.1,1.3,0.3,1.3,0.3c0.4,0.1,0.6,0.6,0.4,0.9c-0.1,0.4-0.6,0.6-0.9,0.4l0,0c0,0-1.1-0.4-2-0.2
				L242.6,316.2z"/>
			<path class="st1" d="M229,317.1c-0.2,0-0.5-0.1-0.6-0.3l-1.9-2.7c-0.2-0.3-0.1-0.8,0.2-1c0.3-0.2,0.8-0.1,1,0.2l1.9,2.7
				c0.2,0.3,0.1,0.8-0.2,1C229.3,317,229.1,317.1,229,317.1z"/>
			<g>
				<path class="st2" d="M241.2,354.2c0,1.6-1.5,1.7-3.3,1.7s-3.3-0.1-3.3-1.7c0-1.6,1.5-2.8,3.3-2.8S241.2,352.7,241.2,354.2z"/>
				<path d="M237.9,356.9c-1.5,0-4.3,0-4.3-2.7c0-2.1,1.9-3.8,4.3-3.8c2.4,0,4.3,1.7,4.3,3.8C242.1,356.9,239.4,356.9,237.9,356.9z
					 M237.9,352.4c-1.3,0-2.3,0.8-2.3,1.9c0,0.4,0,0.7,2.3,0.7c2.3,0,2.3-0.3,2.3-0.7C240.2,353.2,239.1,352.4,237.9,352.4z"/>
			</g>
			<g>
				<path class="st2" d="M253.8,356.1c0,1.6-1.5,1.7-3.3,1.7s-3.3-0.1-3.3-1.7c0-1.6,1.5-2.8,3.3-2.8S253.8,354.6,253.8,356.1z"/>
				<path d="M250.5,358.8c-1.5,0-4.3,0-4.3-2.7c0-2.1,1.9-3.8,4.3-3.8c2.4,0,4.3,1.7,4.3,3.8C254.8,358.8,252,358.8,250.5,358.8z
					 M250.5,354.3c-1.3,0-2.3,0.8-2.3,1.9c0,0.4,0,0.7,2.3,0.7c2.3,0,2.3-0.3,2.3-0.7C252.8,355.1,251.8,354.3,250.5,354.3z"/>
			</g>
			<g>
				<path class="st3" d="M253.6,334.9c-0.8-4.1-7.8-8.1-7-10.8c1.4-5.3-1.7-11-11.8-10c-10.1,1-6.7,11.2-6.7,11.2s0.4,4.3,2.5,7
					c-1,2.4-2.5,5.6-1.3,9.7s2.3,12.5,2.3,12.5l3.2-0.1l1.2-8.1c0,0,0.3,7.6,9.7,9c9.2-2.5,13.1,1.9,13.1,1.9L253.6,334.9z"/>
				<path d="M258.7,358.1c-0.2,0-0.4-0.1-0.6-0.2c-0.1-0.2-3.8-4-12.4-1.7c-0.1,0-0.2,0-0.3,0c-5.6-0.8-8.1-3.8-9.3-6.3l-0.7,4.7
					c-0.1,0.4-0.4,0.6-0.7,0.6l-3.2,0.1c-0.4,0-0.7-0.3-0.7-0.6c0-0.1-1.1-8.4-2.3-12.4c-1.2-4.2,0.2-7.4,1.2-9.8
					c-1.9-2.7-2.3-6.4-2.4-7c-0.2-0.7-1.5-5.3,0.7-8.7c1.3-2,3.5-3.2,6.6-3.5c6.4-0.6,9.6,1.4,11.1,3.2c1.7,2,2.2,4.8,1.4,7.7
					c-0.3,1,1.3,2.7,2.9,4.3c1.8,1.9,3.7,4,4.2,6.2l5.1,22.4c0.1,0.3-0.1,0.7-0.4,0.8C259,358.1,258.8,358.1,258.7,358.1z M251,354
					c3.1,0,5.2,0.8,6.6,1.6l-4.7-20.5c0,0,0,0,0,0c-0.3-1.8-2.2-3.7-3.8-5.5c-2-2.1-3.7-3.9-3.2-5.7c0.7-2.4,0.2-4.7-1.1-6.4
					c-1.9-2.2-5.3-3.1-9.8-2.7c-2.6,0.3-4.5,1.2-5.5,2.8c-2,3-0.6,7.4-0.5,7.5c0,0.1,0,0.1,0,0.2c0,0,0.4,4.1,2.3,6.7
					c0.2,0.2,0.2,0.5,0.1,0.7l-0.2,0.4c-1,2.3-2.2,5.2-1.1,8.9c1,3.5,1.9,9.9,2.2,12l1.9,0l1.1-7.5c0.1-0.4,0.4-0.6,0.8-0.6
					c0.4,0,0.7,0.3,0.7,0.7c0,0.3,0.4,7,8.9,8.3C247.6,354.2,249.4,354,251,354z"/>
			</g>
			<g>
				<path class="st4" d="M236.1,347.2c0,0-0.8-3.9-2.6-5.5"/>
				<path d="M236.1,347.9c-0.3,0-0.7-0.2-0.7-0.6c0,0-0.8-3.7-2.3-5.1c-0.3-0.3-0.3-0.7,0-1c0.3-0.3,0.7-0.3,1,0
					c1.9,1.8,2.7,5.7,2.8,5.9c0.1,0.4-0.2,0.8-0.6,0.9C236.2,347.9,236.1,347.9,236.1,347.9z"/>
			</g>
			<g>
				<path class="st3" d="M230.3,330c0,0,3.4,6,6.8,1.6"/>
				<path d="M234.4,334.2c-0.1,0-0.2,0-0.3,0c-2.7-0.2-4.5-3.3-4.7-3.7c-0.3-0.5-0.1-1.1,0.4-1.3c0.5-0.3,1.1-0.1,1.3,0.4l0,0
					c0.4,0.7,1.8,2.6,3.1,2.7c0.7,0,1.3-0.4,2-1.2c0.3-0.4,1-0.5,1.4-0.2c0.4,0.3,0.5,1,0.2,1.4
					C236.8,333.6,235.6,334.2,234.4,334.2z"/>
			</g>
			<path d="M241.4,332.3c-1.1,0-1.9-0.5-2-0.6c-0.3-0.2-0.4-0.7-0.2-1c0.2-0.3,0.7-0.4,1-0.2c0,0,0.9,0.6,1.9,0.2
				c1.1-0.4,2.6-1.9,3.7-6.8c0.1-0.4,0.5-0.6,0.9-0.6c0.4,0.1,0.6,0.5,0.6,0.9c-1,4.4-2.6,7-4.6,7.8
				C242.2,332.2,241.8,332.3,241.4,332.3z"/>
			<g>
				<g>
					
						<ellipse transform="matrix(0.3549 -0.9349 0.9349 0.3549 -159.7701 433.516)" class="st5" cx="234.3" cy="332.5" rx="4.3" ry="4.3"/>
					<path d="M234.3,328.2c0.5,0,1,0.1,1.5,0.3c2.2,0.9,3.4,3.4,2.5,5.6c-0.7,1.7-2.3,2.8-4.1,2.8c-0.5,0-1-0.1-1.5-0.3
						c-2.2-0.9-3.4-3.4-2.5-5.6C230.9,329.3,232.5,328.2,234.3,328.2 M234.3,326.7L234.3,326.7c-2.4,0-4.6,1.5-5.4,3.8
						c-0.6,1.5-0.5,3,0.1,4.5c0.6,1.4,1.8,2.5,3.2,3.1c0.7,0.3,1.4,0.4,2.1,0.4c2.4,0,4.6-1.5,5.4-3.8c0.6-1.5,0.5-3-0.1-4.5
						c-0.6-1.4-1.8-2.5-3.2-3.1C235.7,326.8,235,326.7,234.3,326.7L234.3,326.7z"/>
				</g>
				<path class="st6" d="M234.1,336.6c0.4,0.1,0.8,0.2,1.2,0.1c1.3-0.3,2.5-1.3,3-2.7c0-0.1,0-0.1,0.1-0.2c0.4-1.7-0.4-3.4-1.9-3.9
					c-1.6-0.6-3.5,0.4-4.1,2.3C231.7,334.1,232.5,336,234.1,336.6z"/>
				<path class="st7" d="M236.7,331c0.2,0.1,0.3,0.1,0.5,0.2c-0.1,0.5-0.4,1.2-1.1,2.3c0-1.4-0.2-2.5-0.2-2.5
					C236,331,236.3,330.9,236.7,331 M237.4,331.5c1.1,1.1,0.8,2.7-0.1,3.7C237.7,334,237.8,333,237.4,331.5 M235.4,331
					c-0.6,0.9-1.3,1.6-1.8,2.5c-0.1,0.2-0.3,0.4-0.3,0.8C233,333.1,233.7,331.6,235.4,331 M237,335.5c-1,0.7-2.5,1-3.4-0.4
					c0,0,0.8,0.3,0.6-0.8c-0.1-0.6,0-1,0.5-1.7c0.2-0.4,0.3-0.5,0.5-0.8c0,1.1,0.1,2-0.1,3.2c-0.2-0.1-0.5-0.1-0.4,0.1
					c0,0,1.2,0.4,1.2,0.4c0.1,0,0.2-0.1,0.2-0.1c0-0.1,0-0.1-0.2-0.2c0.1-0.4,0.1-0.6,0.1-1.2c0.3-0.5,0.6-0.9,1-1.7
					c0.1,1.3,0.1,2.1-0.2,3c-0.1,0-0.2,0-0.3,0c-0.1,0-0.1,0.1-0.1,0.2C236.6,335.5,236.8,335.4,237,335.5 M234.6,336.2
					c2.1,0.6,4.6-2,3.4-4.3c-1.2-2.3-4.3-1.1-4.9,0.9C232.6,334.4,233.4,335.8,234.6,336.2"/>
			</g>
			<path class="st2" d="M235.7,343.5c1.5,3.1,0.9,6.6,4.3,8.9c3.4,2.4,5.6,2.2,5.6,2.2l2.8-0.6c0,0,4.6-0.2,6.1,0.5
				c1.5,0.8,0.6-9.6,0.6-9.6S246.1,358.5,235.7,343.5z"/>
			<g>
				<path class="st3" d="M245.4,342.6l1.1,0.7c0,0,0.5,5.5,1.8,7.9c1.3,2.5,1.4,7.4,1.4,7.4l3-0.1c0,0,2.5-6,1.9-10.1
					s-2-10.1-1.6-12.3"/>
				<path d="M249.7,359.4c-0.2,0-0.4-0.1-0.5-0.2c-0.1-0.1-0.2-0.3-0.2-0.5c0,0-0.1-4.8-1.3-7.1c-1.2-2.2-1.7-6.5-1.8-7.8l-0.8-0.5
					c-0.4-0.2-0.5-0.7-0.3-1c0.2-0.4,0.7-0.5,1-0.3l1.1,0.7c0.2,0.1,0.3,0.3,0.4,0.6c0,0.1,0.5,5.3,1.7,7.7c1.1,2,1.4,5.5,1.4,7
					l1.8,0c0.5-1.4,2.1-6.1,1.7-9.3c-0.2-1.2-0.4-2.5-0.7-3.9c-0.6-3.6-1.3-6.9-0.9-8.6c0.1-0.4,0.5-0.7,0.9-0.6
					c0.4,0.1,0.7,0.5,0.6,0.9c-0.3,1.4,0.3,5,0.9,8.1c0.3,1.4,0.5,2.7,0.7,4c0.6,4.2-1.8,10.3-2,10.5c-0.1,0.3-0.4,0.4-0.7,0.5
					L249.7,359.4C249.7,359.4,249.7,359.4,249.7,359.4z"/>
			</g>
			<g>
				<path class="st8" d="M242.2,326.6c-0.2,0-0.4-0.1-0.6-0.3c-2.2-2.8-5.2-4.1-8.7-3.7c-0.4,0-0.8-0.3-0.8-0.7
					c0-0.4,0.3-0.8,0.7-0.8c2.8-0.3,6.8,0.2,10,4.3c0.3,0.3,0.2,0.8-0.1,1C242.5,326.5,242.4,326.6,242.2,326.6z"/>
				<path class="st8" d="M240,337.5c-0.4,0-0.7-0.3-0.7-0.6c-0.1-0.4,0.2-0.8,0.6-0.8c3-0.4,5.9-3.2,5.9-3.3c0.3-0.3,0.8-0.3,1,0
					c0.3,0.3,0.3,0.8,0,1c-0.1,0.1-3.2,3.2-6.7,3.7C240,337.5,240,337.5,240,337.5z"/>
				<path class="st8" d="M237.7,320.4c-0.2,0-0.5-0.1-0.6-0.3c-0.3-0.5-0.7-1.7-0.3-2.3c0.2-0.3,0.7-0.4,1-0.2
					c0.3,0.2,0.4,0.6,0.3,0.9c0,0.2,0.1,0.6,0.2,0.8c0.2,0.3,0.1,0.8-0.2,1C238,320.4,237.9,320.4,237.7,320.4z M238.1,318.6
					C238.1,318.6,238.1,318.6,238.1,318.6C238.1,318.6,238.1,318.6,238.1,318.6z"/>
				<path class="st8" d="M231.7,320.9c-0.2,0-0.5-0.1-0.6-0.3c-0.2-0.3-0.2-0.7,0.1-0.9c0.1-0.2,0.2-0.6,0.1-0.8
					c-0.1-0.4,0.2-0.8,0.6-0.9c0.4-0.1,0.8,0.2,0.9,0.6c0.1,0.5,0,1.8-0.6,2.2C232,320.9,231.8,320.9,231.7,320.9z M231.3,319.6
					C231.3,319.6,231.3,319.6,231.3,319.6C231.3,319.6,231.3,319.6,231.3,319.6z"/>
			</g>
			<g>
				<g>
					<path class="st0" d="M232.9,325.1c0,0,0.5,3.1-2.1,4.5c-2.2,1.2-4.3-0.5-3.6-2.5c0.9-2.7,3.4-5.2,6.3-5.2s6,3,7,5.7
						c1,2.7-0.8,4.8-4.2,3.6C232.9,329.9,232.8,327.4,232.9,325.1z"/>
					<path d="M238.1,332.3c-0.6,0-1.3-0.1-2.1-0.4c-1.9-0.7-2.9-1.8-3.4-2.9c-0.4,0.5-0.9,1-1.5,1.3c-1.3,0.7-2.7,0.7-3.8-0.1
						c-1-0.8-1.3-2-0.9-3.3c0.9-2.7,3.5-5.7,7-5.7c3.3,0,6.6,3.2,7.7,6.2c0.6,1.6,0.3,3.1-0.6,4C240,331.9,239.1,332.3,238.1,332.3z
						 M233.6,326.3c0.1,1.8,0.6,3.3,3,4.2c1.3,0.5,2.4,0.4,3-0.2c0.5-0.5,0.6-1.4,0.3-2.5c-0.9-2.5-3.7-5.2-6.3-5.2
						c-2.7,0-4.9,2.4-5.6,4.7c-0.2,0.6-0.1,1.3,0.4,1.6c0.4,0.3,1.2,0.5,2.1,0c1.2-0.7,1.6-1.8,1.7-2.7c0-0.4,0-0.9,0-1.2l1.5-0.1
						C233.6,325,233.7,325.6,233.6,326.3z"/>
				</g>
				<path d="M232.5,326.2c0,0-4.8-3.3,0.1-4c4.9-0.7,2.2,2.7,0.7,3.9C232.9,326.5,232.5,326.2,232.5,326.2z"/>
				<ellipse class="st9" cx="237.9" cy="328.7" rx="0.5" ry="0.5"/>
				<ellipse class="st9" cx="237.1" cy="326.2" rx="0.5" ry="0.5"/>
				<ellipse class="st9" cx="235.8" cy="328.1" rx="0.5" ry="0.5"/>
				<ellipse class="st9" cx="228.9" cy="327.8" rx="0.5" ry="0.5"/>
				<ellipse class="st9" cx="230.6" cy="326.8" rx="0.5" ry="0.5"/>
			</g>
			<g>
				<circle cx="239.2" cy="320.7" r="2.4"/>
				<circle cx="230.4" cy="320.8" r="1.8"/>
			</g>
			<g>
				<g>
					<path class="st3" d="M254.8,360.8c0,1.8-1.7,1.9-3.8,1.9s-3.9-0.1-3.9-1.9s1.7-3.3,3.8-3.3S254.8,358.9,254.8,360.8z"/>
					<path d="M251,363.4c-1.8,0-4.6,0-4.6-2.7c0-2.2,2.1-4,4.6-4s4.6,1.8,4.6,4C255.5,363.4,252.8,363.4,251,363.4z M250.9,358.2
						c-1.7,0-3.1,1.2-3.1,2.6c0,0.9,0.4,1.2,3.1,1.2c2.6,0,3.1-0.3,3.1-1.2C254,359.3,252.7,358.2,250.9,358.2z"/>
				</g>
				<path class="st2" d="M247.9,360.5c0,0,1.1,1.4,1.9,0.2c0.9,1.4,1.8,0.6,2,0.2c0.7,0.9,2.4,0.4,1.9-1.3c0.9,1.1,0.2,2-0.2,2.1
					c-0.3,0.1-1.9,0.6-4.3,0.2C249.2,361.9,247.5,361.7,247.9,360.5z"/>
			</g>
			<path class="st2" d="M248.4,349.1c0,0,3.5,2.7,5.5,1.2c-0.1,2.8-0.8,4.7-1.5,6.9c-1.6,0.5-2.1-0.4-2.1-0.4s-0.4-3.2-0.9-4.8
				C248.9,350.3,248.8,350.9,248.4,349.1z"/>
			<path class="st2" d="M231.1,346.6l1,5.9l2.1,0.5l0.6-4.7C234.9,348.2,231.8,348.6,231.1,346.6z"/>
			<path class="st7" d="M238.3,321.6c0,0-0.7-0.9-0.1-1.7s1.5-0.5,1.5-0.5S238.3,320.4,238.3,321.6z"/>
			<path class="st7" d="M229.9,321.6c0,0-0.5-0.6-0.1-1.3c0.4-0.6,1.1-0.4,1.1-0.4S229.9,320.7,229.9,321.6z"/>
		</g>
		<path d="M308.7,398.7c0,0-17.6,12.4-48.7-5.4c-6-3.4-11.4-10.3-18.4-16.1c14.8-9.4,58.2-2,58.2-2l11.4,14.3L308.7,398.7z"/>
		<path class="st10" d="M250,380.8c0,0,13.6,15.9,32.4,18.9c15.8,2.6,23.2-1.8,26.2-3.3c2.8-5.2-3.9-20.9-3.9-20.9s-21,9.5-31.8,9
			c-10.7-0.4-20.1-7.4-20.1-7.4L250,380.8z"/>
		<path class="st11" d="M261.7,380.1c0,0,24.8,17.3,43.4,11.2c1.1-6.2-5.1-13.1-5.1-13.1L261.7,380.1z"/>
		<path d="M330.8,302.4c-0.6-0.2-1.7-0.2-5.8-0.2c-1.3,0-2.9,0-4.5,0c-1.8,0-3.8,0-5.8,0c-3.1,0-7.6,0-10.7-0.2
			c-5-3.7-10.8-5.6-17.2-5.8c-13.9-0.4-26.2,5.6-32.8,15.9c-2.3,2.1-6.5,4.5-7.6,4.8c-1.9,0.4-3.2,2.1-3,4c0.1,1.4,1.1,2.9,3.3,3.6
			c1.3,0.4,3.7,0,3.4,0.3c-1.7,1.5-3.2,3.3-5.6,7.2c-3.2,5.4-4.8,11.5-4.8,17.8c0,1.6,0.1,3.2,0.3,4.7c-0.5-0.1-1-0.1-1.5-0.1
			c-2.4,0-4.6,1-6.1,2.9c-1.6,2-2.2,4.7-1.6,7.6c1.2,5.9,10.1,15.7,17.2,17.4c0.7,0.2,1.4,0.3,2,0.3c1.9,0,3.5-0.8,4.4-2.2
			c0.3-0.5,0.5-0.9,0.7-1.4c4.8,3.3,10.4,5.4,16.3,6c1.3,4.2,4.7,4.9,6.9,4.9c3.2,0,6-1.3,8-3.7c0.2,0,0.4,0,0.5,0
			c1.4,0,3.1-0.1,5-0.4c-6.2,7-15.2,11-21.8,11c0,0,0,0,0,0c-2.8,0-6.5-0.7-8.6-4.1c-2.7-4.5-6.9-7.3-11.1-7.3
			c-4.4,0-7.5,3.1-7.6,7.8c-0.1,2.5,1.2,5.3,3.8,7.9c4.3,4.5,12.7,9,21.7,9c2,0,3.9-0.2,5.8-0.7c16-3.8,30.3-16.6,34.4-30.6
			c15.2-11.6,14-43.6,9-57.9c-0.4-1-0.7-2-1.1-2.9c0.6,0.1,1.2,0.1,1.8,0.1c1.4,0,2.8-0.2,4-0.6c7.9-2.4,11.5-8.3,11.4-11.5
			C333.3,304.2,332.3,302.8,330.8,302.4z"/>
		<path d="M320.2,315.2c-3.8,8.2-20,12.1-35.6,5c-15.7-7.2-24.5-19.8-20.7-28c3.8-8.2,19.3-10.9,34.9-3.7
			C314.4,295.6,323.9,306.9,320.2,315.2z"/>
		<ellipse transform="matrix(0.4157 -0.9095 0.9095 0.4157 -81.1606 444.9564)" cx="305.7" cy="285.6" rx="9.1" ry="17.3"/>
		<path d="M289.7,279.4c0,0-1.1,5.4-3.2,8.4c-2.1,3.1,26.4,16.9,26.4,16.9s4.1-7.3,7.3-10.2C318.4,292.2,289.7,279.4,289.7,279.4z"
			/>
		<path class="st12" d="M304.7,339.8c-4.9-4.4-8.3-7.1-13.2-8.1c-3.3-0.7-7.2,0.2-10.6,1c-2.6,0.6-4.9,1.1-6.6,0.9
			c-2.7-0.3-4.8-1.7-5.4-3.6c-0.4-1.3-0.3-3.5,2.7-6.1c1.2-1.1,2.7-2,4.4-2.8c-2.4,0-4.7-0.5-6.9-1.6c-2.9,4-10.2,6.9-12.5,5.9
			c-0.5-0.2-1.1-0.6-1.6-1.1c0,0-0.1,0.1-0.1,0.1c0.6,0.6,1,1.3,1.2,2.3c0.4,1.9-0.3,3.8-1.7,5.3c-1.3,1.3-2.9,2-4.4,2
			c-1.1,0-2-0.4-2.7-1c-3,4.9-4.8,10.7-4.8,16.9c0,2.9,0.4,5.7,1.1,8.4c3,2.5,8,12.5,9.1,14.9c0.1,0.1,0.1,0.3,0.2,0.5
			c5.2,4.8,12,7.9,19.5,8.5c-0.1-1.2-0.1-2.6,0-3.9c0.1-1.6,0.1-3.3-0.1-4.6c-0.2-1.1-0.5-2.3-0.8-3.6c-1.1-4.7-2.4-10.1,2.1-13.1
			c0.9-0.6,1.8-0.9,2.8-0.9c4.1,0,7.8,4.9,9.7,8.6c2.6-4.2,6.9-6.9,12-7.4c2.6-0.3,5.1,0.1,7.3,0.9c0.7-2.7,1.1-5.5,1.1-8.4
			C306.4,346.4,305.8,343,304.7,339.8z"/>
		<path class="st13" d="M283.7,332.1c-0.9,0.2-1.8,0.4-2.7,0.6c-2.6,0.6-4.9,1.1-6.6,0.9c-2.7-0.3-4.8-1.7-5.4-3.6
			c-0.4-1.3-0.3-3.5,2.7-6.1c0,0,0.1-0.1,0.1-0.1c-1.9-0.6-4-1-6.1-1.2c-3.3,2.2-7.5,3.5-9.1,2.8c-0.5-0.2-1.1-0.6-1.6-1.1
			c0,0-5,4-7.8,8.7c-3,4.9-4.8,10.7-4.8,16.9c0,2.9,0.4,5.7,1.1,8.4c2,1.7,5,6.7,7,10.6c3.9,2.5,8.5,3.9,13.4,3.9
			c2.7,0,5.4-0.4,7.8-1.3c-0.1-0.4-0.2-0.9-0.3-1.3c-1.1-4.7-2.4-10.1,2.1-13.1c0.9-0.6,1.8-0.9,2.8-0.9c3.1,0,6,2.9,8.1,5.9
			c2.9-4.1,4.6-9.1,4.6-14.5C289,341.7,287,336.4,283.7,332.1z"/>
		<path class="st7" d="M261.8,366.8c-1.4,0.1-2.5,0-3.9-0.3c-0.4-4.2-0.7-9.3,1.4-18.4c3.8,9.8,8,17.1,8,17.1
			C266.6,365.6,264.4,366.6,261.8,366.8 M255.4,365.8c-10.9-4.9-12.9-16.7-9.2-25.7C246.3,349,248.8,356,255.4,365.8 M270.1,363.6
			c1.7-7.4,4.6-14.5,6.3-22c0.3-1.4,0.6-3.7,0.1-6.2C281.5,343.3,280.9,355.5,270.1,363.6 M247.7,337.1c4.9-7.6,14.3-13.7,24.6-6.2
			c-0.1,0-6.6,0.3-1.9,7.3c2.6,3.8,2.7,6.8,0.7,13c-0.7,3.1-1,4-1.6,7.1c-3.1-7.5-5.7-13.9-7.7-22c1.8-0.3,3.8-0.6,2.8-1.7
			c-0.1-0.1-9.5,0.8-9.6,0.8c-0.7,0.1-0.8,1-0.8,1c-0.1,0.7,0,0.7,2.1,0.5c0.5,2.9,0.8,4.2,2.1,8.4c-1,4-1.9,8.1-2.1,14.4
			c-4.3-8.5-6-14.4-6.3-21.8c0.6-0.4,1.4-0.2,1.9-0.8c0.4-0.4,0.5-1.2,0.1-1.3C250.4,335.7,249.1,336.8,247.7,337.1 M262.5,325.9
			c-16.1,1.3-26.6,25.6-12.3,38.4c14.5,12.9,32.3-3.8,31.7-19.2C281.4,333.1,271.5,325.5,262.5,325.9"/>
		<g>
			<path class="st14" d="M227.6,343.4c1.3,0.8,2.2,0.3,2.7-0.3c0.7-0.8,1.1-2,1-3.3c-0.1-1.5-0.8-2.7-1.9-3.4
				c-0.7-0.4-1.4-0.5-1.9-0.2c-0.1,0-0.2,0.1-0.3,0.2c-0.7,0.7-1.2,2.7-0.9,4.5C226.4,341.6,226.7,342.8,227.6,343.4z"/>
			<path d="M228.9,344.8c-0.6,0-1.2-0.2-1.8-0.5c-1.3-0.8-1.7-2.3-1.8-3.1c-0.3-2,0.2-4.3,1.2-5.3c0.2-0.2,0.4-0.4,0.6-0.5
				c0.8-0.4,1.9-0.3,2.9,0.2c1.4,0.8,2.3,2.4,2.4,4.1c0.1,1.6-0.4,3.1-1.2,4C230.4,344.4,229.7,344.8,228.9,344.8z M227.9,337
				L227.9,337c-0.5,0.5-0.9,2.2-0.7,3.7c0.1,0.4,0.3,1.4,0.9,1.8l0,0c0.7,0.4,1.1,0.3,1.5-0.1c0.5-0.6,0.8-1.6,0.7-2.6
				c-0.1-1.1-0.6-2.1-1.4-2.6C228.5,337,228.1,337,227.9,337z"/>
		</g>
		<path class="st4" d="M304.2,379.1c-1.8,1.1-3.6,2-5.4,2.7c-5.7,10.4-18,18.3-28.6,18.5c-5.5,0.1-9.8-2-12.1-5.9
			c-2.6-4.4-6.6-6-9.2-5.3c-1.7,0.4-2.7,1.9-2.8,4.1c-0.1,1.9,1.6,4.5,4.5,6.8c5.2,4.2,14.1,7.7,22.3,5.7
			C287.2,402.3,299.9,391.3,304.2,379.1z"/>
		<path class="st4" d="M247.1,320.5c-0.1,0-0.1,0-0.1,0c0,0,0.1,0.1,0.3,0.2c0.4,0.3,1.9,1,6-0.1c-0.1-1-0.1-2.1,0.3-3.6
			C251.2,318.8,248.5,320.2,247.1,320.5z"/>
		<path class="st14" d="M313.8,322c-1-2.9-2.3-5.5-3.7-7.9c-2.2-1.1-4.7-2.6-7.4-5l-0.2-0.2c-3-2.5-2.6-3.7-2.5-4
			c0.1-0.3,0.3-0.5,0.6-0.7c-4.1-2.6-8.8-4.1-13.9-4.2c-12.7-0.4-23.8,5-29.8,14.5c-1.6,2.6-2.2,4.9-1.6,6.8c0.4,1.4,1.4,2.2,2,2.5
			c1.2,0.5,8.5-2,10.7-5.9c0.1-0.2,0.3-0.4,0.6-0.4c0.2-0.1,0.5,0,0.7,0.1c5,3.1,10.7,1.7,15.6,0.1c0.5-0.2,1,0.1,1.2,0.6
			c0.1,0.3,0,0.5-0.1,0.7c3.2-0.1,6.5,0.4,9.3,1.5c0.5,0.2,0.7,0.7,0.5,1.2c-0.2,0.5-0.7,0.7-1.2,0.5c-7-2.8-16.6-1.4-21.7,3.1
			c-1.8,1.5-2.5,3-2.2,4.2c0.4,1.2,1.9,2.1,3.9,2.3c1.5,0.2,3.7-0.3,6-0.9c3.6-0.8,7.7-1.7,11.4-1c5.9,1.2,9.9,4.8,15.8,10.2
			l0.7,0.7c0.4,0.3,0.4,0.9,0.1,1.3c-0.2,0.2-0.4,0.3-0.7,0.3c-0.2,0-0.4-0.1-0.6-0.2c0.6,2.5,0.9,5.1,0.9,7.7
			c0,3.1-0.4,6.2-1.3,9.2c0.9,0.5,1.7,1.2,2.3,1.9c0.3,0.4,0.2,1-0.2,1.3c-0.4,0.3-1,0.2-1.3-0.2c-1.6-2.1-5.6-3.2-9.6-2.8
			c-2.9,0.3-8.2,1.7-11.2,7.6c0.1,0.3,0.2,0.6,0.3,0.8c1.6,5.4,1.2,8.7,0,12.5c-0.1,0.6-0.3,1.4-0.7,2.2c4,0,11.2-0.9,18.8-6.1
			C319.7,366.3,318.4,335.2,313.8,322z"/>
		<path d="M267.1,312.9c-1.5,1.1-1,2.4,0.6,2.7c1.6,0.2,1.8,0.3,3.3-0.8c1.6-1.2,1.8-3.3,0-3.1C269.1,311.9,267.9,312.3,267.1,312.9
			z"/>
		<circle cx="261" cy="313.7" r="1.8"/>
		<circle cx="282.2" cy="309.5" r="1.8"/>
		<path class="st4" d="M314.6,305.9c-3.7,0-8.9,0-12.1-0.3c-0.3,0-0.5,0-0.7,0c0.2,0.4,0.8,1.1,1.8,1.9l0.2,0.2
			c6.4,5.4,11.2,6.6,14.1,6.6c0,0,0,0,0,0c1,0,2-0.1,3-0.4c4.5-1.3,7.2-4.1,8.3-6.3c0.4-0.8,0.5-1.3,0.5-1.6
			c-0.6-0.1-2.2-0.1-4.7-0.1c-1.3,0-2.9,0-4.5,0C318.6,305.9,316.6,305.9,314.6,305.9z"/>
		<path class="st14" d="M285.2,369.5c0,0,0-0.1,0-0.1c-0.1-0.3-0.2-0.7-0.3-1.1c-0.9-3.3-5.2-9.8-8.5-9.8c-0.5,0-1,0.2-1.4,0.5
			c-2.9,1.9-2.3,5.4-1.1,10.5c0.3,1.3,0.6,2.6,0.8,3.8c0.2,1.6,0.2,3.4,0.1,5.1c-0.1,2.7-0.2,5.4,1,6.6c0.5,0.5,1.3,0.8,2.4,0.8
			c0.3,0,0.6,0,0.9-0.1c0.1,0,0.2,0,0.3,0c0.2,0,0.4-0.1,0.6-0.1c0.1,0,0.2,0,0.2-0.1c0.2-0.1,0.4-0.1,0.6-0.2c0.1,0,0.1,0,0.2-0.1
			c0.2-0.1,0.5-0.2,0.7-0.4c0,0,0,0,0.1,0c0.2-0.1,0.4-0.2,0.5-0.4c0,0,0.1-0.1,0.1-0.1c0.1-0.1,0.3-0.2,0.4-0.4
			c0,0,0.1-0.1,0.1-0.1c0.1-0.1,0.3-0.3,0.4-0.4c0,0,0,0,0-0.1c0.1-0.2,0.3-0.3,0.4-0.5c0,0,0.1-0.1,0.1-0.1
			c0.1-0.1,0.2-0.3,0.2-0.4c0-0.1,0.1-0.1,0.1-0.2c0.1-0.1,0.1-0.2,0.2-0.3c0-0.1,0.1-0.1,0.1-0.2c0-0.1,0.1-0.2,0.1-0.3
			c0.1-0.2,0.1-0.4,0.2-0.5c0,0,0,0,0,0c0-0.1,0.1-0.2,0.1-0.3v0c0.1-0.5,0.2-0.8,0.2-0.8c0-0.1,0-0.1,0-0.2
			c0.9-2.9,1.3-5.3,0.5-8.9C285.4,370.2,285.3,369.8,285.2,369.5z"/>
		<path class="st14" d="M235.2,359.6c-0.9,1.1-1.2,2.7-0.9,4.5c0.9,4.5,9,13.3,14.4,14.6c0.4,0.1,0.8,0.2,1.1,0.2
			c0.8,0,1.2-0.3,1.3-0.6c0.7-1,0.3-3.2-0.2-4.4c-1.5-3.4-6.3-12.5-8.7-14.3c-1.2-0.9-2.5-1.4-3.8-1.4
			C237.1,358.1,236,358.6,235.2,359.6z"/>
		<g>
			<g>
				<path class="st3" d="M236,354.6c0.6,1.7-0.9,2.4-2.9,3.1c-2,0.7-3.7,1.2-4.3-0.5c-0.6-1.7,0.5-3.7,2.5-4.4
					C233.3,352,235.4,352.8,236,354.6z"/>
				<path d="M230.4,359.1C230.4,359.1,230.4,359.1,230.4,359.1c-1.1,0-1.9-0.6-2.3-1.7c-0.8-2.1,0.5-4.5,2.9-5.4
					c1.1-0.4,2.3-0.4,3.4,0c1.1,0.4,1.9,1.2,2.3,2.2c0.4,1.1,0.2,2-0.7,2.8c-0.7,0.6-1.6,1-2.7,1.3
					C232.4,358.7,231.3,359.1,230.4,359.1z M232.8,353.2c-0.4,0-0.8,0.1-1.2,0.2c-1.6,0.6-2.5,2.1-2,3.5c0.2,0.5,0.4,0.7,0.9,0.7
					c0,0,0,0,0,0c0.7,0,1.5-0.3,2.4-0.6c0.9-0.3,1.7-0.7,2.2-1.1c0.3-0.3,0.5-0.6,0.3-1.1c-0.2-0.6-0.7-1.1-1.4-1.4
					C233.5,353.3,233.2,353.2,232.8,353.2z"/>
			</g>
			<path class="st2" d="M229.5,356.7c0,0,1.5,1,1.8-0.4c1.3,1,1.9-0.1,1.9-0.5c1,0.6,2.4-0.4,1.3-1.9c1.2,0.8,0.8,1.9,0.6,2
				c-0.3,0.2-1.6,1.2-4,1.7C231.1,357.5,229.5,358,229.5,356.7z"/>
		</g>
		<path class="st15" d="M268.7,290.8c2.3-2.2,10.3-7.2,26.8-0.6c12,4.8,16.8,9.7,18.8,12c-1.8,0-7-0.1-7-0.1l-17.9-9.3L268.7,290.8z
			"/>
		<path class="st10" d="M286.7,296.2c6.4,0.2,12.2,2.1,17.2,5.8c1.1,0.1,4.3,0.1,5.6,0.1c-9.1-9.2-24.4-15.6-35.5-13.6
			c-10.7,1.9-7.7,11.2-7.4,12.1C272.5,297.6,279.4,296,286.7,296.2z"/>
		<path class="st15" d="M313.8,298.2c1-1.7,4.3-5.1,4.5-5.4c0.6-0.7,1-1.4,0.9-2.6c-0.2-3.9-4.5-7.3-9.7-10.3
			c-5.2-3-11.3-3.1-14-2.7c-2.7,0.4-3.3,3.1-3.4,3.5c0,0.3-0.8,3.1-1.3,4.8c2.8,0.7,5.1,1.5,8,2.8
			C305,291.3,309.9,294.4,313.8,298.2z"/>
		<path class="st10" d="M302.5,290.3c3.6,2.1,8.7,5.4,11.2,7.9c1-1.7,4.3-5.1,4.5-5.4c0.6-0.7,1-1.4,0.9-2.6c0-0.6-0.2-1.2-0.4-1.8
			c0,0.1,0,0.1,0,0.2c-0.1,3.6-5.1-2.4-9.7-2.7C304.1,285.6,303.4,288.5,302.5,290.3z"/>
		<path class="st15" d="M308.8,323.7l8.7,6l0.7,17.6l-2.9,18.2l-9.6-6l1.6-7.5l-0.8-8.4l-1-3.6l-11.7-9.2c0,0,3.2-6.3,0-10.1
			C300.9,323,308.8,323.7,308.8,323.7z"/>
		<path class="st10" d="M314.5,362.1c0,0,4.8-12.8,1.2-32.8c-2.9-1-3.5,2.3-3.5,2.3s2,19.9-1.5,28.6
			C314.1,361.7,314.5,362.1,314.5,362.1z"/>
		<path d="M307.6,314.1c0-0.3,0.9-6.2-5.6-11.8c-5.4-4.7-16.1-7.6-24.3-5.5c-1.5,0.4-2.4,1.2-2.4,2.7c0.1,3.8,7.2,10.8,17.9,11.7
			c1.5,0.2,1.9,0.1,3.5,0.6c-0.1-0.6-1.3-2.2-1.3-2.4c1.4,0.6,3.2,1.6,6.4,3.8c0.1-1.3-0.8-2.7-1.5-4.1c3.8,2.4,4.2,3.3,4.9,4.1
			l2.2,3.2L307.6,314.1z"/>
		<path d="M330.3,304.2c-0.4-0.1-1.5-0.2-5.4-0.2c-1.3,0-2.9,0-4.5,0c-1.9,0-3.8,0-5.8,0c-3.4,0-8.1,0-11.3-0.2
			c-4.7-3.6-10.4-5.6-16.6-5.8c-13.3-0.4-25,5.3-31.3,15.2c-2.4,2.4-7.1,5.1-8.7,5.4c-0.7,0.2-1.3,0.6-1.5,1.3
			c-0.2,0.7,0,1.4,0.6,1.9c0.5,0.5,1.5,1.1,3.6,1.1c1.1,0,2.5-0.2,4.3-0.7c0.7,1.5,1.8,2.5,2.8,2.9c2.3,1,9.6-1.9,12.5-5.9
			c2.2,1.2,4.6,1.6,6.9,1.6c-1.6,0.7-3.1,1.7-4.4,2.8c-3,2.6-3.1,4.8-2.7,6.1c0.6,1.9,2.7,3.3,5.4,3.6c1.8,0.2,4-0.3,6.6-0.9
			c3.4-0.8,7.4-1.6,10.6-1c4.9,1,8.3,3.7,13.2,8.1c1.1,3.2,1.6,6.6,1.6,10c0,2.8-0.4,5.7-1.1,8.4c-2.1-0.8-4.7-1.1-7.3-0.9
			c-5.1,0.5-9.4,3.2-12,7.4c-1.9-3.7-5.6-8.6-9.7-8.6c-1,0-1.9,0.3-2.8,0.9c-4.5,3-3.2,8.4-2.1,13.1c0.3,1.3,0.6,2.5,0.8,3.6
			c0.2,1.4,0.2,3,0.1,4.6c-0.1,3.2-0.2,6.4,1.7,8.4c1,1,2.4,1.5,4.1,1.5c3.7,0,6.1-1.9,7.5-4.1c0.3,0,0.7,0,1,0
			c2.4,0,5.7-0.3,9.5-1.5c-5.7,8.9-16.5,15.6-26,15.7c-3.4,0.1-8-0.7-10.5-5c-3.1-5.2-8-7-11.2-6.2c-2.6,0.7-4.1,2.8-4.2,5.8
			c-0.1,2.5,1.8,5.5,5.2,8.3c4.4,3.6,11.4,6.7,18.6,6.7c1.8,0,3.6-0.2,5.3-0.6c15.6-3.7,29.5-16.2,33.2-29.9c8.4-6,11.1-18,11.9-27
			c1-11.5-0.8-22.9-3-29.2c-0.8-2.2-1.7-4.2-2.7-6.2c2,0.7,3.8,0.9,5.1,0.9c0,0,0,0,0,0c1.2,0,2.4-0.2,3.5-0.5
			c7.2-2.1,10.2-7.4,10.1-9.7C331.5,305,331.1,304.4,330.3,304.2z M253.2,320.6c-4.1,1.1-5.6,0.4-6,0.1c-0.2-0.1-0.3-0.2-0.3-0.2
			c0,0,0,0,0.1,0c1.4-0.3,4.1-1.7,6.5-3.4C253.1,318.5,253.1,319.7,253.2,320.6z M284.9,379.4c0,0.1,0,0.1,0,0.2
			c0,0.2-1.2,6.1-6.8,6.1c-1.1,0-1.9-0.3-2.4-0.8c-1.1-1.2-1.1-3.9-1-6.6c0.1-1.7,0.1-3.5-0.1-5.1c-0.2-1.2-0.5-2.5-0.8-3.8
			c-1.2-5.1-1.8-8.6,1.1-10.5c0.5-0.3,0.9-0.5,1.4-0.5c3.3,0,7.6,6.5,8.5,9.8C286.3,373.2,286,376,284.9,379.4z M273,405.6
			c-8.2,1.9-17.1-1.5-22.3-5.7c-2.9-2.4-4.6-4.9-4.5-6.8c0.1-2.2,1.1-3.6,2.8-4.1c2.6-0.7,6.6,1,9.2,5.3c2.3,3.9,6.6,6,12.1,5.9
			c10.7-0.2,23-8.2,28.6-18.5c1.7-0.7,3.5-1.6,5.4-2.7C299.9,391.3,287.2,402.3,273,405.6z M313.8,322c4.7,13.2,5.9,44.3-8.4,54.2
			c-7.6,5.2-14.7,6.1-18.8,6.1c0.3-0.8,0.6-1.6,0.7-2.2c1.2-3.8,1.6-7.1,0-12.5c-0.1-0.2-0.2-0.5-0.3-0.8c3-6,8.3-7.4,11.2-7.6
			c4-0.4,8,0.8,9.6,2.8c0.3,0.4,0.9,0.5,1.3,0.2c0.4-0.3,0.5-0.9,0.2-1.3c-0.6-0.7-1.4-1.4-2.3-1.9c0.8-3,1.3-6,1.3-9.2
			c0-2.6-0.3-5.2-0.9-7.7c0.2,0.1,0.4,0.2,0.6,0.2c0.3,0,0.5-0.1,0.7-0.3c0.3-0.4,0.3-1-0.1-1.3l-0.7-0.7c-6-5.4-9.9-8.9-15.8-10.2
			c-3.7-0.8-7.8,0.2-11.4,1c-2.4,0.5-4.6,1-6,0.9c-1.9-0.2-3.5-1.1-3.9-2.3c-0.4-1.2,0.4-2.7,2.2-4.2c5.1-4.5,14.7-5.9,21.7-3.1
			c0.5,0.2,1,0,1.2-0.5c0.2-0.5,0-1-0.5-1.2c-2.9-1.1-6.1-1.6-9.3-1.5c0.1-0.2,0.2-0.5,0.1-0.7c-0.2-0.5-0.7-0.7-1.2-0.6
			c-4.9,1.6-10.5,3-15.6-0.1c-0.2-0.1-0.5-0.2-0.7-0.1c-0.2,0.1-0.4,0.2-0.6,0.4c-2.1,3.9-9.5,6.4-10.7,5.9c-0.7-0.3-1.6-1.1-2-2.5
			c-0.6-1.9,0-4.2,1.6-6.8c6-9.4,17.1-14.9,29.8-14.5c5.1,0.2,9.8,1.6,13.9,4.2c-0.3,0.2-0.5,0.4-0.6,0.7c-0.1,0.4-0.6,1.5,2.5,4
			l0.2,0.2c2.7,2.3,5.2,3.9,7.4,5C311.5,316.4,312.7,319.1,313.8,322z M329.2,307.6c-1.1,2.2-3.8,4.9-8.3,6.3
			c-0.9,0.3-1.9,0.4-3,0.4c0,0,0,0,0,0c-2.9,0-7.7-1.1-14.1-6.6l-0.2-0.2c-0.9-0.8-1.5-1.5-1.8-1.9c0.2,0,0.4,0,0.7,0
			c3.2,0.3,8.5,0.3,12.1,0.3c2,0,4,0,5.8,0c1.6,0,3.2,0,4.5,0c2.5,0,4.1,0,4.7,0.1C329.7,306.2,329.6,306.8,329.2,307.6z"/>
		<path d="M249.8,380.7L249.8,380.7c-0.5,0-1-0.1-1.5-0.2c-6.2-1.5-14.7-10.8-15.8-16c-0.5-2.3,0-4.5,1.2-6c1.1-1.4,2.8-2.2,4.7-2.2
			c1.7,0,3.4,0.6,4.9,1.8c3,2.3,8.2,12.5,9.3,15.1c0.5,1.1,1.4,4.2,0.1,6.2C252.3,379.9,251.4,380.7,249.8,380.7z M238.5,358.1
			c-1.3,0-2.5,0.5-3.3,1.5c-0.9,1.1-1.2,2.7-0.9,4.5c0.9,4.5,9,13.3,14.4,14.6c0.4,0.1,0.8,0.2,1.1,0.2c0.8,0,1.2-0.3,1.3-0.6
			c0.7-1,0.3-3.2-0.2-4.4c-1.5-3.4-6.3-12.5-8.7-14.3C241,358.6,239.7,358.1,238.5,358.1z"/>
		<path d="M272,296.7C272,296.7,272,296.7,272,296.7c-2.8-0.3-7,0.7-10.7,4.4c-4.9,4.5-7.6,1.2-8.7,1.3c0,1,1.9,3.5,2.6,4.2
			c0.1,0.1,2.2,2.4,6.2,2.9c3.4,0.4,8.6-0.7,13.9-7.9c0.6-0.8,0.7-1.8,0.3-2.7C275.2,297.7,273.9,296.9,272,296.7L272,296.7z"/>
		<path d="M293.7,332.1c-0.1,0-0.2,0-0.4-0.1c-0.5-0.2-0.8-0.8-0.6-1.3c2.4-6.1,1-9.6,0.9-9.6c-0.2-0.4-0.1-0.8,0.2-1.1
			c0.3-0.3,0.7-0.4,1-0.3c3.4,1.2,9.4,2.9,10.9,2.6c0.5-0.1,1.1,0.2,1.2,0.8c0.1,0.5-0.2,1.1-0.8,1.2c-2,0.4-7.4-1.2-10.3-2.1
			c0.3,1.9,0.3,5-1.4,9.2C294.5,331.9,294.1,332.1,293.7,332.1z"/>
		<g>
			<path class="st15" d="M286.1,365.8c4.5-1.7,15.9,8.7,22,32c7.4-2.4,10.2-26.3,8-33.5C312.5,361.5,297.2,353,286.1,365.8z"/>
			<path d="M308.1,398.8c-0.2,0-0.3,0-0.5-0.1c-0.2-0.1-0.4-0.4-0.5-0.6c-4.5-17.2-12.1-27.8-17.7-30.7c-1.2-0.6-2.3-0.8-3-0.6
				c-0.4,0.2-0.9,0-1.2-0.4c-0.3-0.4-0.2-0.9,0.1-1.2c11.2-12.9,26.8-5.3,31.4-1.6c0.2,0.1,0.3,0.3,0.3,0.5c2.2,7.1-0.4,32-8.6,34.7
				C308.3,398.8,308.2,398.8,308.1,398.8z M288.4,364.9c0.6,0.1,1.3,0.4,1.9,0.8c5.4,2.8,13.4,12.6,18.4,30.8
				c5.8-3.9,8.4-24.5,6.5-31.5C311,361.7,298.2,355.6,288.4,364.9z"/>
		</g>
		<path class="st10" d="M306.2,388.6c0.9,2.4,1.7,5,2.5,7.8c5.8-3.9,8.4-24.5,6.5-31.5c-0.5-0.4-3.3-2-3.9-2.4
			c1.4,6.9-4.7,10.2-5.1,16.9c0,0.7,6.2-7.9,6.1-7.2C310.8,378.6,308.2,385.3,306.2,388.6z"/>
		<g>
			<path d="M314.6,305.9c0.5,0,1,0,1.5,0l-0.8-0.5l-1,0.5C314.4,305.9,314.5,305.9,314.6,305.9z"/>
			<path d="M321.3,315.8l4.5,2.7l-2.9-5.4c-0.6,0.3-1.3,0.5-2,0.7c-0.9,0.3-1.9,0.4-3,0.4c0,0,0,0,0,0c-2.8,0-7.4-1.1-13.5-6.1
				c-0.6,0-1-0.1-1-0.1l-6.9-0.7l0.9,0.8l3.8,2.5c2.8,1.9,4.2,4.7,3.8,7.5c-0.4,2.8,0,9.5,4.8,15c1.7,2,1.7,6,1.7,6s2.1-2.5,1.9-7.3
				c-0.1-1.1-0.1-1.4-0.1-2.1c1.2,2.7,2.7,5.4,4.6,7.1c1.5,1.2,2.6,3.3,3.5,6.7c2.5-4.3,0.7-5.2-0.1-8.5c-0.1-0.3-0.1-0.6-0.2-0.9
				c0.7,1.4,1.5,3,2.1,4.5c2.2,4.7,6.3,5.8,7.7,4.4c-1.8-0.2-4.1-2.4-3.7-4.9c0.5-3.3-0.2-6.6-1.5-10c0.1,0,1.5,1.2,3.8,0.7
				c-2.9-1.4-2.3-4.1-4.5-7.9C324.1,319.6,322.9,317.8,321.3,315.8z"/>
		</g>
		<g>
			<path class="st16" d="M273.8,300.4c1.4-1.9-5.5-3.5-11.1,2.1c-4.1,4.1-6.6,2.6-6.6,2.6S264.4,313,273.8,300.4z"/>
			<path class="st16" d="M271.8,298.7c1.7,0.2,2.6,0.9,2,1.7c-4.6,6.2-8.9,7.4-12.1,7.1c-3.4-0.3-5.5-2.4-5.5-2.4s0.3,0.2,0.9,0.2
				c1.1,0.1,3-0.2,5.7-2.9C265.9,299.3,269.5,298.5,271.8,298.7"/>
		</g>
		<path class="st16" d="M300.5,303.8c-4.9-4.3-15.7-7.4-21.6-5.5c-1.1,0.4-1.4,1.4-1.2,2c0.7,2.4,5.5,7.6,15.2,8.8
			c0-0.4-0.2-1.1-0.4-1.4c-0.1-0.3-0.2-0.7,0.1-0.8c1-0.6,3.2,0.6,5.9,2.4c-0.2-1.2-1-2.2-1.2-2.8c-0.1-0.4,0.3-0.5,0.6-0.5
			c0.1,0,0.5,0.1,0.6,0.1c2.6,1,4.5,2.7,6.6,4.4C304.3,308.4,302.9,305.9,300.5,303.8z"/>
		<path class="st17" d="M273.4,299.2C273.4,299.2,273.4,299.1,273.4,299.2c-0.1-0.1-0.2-0.1-0.2-0.1c0,0-0.1,0-0.1,0
			c0,0-0.1,0-0.1-0.1c0,0-0.1,0-0.1,0c-0.1,0-0.1,0-0.2-0.1c0,0,0,0-0.1,0c-0.1,0-0.2,0-0.3-0.1c0,0-0.1,0-0.1,0c-0.1,0-0.2,0-0.2,0
			c0,0-0.1,0-0.1,0c-0.1,0-0.1,0-0.2,0c-0.1,0-0.2,0-0.3,0c-0.1,0-0.1,0-0.2,0c-0.1,0-0.2,0-0.3,0c0,0-0.1,0-0.1,0
			c-0.1,0-0.3,0-0.5,0c0,0-0.1,0-0.1,0c-0.1,0-0.2,0-0.3,0c-0.1,0-0.1,0-0.2,0c-0.1,0-0.2,0-0.3,0.1c-0.1,0-0.1,0-0.2,0c0,0,0,0,0,0
			c-3.3,1.6-2.3,4.6-8.9,6.9c4,0.2,6.9-1.8,8.8-3.9c1.8-2,3.2-2.8,4.6-2.5c0,0,0,0,0,0C273.5,299.2,273.5,299.2,273.4,299.2z"/>
		<path class="st17" d="M293.8,302.2c0,0,2.4,0.1,6.4,3.3c-1.1-1.7-2-3-3.1-3.9c-5.5-3-13.5-4.8-18.3-3.2c-0.1,0-0.1,0-0.2,0.1
			c-0.1,0-0.2,0.1-0.3,0.1c-0.1,0.1-0.2,0.1-0.3,0.2c0.9-0.1,4.4-0.7,7.3,2.2c3.2,3.2,4.3,1.9,6.1,2.3c1,0.2,3.9,2.1,5.1,3
			C296.6,306.2,295.3,303.1,293.8,302.2z"/>
		<path class="st16" d="M325.9,326.2c-0.4-1.5-1.9-4.5-6.4-9.6c-7.1,0-12.9-3.9-14.5-5.1c0,0,0,0-0.1,0c1.7,2.1,2.3,4.6,2,6.7
			c-0.4,3,0,8,4.5,13.8c-0.5-7.6-0.3-9.4,0.9-12c1,4.5,3.3,12.3,7,15.5c-2.7-13,3.4-3.7,5.6,2.5c1.4-5.5-5.6-17.3-5.6-17.3
			S323.9,323.5,325.9,326.2z"/>
		<g>
			<path class="st17" d="M308.3,313.6c0.4,1.2,0.4,2.5,0.3,3.9c-0.1,1.9,0.6,4.3,1.2,5.2c-0.3-1.8,0.8-3.4,0.8-5.8
				c0-0.2-0.2-1.7-0.3-1.9c0.1,0.1,0.9,1.9,2.1,3c2.3,2.1,4.7,5.8,5.6,8.7c0.1-3.2-1.7-8.3-3-10.4
				C312.4,315.5,310.1,314.5,308.3,313.6z"/>
			<path class="st17" d="M315.3,316.2c1.4,1.3,2.8,1.7,4.3,3.3c-0.4-1.1-1-2.1-1.5-2.9C317.1,316.5,316.2,316.4,315.3,316.2z"/>
		</g>
	</g>
</g>
<g id="Ebene_3" class="st18">
	<g class="st19">
		<path class="st20" d="M268,414.9c-11.2,0-20.6-5.7-25.3-10.5c-3.5-3.7-5.3-7.6-5.2-11.6c0.1-3.3,1.2-6.2,3.1-8.4
			c-6.9-4.3-13.5-12.3-14.8-18.6c-0.2-0.8-0.3-1.5-0.3-2.2c-2.8-1.7-3.9-4.6-3.9-7.3c0-2.3,0.8-4.5,2.2-6.3
			c-0.1-0.8-0.3-1.6-0.4-2.3c-5.4-5.3-5.7-16.1-2.9-22.8c0.1-0.2,0.2-0.4,0.2-0.7c0-0.2-0.1-0.5-0.1-0.7c-1.9-3.6-2.8-8.1-3.2-10
			c-0.3-1.8-1.2-7.1,3.1-10.1c4.2-2.9,8.4-0.4,10,0.5c1.4,0.8,2.7,1.9,3.9,3.2c0.8-0.1,1.6-0.1,2.4-0.1c1.1-1.3,2.5-2.3,3.9-3.6
			c5.5-5.5,16.1-5,17.1-5.9c0,0,0.1-0.1,0.1-0.1c-0.2-2.6,0.3-5.1,1.3-7.3c3.5-7.7,13.4-11.7,25.3-10.6c0.1-0.4,0.2-0.7,0.2-0.9
			c0.2-0.8,0.4-1.5,0.7-2.2c3.3-7.3,14.6-8.8,26.1-3.6c4.9,2.2,9.1,5.4,11.9,9c3.4,4.4,4.3,9.2,2.5,13.1c-0.4,0.8-0.9,1.6-1.5,2.3
			c0.2,0,0.3,0,0.5,0c4.4,0,5.8,0.1,7.1,0.4c3.7,0.9,6.3,4.2,6.3,8.2c0.1,3.8-2.3,9-7.6,12.8c0,0.7,0.8,5.6,1,5.8
			c1.8,1,2.9,3,2.6,5.1c-0.2,1.5,0.7,10.3,1.2,11.9c0.7,1.8,0.2,3.8-1.1,5.2c-1.6,1.7-4,2.4-6.6,1.9c-0.8-0.1-1.5-0.4-2.3-0.7
			c-0.3,5.5-1.1,11.8-3.1,17.9c1.1,9-0.8,31.9-11,37.2c-1.3,0.9-8.6,5.4-21.4,5c-4.8,2.9-9.9,5-15.1,6.2
			C272.7,414.6,270.4,414.9,268,414.9z M230.4,338.8L230.4,338.8L230.4,338.8z"/>
	</g>
</g>
</svg>
