<?xml version="1.0" encoding="utf-8"?>
<!-- Generator: Adobe Illustrator 18.0.0, SVG Export Plug-In . SVG Version: 6.00 Build 0)  -->
<!DOCTYPE svg PUBLIC "-//W3C//DTD SVG 1.1//EN" "http://www.w3.org/Graphics/SVG/1.1/DTD/svg11.dtd">
<svg version="1.1" id="Layer_1" xmlns="http://www.w3.org/2000/svg" xmlns:xlink="http://www.w3.org/1999/xlink" x="0px" y="0px"
	 viewBox="0 0 595 842" enable-background="new 0 0 595 842" xml:space="preserve">
<path d="M397.1,318.2c-1.3-0.3-3.4-0.5-11.9-0.5c-2.7,0-5.9,0-9.2,0c-3.7,0-7.7,0-11.7,0c-6.4,0-15.4,0-21.7-0.4
	c-10.2-7.4-22-11.4-35-11.8c-12.5-0.4-24.3,1.8-34.8,6.1l-16.7,0.9c-0.1-1.5-0.5-2.9-1.3-4c-0.4-0.5-0.9-1-1.6-1.4
	c-2.9-1.8-8.2-2-12.5-0.5c-3.3,1.1-5.7,3.2-6.7,5.8c-0.2,0.5-0.3,1-0.4,1.5l-6.5,0.4c-1.2,0.1-2.2,1-2.3,2.2l-0.9,7.5l-13.8-1.3
	c1,1.6,1.4,3.6,0.8,5.6c-0.3,1.1-0.9,2.1-1.6,2.8l12.4,0.4l-3.6,7.4l-2.3,0l0,0.1l-9.5-6.8l1.9,27.1l0,0.1c-0.4,0.8-0.3,1.6,0.1,2.4
	c0,0.1,0.1,0.1,0.1,0.2l2,28.5l10.9-20.8l3.2,3.9c-0.8,1.4-1.7,3-2.7,4.7c-6.4,11-9.8,23.4-9.8,36.2c0,3.2,0.2,6.4,0.6,9.6
	c-1-0.2-2-0.3-3-0.3c-4.9,0-9.4,2.1-12.4,5.8c-3.3,4.1-4.5,9.6-3.3,15.4c2.5,11.9,20.5,32,34.9,35.4c1.4,0.3,2.8,0.5,4,0.5
	c3.8,0,7-1.6,8.9-4.6c0.6-0.9,1.1-1.9,1.4-2.9c9.8,6.8,21.2,11,33.2,12.2c2.6,8.5,9.6,9.9,14,9.9c6.6,0,12.3-2.7,16.3-7.6
	c0.4,0,0.7,0,1.1,0c2.8,0,6.2-0.2,10.2-0.8c-12.6,14.2-30.9,22.4-44.4,22.4c0,0,0,0,0,0c-5.7,0-13.3-1.4-17.4-8.3
	c-5.4-9.1-14.1-14.8-22.7-14.8c-9,0-15.2,6.3-15.5,15.8c-0.2,5.1,2.5,10.7,7.7,16.1c8.8,9.1,25.9,18.3,44.2,18.3c4,0,8-0.5,11.8-1.3
	c32.4-7.7,61.5-33.6,69.9-62.2c31-23.6,28.5-88.7,18.2-117.6c-0.7-2-1.5-4-2.3-5.9c1.2,0.1,2.5,0.2,3.7,0.2c2.8,0,5.6-0.4,8.2-1.2
	c16.1-4.8,23.4-16.8,23.2-23.3C402.2,321.7,400.2,318.9,397.1,318.2z M238.3,325.8l-2.2,0.2l0-2.4l2.8-0.4
	C238.6,324.1,238.4,324.9,238.3,325.8z M239,319.1c-1.4-0.8-2.8-2.4-1.6-5.3c0.8-2,3.1-3.1,4.4-3.6c0.9-0.3,1.8-0.5,2.7-0.6
	c0.9-0.1,1.8-0.2,2.7-0.1c0.8,0,1.5,0.1,2.1,0.3c0.7,0.2,1.4,0.4,1.9,0.7c0.2,0.2,0.4,0.3,0.6,0.5l0,0c0.1,0.1,0.2,0.3,0.3,0.4
	c0,0,0,0,0,0.1c0.1,0.1,0.1,0.3,0.2,0.4c0,0,0,0,0,0c0,0.2,0.1,0.3,0.1,0.5l0,0c0.1,0.8,0,1.7-0.3,2.5c-0.9,2.4-3.1,4.3-6,5
	C243.4,320.4,240.8,320.2,239,319.1z M242.4,325.4c0.1-0.4,0.2-0.9,0.4-1.3c0.2-0.5,0.4-1,0.7-1.5l7.7-1l0,0l5.5-0.7
	c-1.5,1.1-2.9,2.3-4.3,3.6L242.4,325.4z M345.4,468c-15.4,10.6-29.9,12.4-38.1,12.4c0.7-1.6,1.2-3.2,1.4-4.5
	c2.4-7.7,3.2-14.4,0-25.3c-0.1-0.5-0.3-1.1-0.6-1.7c6.1-12.1,16.9-14.9,22.8-15.5c8.1-0.8,16.3,1.6,19.5,5.8c0.6,0.8,1.8,1,2.6,0.3
	c0.8-0.6,1-1.8,0.3-2.6c-1.2-1.5-2.8-2.8-4.7-3.9c1.7-6,2.6-12.3,2.6-18.6c0-5.3-0.6-10.5-1.8-15.6c0.3,0.3,0.8,0.4,1.2,0.4
	c0.5,0,1-0.2,1.4-0.6c0.7-0.8,0.6-1.9-0.1-2.6l-1.5-1.3c-12.1-10.9-20.1-18.2-32.2-20.7c-7.4-1.5-15.8,0.3-23.2,2
	c-4.8,1.1-9.3,2.1-12.3,1.8c-3.9-0.4-7.1-2.3-7.9-4.8c-0.8-2.4,0.8-5.4,4.4-8.6c10.4-9.2,29.8-11.9,44.1-6.3c1,0.4,2-0.1,2.4-1.1
	c0.4-1-0.1-2-1.1-2.4c-5.8-2.3-12.4-3.3-19-3.1c0.3-0.4,0.3-1,0.2-1.5c-0.3-1-1.4-1.5-2.3-1.2c-10,3.2-21.4,6.1-31.6-0.2
	c-0.4-0.3-1-0.3-1.5-0.2c-0.5,0.1-0.9,0.5-1.2,0.9c-4.3,7.9-19.3,13.1-21.7,12.1c-1.4-0.6-3.3-2.3-4.1-5.1c-1.1-3.8,0-8.5,3.3-13.8
	c12.1-19.2,34.7-30.2,60.6-29.4c10.4,0.3,19.9,3.3,28.2,8.6c-0.5,0.4-0.9,0.8-1.2,1.5c-0.3,0.8-1.1,3.1,5,8.2l0.4,0.4
	c5.5,4.7,10.5,7.9,15,10.1c3,4.8,5.5,10.2,7.6,16.1C372,384.7,374.6,447.9,345.4,468z"/>
<g>
	
		<ellipse transform="matrix(0.9627 0.2706 -0.2706 0.9627 94.2593 -35.179)" fill="#58585A" cx="174.7" cy="324.3" rx="7.2" ry="7.9"/>
	<path fill="#3B353A" d="M206.7,320.2c-0.2-0.1-0.5-0.1-0.7-0.1l-29.1-3.4c3.8,1.1,5.9,5.4,4.8,9.6c-0.9,3.1-3.3,5.3-6.1,5.8
		l28.7,1.2c0,0,0,0,0,0l0,0l0,0c2.8,0.1,5.5-1.9,6.3-5C211.7,324.7,209.9,321.1,206.7,320.2z"/>
</g>
<g>
	<path fill="#005683" d="M229,451.8c-1.6-3-3.4-6-5.1-8.8C225.4,446,227.1,449,229,451.8z"/>
	<path fill="#005683" d="M344.2,394.2c-10-9-16.9-14.5-26.8-16.5c-6.7-1.4-14.6,0.4-21.6,1.9c-5.3,1.2-9.9,2.2-13.5,1.8
		c-5.5-0.6-9.8-3.5-11.1-7.4c-0.9-2.7-0.6-7.1,5.5-12.5c2.5-2.2,5.6-4.1,8.9-5.6c-4.8,0-9.5-0.9-14.1-3.3
		c-5.9,8.2-20.8,14.1-25.4,12.1c-1-0.5-2.2-1.2-3.2-2.3c-0.1,0.1-0.2,0.2-0.3,0.2c1.2,1.1,2.1,2.7,2.5,4.6c0.8,3.8-0.5,7.8-3.5,10.8
		c-2.6,2.6-5.9,4.1-9,4.1c-2.2,0-4-0.8-5.4-2.1c-6.2,10-9.7,21.8-9.7,34.4c0,5.9,0.8,11.6,2.2,17c6.2,5.1,16.3,25.3,18.6,30.4
		c0.1,0.3,0.3,0.6,0.4,1c10.6,9.8,24.4,16.2,39.6,17.3c-0.2-2.5-0.1-5.2,0-7.9c0.1-3.3,0.2-6.6-0.2-9.4c-0.4-2.3-0.9-4.7-1.6-7.3
		c-2.3-9.6-4.9-20.5,4.3-26.7c1.8-1.2,3.7-1.8,5.7-1.8c8.3,0,15.8,10,19.7,17.6c5.3-8.6,14-14,24.3-15c5.2-0.5,10.4,0.1,14.7,1.7
		c1.5-5.5,2.3-11.2,2.3-17C347.4,407.5,346.3,400.7,344.2,394.2z"/>
</g>
<g>
	<path fill="#00709C" d="M301.3,378.4c-1.9,0.4-3.7,0.8-5.5,1.2c-5.3,1.2-9.9,2.2-13.5,1.8c-5.5-0.6-9.8-3.5-11.1-7.4
		c-0.9-2.7-0.6-7.1,5.5-12.5c0.1-0.1,0.2-0.1,0.3-0.2c-3.9-1.3-8.1-2.1-12.3-2.4c-6.8,4.6-15.3,7.2-18.6,5.7c-1-0.5-2.2-1.2-3.2-2.3
		c-0.1,0.1-0.2,0.2-0.3,0.2c-2.5,1.9-9.9,8.9-15.5,17.4c-6.2,10-9.7,21.8-9.7,34.4c0,5.9,0.8,11.6,2.2,17
		c4.1,3.4,10.1,13.6,14.2,21.5c7.9,5,17.3,8,27.3,8c5.6,0,10.9-0.9,15.9-2.5c-0.2-0.9-0.4-1.8-0.6-2.7c-2.3-9.6-4.9-20.5,4.3-26.7
		c1.8-1.2,3.7-1.8,5.7-1.8c6.4,0,12.3,5.9,16.4,12.1c5.9-8.3,9.3-18.4,9.3-29.4C312.2,398,308.1,387.1,301.3,378.4z"/>
</g>
<path fill="#FFFFFF" d="M256.8,449c-2.8,0.2-5.1,0-7.9-0.6c-0.8-8.4-1.4-19,2.9-37.4c7.7,20,16.2,34.7,16.3,34.8
	C266.6,446.5,262.2,448.6,256.8,449 M243.8,446.9c-22.1-10-26.2-33.9-18.7-52.2C225.4,412.8,230.4,427,243.8,446.9 M273.8,442.4
	c3.5-15.1,9.3-29.6,12.8-44.7c0.7-2.9,1.2-7.5,0.2-12.6C296.9,401.1,295.8,425.9,273.8,442.4 M228.2,388.6
	c10-15.4,29.1-27.9,50-12.5c-0.1,0-13.4,0.6-3.8,14.9c5.2,7.7,5.6,13.9,1.4,26.5c-1.5,6.2-1.9,8.1-3.3,14.5
	c-6.4-15.2-11.6-28.2-15.7-44.8c3.6-0.5,7.7-1.1,5.6-3.5c-0.3-0.3-19.3,1.6-19.5,1.6c-1.5,0.2-1.7,2-1.7,2c-0.2,1.4,0.1,1.3,4.2,1.1
	c1.1,5.9,1.6,8.5,4.3,17.1c-1.9,8.1-3.9,16.4-4.2,29.3c-8.7-17.3-12.1-29.2-12.8-44.2c1.2-0.7,2.9-0.5,4-1.6
	c0.7-0.8,1.1-2.5,0.2-2.7C233.6,385.6,231.1,388,228.2,388.6 M258.3,365.9c-32.8,2.7-54.1,52.1-25.1,78
	c29.4,26.2,65.7-7.7,64.5-39.1C296.7,380.4,276.5,365,258.3,365.9"/>
<path fill="#FFD200" d="M304.4,454.5c0-0.1,0-0.2-0.1-0.2c-0.2-0.7-0.4-1.4-0.6-2.2c-1.8-6.7-10.6-19.9-17.3-19.9
	c-1,0-2,0.3-2.9,0.9c-5.9,3.9-4.7,11-2.2,21.4c0.6,2.6,1.2,5.2,1.6,7.7c0.5,3.2,0.4,6.8,0.3,10.3c-0.2,5.4-0.4,11,2,13.4
	c1,1.1,2.6,1.6,4.9,1.6c0.7,0,1.3,0,1.9-0.1c0.2,0,0.4-0.1,0.5-0.1c0.4-0.1,0.8-0.1,1.2-0.2c0.2,0,0.3-0.1,0.5-0.1
	c0.4-0.1,0.8-0.3,1.2-0.4c0.1,0,0.2-0.1,0.3-0.1c0.5-0.2,0.9-0.5,1.3-0.7c0,0,0.1-0.1,0.1-0.1c0.4-0.2,0.7-0.5,1.1-0.8
	c0.1-0.1,0.2-0.2,0.3-0.2c0.3-0.2,0.5-0.5,0.8-0.7c0.1-0.1,0.2-0.2,0.3-0.3c0.3-0.3,0.5-0.6,0.8-0.9c0,0,0.1-0.1,0.1-0.1
	c0.3-0.3,0.5-0.7,0.8-1.1c0.1-0.1,0.1-0.2,0.2-0.3c0.2-0.3,0.3-0.5,0.5-0.8c0.1-0.1,0.1-0.2,0.2-0.4c0.1-0.2,0.2-0.4,0.3-0.6
	c0.1-0.1,0.1-0.3,0.2-0.4c0.1-0.2,0.2-0.4,0.2-0.5c0.2-0.4,0.3-0.7,0.4-1.1c0,0,0,0,0-0.1c0.1-0.2,0.2-0.5,0.2-0.7v0
	c0.3-0.9,0.4-1.6,0.4-1.7c0-0.1,0-0.2,0.1-0.3c1.9-5.9,2.6-10.9,1.1-18.2C304.8,455.8,304.6,455.1,304.4,454.5z"/>
<path fill="#FF8800" d="M364.3,325.2c-7.4,0-18.1-0.1-24.7-0.6c-0.6,0-1.1,0-1.4,0c0.5,0.8,1.7,2.2,3.6,3.8l0.5,0.4
	c13,11.1,22.7,13.4,28.6,13.4c0,0,0,0,0,0c2.1,0,4.1-0.3,6.1-0.9c9.1-2.7,14.7-8.4,16.9-12.7c0.8-1.6,1-2.7,1-3.2
	c-1.2-0.1-4.5-0.2-9.6-0.2c-2.7,0-5.9,0-9.2,0C372.3,325.2,368.3,325.2,364.3,325.2z"/>
<path fill="#FFD200" d="M202.8,434.3c-1.9,2.3-2.5,5.6-1.8,9.2c1.9,9.2,18.2,27,29.3,29.7c0.8,0.2,1.6,0.3,2.3,0.3
	c1.7,0,2.4-0.7,2.7-1.2c1.3-2.1,0.6-6.6-0.5-9c-3.1-7-12.8-25.4-17.7-29.1c-2.5-1.9-5.1-2.9-7.7-2.9
	C206.7,431.2,204.4,432.3,202.8,434.3z"/>
<path fill="#FF8800" d="M343.1,473.9c-3.7,2.2-7.4,4-10.9,5.4c-11.5,21.1-36.5,37.2-58.2,37.7c-11.2,0.2-19.9-4-24.6-12
	c-5.3-8.9-13.4-12.2-18.6-10.8c-3.5,0.9-5.5,3.8-5.7,8.3c-0.1,3.9,3.3,9.1,9.2,13.9c10.6,8.6,28.7,15.6,45.3,11.6
	C308.4,521.1,334.3,498.8,343.1,473.9z"/>
<g>
	<path fill="#FFD200" d="M256.7,320.9l-13.2,1.8c-0.5,0.8-0.8,1.8-1.1,2.8l9.9-1C253.8,323.2,255.2,322,256.7,320.9z"/>
	<path fill="#FFD200" d="M246,319.8c2.9-0.7,5.1-2.6,6-5c0.5-1.5,0.4-3-0.3-4c-0.1-0.2-0.3-0.3-0.6-0.5c-1.7-1-5.8-1.4-9.4-0.2
		c-1.3,0.4-3.6,1.5-4.4,3.6c-1.1,2.9,0.3,4.5,1.6,5.3C240.8,320.2,243.4,320.4,246,319.8z"/>
	<path fill="#FFD200" d="M362.5,357.8c-2.1-5.9-4.6-11.3-7.6-16.1c-4.5-2.2-9.5-5.4-15-10.1l-0.4-0.4c-6.1-5.1-5.3-7.4-5-8.2
		c0.2-0.6,0.6-1.1,1.2-1.5c-8.3-5.3-17.8-8.3-28.2-8.6c-25.8-0.8-48.5,10.2-60.6,29.4c-3.3,5.2-4.5,10-3.3,13.8
		c0.8,2.8,2.8,4.4,4.1,5.1c2.4,1,17.3-4.1,21.7-12.1c0.2-0.4,0.7-0.8,1.2-0.9c0.5-0.1,1-0.1,1.5,0.2c10.2,6.3,21.7,3.4,31.6,0.2
		c1-0.3,2,0.2,2.3,1.2c0.2,0.5,0.1,1.1-0.2,1.5c6.6-0.2,13.2,0.8,19,3.1c1,0.4,1.4,1.5,1.1,2.4c-0.4,1-1.5,1.4-2.4,1.1
		c-14.3-5.6-33.7-2.9-44.1,6.3c-3.6,3.1-5.1,6.2-4.4,8.6c0.8,2.4,4,4.4,7.9,4.8c3,0.3,7.5-0.7,12.3-1.8c7.4-1.6,15.7-3.5,23.2-2
		c12.1,2.5,20.1,9.7,32.2,20.7l1.5,1.3c0.8,0.7,0.8,1.9,0.1,2.6c-0.4,0.4-0.9,0.6-1.4,0.6c-0.4,0-0.8-0.2-1.2-0.4
		c1.2,5.1,1.8,10.3,1.8,15.6c0,6.3-0.9,12.6-2.6,18.6c1.9,1.1,3.5,2.4,4.7,3.9c0.6,0.8,0.5,2-0.3,2.6c-0.8,0.6-2,0.5-2.6-0.3
		c-3.2-4.2-11.4-6.6-19.5-5.8c-5.9,0.6-16.7,3.4-22.8,15.5c0.2,0.6,0.4,1.2,0.6,1.7c3.2,11,2.4,17.6,0,25.3
		c-0.2,1.3-0.7,2.9-1.4,4.5c8.2,0,22.7-1.8,38.1-12.4C374.6,447.9,372,384.7,362.5,357.8z"/>
</g>
<path fill="#FF8800" d="M227,354.8c-0.2,0-0.2,0.1-0.2,0.1c0,0,0.1,0.2,0.5,0.5c0.8,0.5,3.8,1.9,12.2-0.3c-0.3-1.9-0.2-4.4,0.7-7.2
	C235.3,351.3,229.8,354.2,227,354.8z"/>
<path d="M396.2,321.8c-0.9-0.2-3.1-0.4-11-0.4c-2.7,0-5.9,0-9.2,0c-3.8,0-7.8,0-11.8,0c-6.9,0-16.5-0.1-23-0.5
	c-9.7-7.3-21.1-11.3-33.8-11.7c-27.1-0.8-50.9,10.7-63.7,30.9c-4.9,4.9-14.4,10.3-17.6,11c-1.5,0.3-2.6,1.3-3,2.6
	c-0.4,1.3,0,2.8,1.1,3.9c1,1,3.1,2.3,7.3,2.3c2.3,0,5.2-0.4,8.8-1.4c1.4,3.1,3.7,5.1,5.7,5.9c4.6,2,19.5-3.9,25.4-12.1
	c4.6,2.4,9.3,3.3,14.1,3.3c-3.3,1.5-6.4,3.4-8.9,5.6c-6.1,5.4-6.3,9.8-5.5,12.5c1.2,3.9,5.6,6.8,11.1,7.4c3.6,0.4,8.2-0.6,13.5-1.8
	c7-1.6,15-3.3,21.6-1.9c9.9,2,16.8,7.6,26.8,16.5c2.2,6.5,3.3,13.3,3.3,20.2c0,5.8-0.8,11.5-2.3,17c-4.3-1.6-9.5-2.3-14.7-1.7
	c-10.3,1-19,6.5-24.3,15c-3.9-7.6-11.4-17.6-19.7-17.6c-2,0-3.9,0.6-5.7,1.8c-9.2,6.1-6.6,17-4.3,26.7c0.6,2.6,1.2,5,1.6,7.3
	c0.4,2.8,0.3,6.1,0.2,9.4c-0.2,6.4-0.4,13.1,3.4,17c2,2,4.8,3.1,8.4,3.1c7.5,0,12.3-3.9,15.2-8.3c0.7,0,1.4,0,2.1,0
	c4.8,0,11.6-0.6,19.4-3c-11.7,18.1-33.6,31.6-52.8,32c-6.9,0.1-16.2-1.5-21.3-10.1c-6.2-10.5-16.2-14.2-22.8-12.5
	c-5.2,1.3-8.3,5.6-8.5,11.8c-0.2,5.1,3.7,11.3,10.5,16.9c9,7.4,23.3,13.6,37.8,13.6c3.6,0,7.2-0.4,10.8-1.2
	c31.7-7.5,59.9-33,67.5-60.8c17.1-12.2,22.6-36.5,24.1-54.9c2-23.4-1.7-46.6-6.1-59.3c-1.6-4.5-3.4-8.6-5.5-12.5
	c4.2,1.4,7.7,1.8,10.4,1.8c0,0,0,0,0,0c2.5,0,4.9-0.3,7.1-1c14.6-4.4,20.7-15.1,20.5-19.7C398.6,323.4,397.7,322.1,396.2,321.8z
	 M239.5,355.1c-8.3,2.2-11.4,0.8-12.2,0.3c-0.4-0.3-0.5-0.5-0.5-0.5c0,0,0.1-0.1,0.2-0.1c2.8-0.6,8.3-3.5,13.2-6.9
	C239.3,350.8,239.2,353.2,239.5,355.1z M303.8,474.6c0,0.1-0.1,0.2-0.1,0.3c-0.1,0.5-2.3,12.5-13.7,12.5c-2.2,0-3.8-0.5-4.9-1.6
	c-2.3-2.4-2.1-8-2-13.4c0.1-3.5,0.2-7.1-0.3-10.3c-0.4-2.5-1-5.1-1.6-7.7c-2.5-10.4-3.7-17.5,2.2-21.4c0.9-0.6,1.9-0.9,2.9-0.9
	c6.7,0,15.5,13.2,17.3,19.9C306.7,461.9,306,467.6,303.8,474.6z M279.6,527.9c-16.7,3.9-34.8-3-45.3-11.6c-5.9-4.8-9.3-10-9.2-13.9
	c0.1-4.4,2.2-7.4,5.7-8.3c5.3-1.4,13.3,1.9,18.6,10.8c4.7,7.9,13.4,12.2,24.6,12c21.7-0.4,46.7-16.6,58.2-37.7
	c3.5-1.4,7.2-3.2,10.9-5.4C334.3,498.8,308.4,521.1,279.6,527.9z M362.5,357.8c9.5,26.9,12.1,90.1-17.1,110.2
	c-15.4,10.6-29.9,12.4-38.1,12.4c0.7-1.6,1.2-3.2,1.4-4.5c2.4-7.7,3.2-14.4,0-25.3c-0.1-0.5-0.3-1.1-0.6-1.7
	c6.1-12.1,16.9-14.9,22.8-15.5c8.1-0.8,16.3,1.6,19.5,5.8c0.6,0.8,1.8,1,2.6,0.3c0.8-0.6,1-1.8,0.3-2.6c-1.2-1.5-2.8-2.8-4.7-3.9
	c1.7-6,2.6-12.3,2.6-18.6c0-5.3-0.6-10.5-1.8-15.6c0.3,0.3,0.8,0.4,1.2,0.4c0.5,0,1-0.2,1.4-0.6c0.7-0.8,0.6-1.9-0.1-2.6l-1.5-1.3
	c-12.1-10.9-20.1-18.2-32.2-20.7c-7.4-1.5-15.8,0.3-23.2,2c-4.8,1.1-9.3,2.1-12.3,1.8c-3.9-0.4-7.1-2.3-7.9-4.8
	c-0.8-2.4,0.8-5.4,4.4-8.6c10.4-9.2,29.8-11.9,44.1-6.3c1,0.4,2-0.1,2.4-1.1c0.4-1-0.1-2-1.1-2.4c-5.8-2.3-12.4-3.3-19-3.1
	c0.3-0.4,0.3-1,0.2-1.5c-0.3-1-1.4-1.5-2.3-1.2c-10,3.2-21.4,6.1-31.6-0.2c-0.4-0.3-1-0.3-1.5-0.2c-0.5,0.1-0.9,0.5-1.2,0.9
	c-4.3,7.9-19.3,13.1-21.7,12.1c-1.4-0.6-3.3-2.3-4.1-5.1c-1.1-3.8,0-8.5,3.3-13.8c12.1-19.2,34.7-30.2,60.6-29.4
	c10.4,0.3,19.9,3.3,28.2,8.6c-0.5,0.4-0.9,0.8-1.2,1.5c-0.3,0.8-1.1,3.1,5,8.2l0.4,0.4c5.5,4.7,10.5,7.9,15,10.1
	C357.8,346.5,360.4,351.9,362.5,357.8z M393.9,328.5c-2.2,4.4-7.8,10-16.9,12.7c-1.9,0.6-4,0.9-6.1,0.9c0,0,0,0,0,0
	c-5.9,0-15.7-2.3-28.6-13.4l-0.5-0.4c-1.9-1.6-3.1-3-3.6-3.8c0.3,0,0.8,0,1.4,0c6.6,0.5,17.2,0.6,24.7,0.6c4,0,8,0,11.8,0
	c3.3,0,6.4,0,9.2,0c5.1,0,8.4,0.1,9.6,0.2C394.9,325.8,394.7,326.9,393.9,328.5z"/>
<path d="M267.6,339.3c-3,2.2-2.1,5,1.2,5.4c3.3,0.4,3.6,0.6,6.6-1.7c3.3-2.5,3.7-6.6,0-6.2C271.8,337.3,269.3,338.1,267.6,339.3z"/>
<circle cx="255.2" cy="341" r="3.7"/>
<circle cx="298.3" cy="330.6" r="3.7"/>
<path d="M232.6,477.2L232.6,477.2c-1,0-2-0.1-3.1-0.4c-12.6-3-29.9-22-32.1-32.5c-1-4.7-0.1-9.1,2.5-12.3c2.3-2.8,5.8-4.4,9.6-4.4
	c3.4,0,6.8,1.3,10,3.7c6.1,4.7,16.6,25.4,18.8,30.6c0.9,2.1,2.8,8.6,0.2,12.5C237.5,475.6,235.8,477.2,232.6,477.2z M209.4,431.2
	c-2.7,0-5,1.1-6.7,3.1c-1.9,2.3-2.5,5.6-1.8,9.2c1.9,9.2,18.2,27,29.3,29.7c0.8,0.2,1.6,0.3,2.3,0.3c1.7,0,2.4-0.7,2.7-1.2
	c1.3-2.1,0.6-6.6-0.5-9c-3.1-7-12.8-25.4-17.7-29.1C214.6,432.2,212,431.2,209.4,431.2z"/>
<g>
	<path fill="#1A171B" d="M210.7,388.7l-4-55.3c0-0.7-0.4-1.3-0.9-1.8c-0.5-0.4-1.2-0.6-1.9-0.5l-50.2,6.6c-1.3,0.2-2.3,1.3-2.2,2.6
		l2.5,40.6c0.1,1.2,0.9,2.1,2.1,2.3l51.7,8.4c0.1,0,0.3,0,0.4,0c0,0,0,0,0,0c1.4,0,2.5-1.1,2.5-2.5
		C210.8,389,210.8,388.8,210.7,388.7z"/>
	<path fill="#7E7F81" d="M204.7,386.7c-0.1,0-0.1,0-0.2,0l-44.9-7.3c-0.5-0.1-0.8-0.5-0.8-0.9l-2.2-35.3c0-0.5,0.3-1,0.9-1.1
		l43.6-5.7c0.3,0,0.5,0,0.8,0.2c0.2,0.2,0.3,0.4,0.4,0.7l3.5,48.3c0,0.3-0.1,0.6-0.3,0.8C205.2,386.6,205,386.7,204.7,386.7z
		 M160.8,377.5l42.8,7l-3.3-46l-41.6,5.5L160.8,377.5z"/>
	<path fill="#00709C" d="M200.1,369.9c0.1-3,0-6.1-0.3-9.4c-0.2-2.9-0.6-5.6-1.1-8.2c-2.1-2.6-5.1-4.1-8.2-3.9
		c-6,0.3-10.5,6.6-10.1,14.1c0.4,7.4,5.6,13.2,11.6,12.8C195.3,375.1,198.3,373,200.1,369.9z"/>
	<path fill="#38373A" d="M177.9,362.5c-0.5-8.6,5.1-15.9,12.4-16.3c-1.1-0.3-2.3-0.4-3.6-0.4c-7.4,0.4-12.9,7.7-12.4,16.3
		c0.5,8.6,6.8,15.3,14.2,14.8c0,0,0,0,0,0C182.8,375.5,178.3,369.7,177.9,362.5z"/>
	<path fill="#005683" d="M199.9,361c-0.2-2.5-0.6-4.9-1-7.1c-1.9-2.2-4.4-3.5-7.1-3.4c-2.3,0.1-4.4,1.3-5.9,3.1
		c1.1-1.1,2.5-1.8,4-1.9c0.7,0,1.4,0.1,2,0.3c-4.2,0.2-7.3,5-6.9,10.7c0.3,4.7,2.8,8.6,6.1,9.6c0,0,0,0,0,0c-3.9,0.2-7.3-3.6-8-8.7
		c0.7,6,5,10.6,10,10.3c2.9-0.2,5.5-2,7-4.7C200.2,366.5,200.1,363.8,199.9,361z"/>
	<circle fill="#CE081C" cx="163.7" cy="348.9" r="2.6"/>
	<path fill="#FFFFFF" d="M185,362.5c-0.3-5.7,2.8-10.5,6.9-10.7c-0.6-0.2-1.3-0.3-2-0.3c-4.2,0.2-7.3,5-7,10.7
		c0.3,5.7,3.9,10.1,8.1,9.9c0,0,0,0,0,0C187.8,371.1,185.2,367.3,185,362.5z"/>
</g>
<g>
	<path fill="#1C1D1C" d="M254.6,327.3c-0.9,0-1.8,0.2-2.7,0.5l0,0l-0.1,0c0,0,0,0-0.1,0l-16.1,5.8l0,0c3.4-0.5,6.5,2.4,7.1,6.4
		c0.6,4-1.7,7.6-5.1,8.1c-0.1,0-0.1,0-0.2,0l16.1,1.2v0c0.3,0,0.6,0.1,1,0.1c5.1,0,9.3-4.9,9.3-11S259.7,327.3,254.6,327.3z"/>
	<path fill="#282726" d="M235.8,333.5l-8.4,0.3l0,0c-0.2,0-0.4,0-0.6,0c-3.4,0.5-5.6,4.1-5.1,8.1c0.5,3.8,3.5,6.6,6.7,6.4l0,0l8-0.4
		l0,0c0.5,0.1,0.9,0.1,1.4,0c3.4-0.5,5.6-4.1,5.1-8.1C242.3,335.9,239.1,333.1,235.8,333.5z"/>
</g>
</svg>
