<?xml version="1.0" encoding="utf-8"?>
<!-- Generator: Adobe Illustrator 21.0.0, SVG Export Plug-In . SVG Version: 6.00 Build 0)  -->
<svg version="1.1" id="Layer_1" xmlns="http://www.w3.org/2000/svg" xmlns:xlink="http://www.w3.org/1999/xlink" x="0px" y="0px"
	 viewBox="0 0 595 842" style="enable-background:new 0 0 595 842;" xml:space="preserve">
<style type="text/css">
	.st0{fill:#2B2B2B;stroke:#000000;stroke-width:4;stroke-linecap:square;stroke-linejoin:round;stroke-miterlimit:10;}
	.st1{fill:#FFFACB;}
	.st2{stroke:#000000;stroke-miterlimit:10;}
	.st3{fill:#FFFACB;stroke:#000000;stroke-miterlimit:10;}
	.st4{fill:#005683;}
	.st5{fill:#FFD200;}
	.st6{fill:#00709C;}
	.st7{fill:#FFFFFF;}
	.st8{fill:#995939;stroke:#000000;stroke-width:4;stroke-linecap:square;stroke-linejoin:round;stroke-miterlimit:10;}
	.st9{fill:#FF8800;}
	.st10{fill:#D3D3D3;}
	.st11{fill:#A5A5A5;}
	.st12{fill:#C1C1C1;stroke:#000000;stroke-width:4;stroke-linecap:round;stroke-linejoin:round;stroke-miterlimit:10;}
	.st13{fill:#94653A;stroke:#000000;stroke-width:4;stroke-linecap:round;stroke-linejoin:round;stroke-miterlimit:10;}
	.st14{fill:#4C2D1B;stroke:#000000;stroke-width:4;stroke-linecap:square;stroke-linejoin:round;stroke-miterlimit:10;}
	.st15{fill:#4C3818;stroke:#000000;stroke-width:3;stroke-linecap:round;stroke-linejoin:round;stroke-miterlimit:10;}
	.st16{fill:#32932A;stroke:#000000;stroke-width:4;stroke-linecap:round;stroke-linejoin:round;stroke-miterlimit:10;}
	.st17{fill:#2B2B2B;stroke:#000000;stroke-width:4;stroke-linejoin:round;stroke-miterlimit:10;}
	.st18{fill:#723C25;}
	.st19{fill:#61B729;}
	.st20{fill:none;stroke:#000000;stroke-width:3;stroke-linecap:round;stroke-linejoin:round;stroke-miterlimit:10;}
	.st21{fill:#478E19;}
	.st22{opacity:0.3;fill:#FFFFFF;}
	.st23{fill:none;stroke:#000000;stroke-width:3;stroke-miterlimit:10;}
</style>
<g>
	<path class="st0" d="M207.8,460.3c0,0-2.5,6.6,0.3,22.2c12.5-7.3,22.4-13.2,34.3-16.4C254.3,462.8,207.8,460.3,207.8,460.3z"/>
	<g>
		
			<ellipse transform="matrix(0.9966 -8.191264e-02 8.191264e-02 0.9966 -23.9407 25.8499)" class="st1" cx="303.1" cy="304.7" rx="37.2" ry="21.7"/>
	</g>
	<path class="st2" d="M299.5,328.5c-19.3,0-34.5-8.5-35.5-20.6c-1.1-13.2,15.2-25,37.1-26.8c21.9-1.8,39.9,7.2,41,20.4v0
		c1.1,13.2-15.2,25-37.1,26.8C303.1,328.4,301.3,328.5,299.5,328.5z M306.6,284.9c-1.7,0-3.4,0.1-5.1,0.2
		c-19.3,1.6-34.4,11.7-33.5,22.5c0.9,10.8,17.4,18.3,36.7,16.7c19.3-1.6,34.4-11.7,33.5-22.5C337.4,292,323.6,284.9,306.6,284.9z"/>
	<g>
		
			<ellipse transform="matrix(0.9966 -8.191264e-02 8.191264e-02 0.9966 -25.4435 25.312)" class="st3" cx="295.8" cy="322.8" rx="58.6" ry="30.8"/>
		<path class="st2" d="M288.9,355.8c-29.4,0-52.2-11.5-53.5-28.1c-1.5-18.3,23.8-34.8,57.7-37.6c33.9-2.8,61.6,9.4,63.1,27.7v0
			c1.5,18.3-23.8,34.8-57.7,37.6C295.2,355.7,292,355.8,288.9,355.8z M302.5,293.7c-3,0-6,0.1-9.1,0.4c-31.1,2.6-55.3,17.5-54,33.3
			c1.3,15.8,27.7,26.6,58.8,24c31.1-2.6,55.3-17.5,54-33.3v0C351,303.9,329.5,293.7,302.5,293.7z"/>
	</g>
	<path d="M397.1,318.2c-1.3-0.3-3.4-0.5-11.9-0.5c-2.7,0-5.9,0-9.2,0c-3.7,0-7.7,0-11.7,0c-6.4,0-15.4,0-21.7-0.4
		c-10.2-7.4-22-11.4-35-11.8c-28.2-0.9-53.2,11.3-66.8,32.3c-4.6,4.3-13.2,9.2-15.5,9.7c-3.9,0.9-6.4,4.3-6,8.1
		c0.3,2.8,5.1,7.3,9.7,6.7c10-1.5-1.1,5.2-7.4,15.9c-6.4,11-9.8,23.4-9.8,36.2c0,3.2,0.2,6.4,0.6,9.6c-1-0.2-2-0.3-3-0.3
		c-4.9,0-9.4,2.1-12.4,5.8c-3.3,4.1-4.5,9.6-3.3,15.4c2.5,11.9,20.5,32,34.9,35.4c1.4,0.3,2.8,0.5,4,0.5c3.8,0,7-1.6,8.9-4.6
		c0.6-0.9,1.1-1.9,1.4-2.9c9.8,6.8,21.2,11,33.2,12.2c2.6,8.5,9.6,9.9,14,9.9c6.6,0,12.3-2.7,16.3-7.6c0.4,0,0.7,0,1.1,0
		c2.8,0,6.2-0.2,10.2-0.8c-12.6,14.2-30.9,22.4-44.4,22.4c0,0,0,0,0,0c-5.7,0-13.3-1.4-17.4-8.3c-5.4-9.1-14.1-14.8-22.7-14.8
		c-9,0-15.2,6.3-15.5,15.8c-0.2,5.1,2.5,10.7,7.7,16.1c8.8,9.1,25.9,18.3,44.2,18.3c4,0,8-0.5,11.8-1.3
		c32.4-7.7,61.5-33.6,69.9-62.2c31-23.6,28.5-88.7,18.2-117.6c-0.7-2-1.5-4-2.3-5.9c1.2,0.1,2.5,0.2,3.7,0.2c2.8,0,5.6-0.4,8.2-1.2
		c16.1-4.8,23.4-16.8,23.2-23.3C402.2,321.7,400.2,318.9,397.1,318.2z"/>
	<g>
		<path class="st4" d="M229,451.8c-1.6-3-3.4-6-5.1-8.8C225.4,446,227.1,449,229,451.8z"/>
		<path class="st4" d="M344.2,394.2c-10-9-16.9-14.5-26.8-16.5c-6.7-1.4-14.6,0.4-21.6,1.9c-5.3,1.2-9.9,2.2-13.5,1.8
			c-5.5-0.6-9.8-3.5-11.1-7.4c-0.9-2.7-0.6-7.1,5.5-12.5c2.5-2.2,5.6-4.1,8.9-5.6c-4.8,0-9.5-0.9-14.1-3.3
			c-5.9,8.2-20.8,14.1-25.4,12.1c-1-0.5-2.2-1.2-3.2-2.3c-0.1,0.1-0.2,0.2-0.3,0.2c1.2,1.1,2.1,2.7,2.5,4.6
			c0.8,3.8-0.5,7.8-3.5,10.8c-2.6,2.6-5.9,4.1-9,4.1c-2.2,0-4-0.8-5.4-2.1c-6.2,10-9.7,21.8-9.7,34.4c0,5.9,0.8,11.6,2.2,17
			c6.2,5.1,16.3,25.3,18.6,30.4c0.1,0.3,0.3,0.6,0.4,1c10.6,9.8,24.4,16.2,39.6,17.3c-0.2-2.5-0.1-5.2,0-7.9
			c0.1-3.3,0.2-6.6-0.2-9.4c-0.4-2.3-0.9-4.7-1.6-7.3c-2.3-9.6-4.9-20.5,4.3-26.7c1.8-1.2,3.7-1.8,5.7-1.8c8.3,0,15.8,10,19.7,17.6
			c5.3-8.6,14-14,24.3-15c5.2-0.5,10.4,0.1,14.7,1.7c1.5-5.5,2.3-11.2,2.3-17C347.4,407.5,346.3,400.7,344.2,394.2z"/>
	</g>
	<path class="st5" d="M202.8,434.3c-1.9,2.3-2.5,5.6-1.8,9.2c1.9,9.2,18.2,27,29.3,29.7c0.8,0.2,1.6,0.3,2.3,0.3
		c1.7,0,2.4-0.7,2.7-1.2c1.3-2.1,0.6-6.6-0.5-9c-3.1-7-12.8-25.4-17.7-29.1c-2.5-1.9-5.1-2.9-7.7-2.9
		C206.7,431.2,204.4,432.3,202.8,434.3z"/>
	<g>
		<path class="st6" d="M301.3,378.4c-1.9,0.4-3.7,0.8-5.5,1.2c-5.3,1.2-9.9,2.2-13.5,1.8c-5.5-0.6-9.8-3.5-11.1-7.4
			c-0.9-2.7-0.6-7.1,5.5-12.5c0.1-0.1,0.2-0.1,0.3-0.2c-3.9-1.3-8.1-2.1-12.3-2.4c-6.8,4.6-15.3,7.2-18.6,5.7
			c-1-0.5-2.2-1.2-3.2-2.3c-0.1,0.1-9.9,8.8-15.8,17.6c-6.2,10-9.7,21.8-9.7,34.4c0,5.9,0.8,11.6,2.2,17
			c4.1,3.4,10.1,13.6,14.2,21.5c7.9,5,17.3,8,27.3,8c5.6,0,10.9-0.9,15.9-2.5c-0.2-0.9-0.4-1.8-0.6-2.7c-2.3-9.6-4.9-20.5,4.3-26.7
			c1.8-1.2,3.7-1.8,5.7-1.8c6.4,0,12.3,5.9,16.4,12.1c5.9-8.3,9.3-18.4,9.3-29.4C312.2,398,308.1,387.1,301.3,378.4z"/>
	</g>
	<path class="st7" d="M256.8,449c-2.8,0.2-5.1,0-7.9-0.6c-0.8-8.4-1.4-19,2.9-37.4c7.7,20,16.2,34.7,16.3,34.8
		C266.6,446.5,262.2,448.6,256.8,449 M243.8,446.9c-22.1-10-26.2-33.9-18.7-52.2C225.4,412.8,230.4,427,243.8,446.9 M273.8,442.4
		c3.5-15.1,9.3-29.6,12.8-44.7c0.7-2.9,1.2-7.5,0.2-12.6C296.9,401.1,295.8,425.9,273.8,442.4 M228.2,388.6
		c10-15.4,29.1-27.9,50-12.5c-0.1,0-13.4,0.6-3.8,14.9c5.2,7.7,5.6,13.9,1.4,26.5c-1.5,6.2-1.9,8.1-3.3,14.5
		c-6.4-15.2-11.6-28.2-15.7-44.8c3.6-0.5,7.7-1.1,5.6-3.5c-0.3-0.3-19.3,1.6-19.5,1.6c-1.5,0.2-1.7,2-1.7,2
		c-0.2,1.4,0.1,1.3,4.2,1.1c1.1,5.9,1.6,8.5,4.3,17.1c-1.9,8.1-3.9,16.4-4.2,29.3c-8.7-17.3-12.1-29.2-12.8-44.2
		c1.2-0.7,2.9-0.5,4-1.6c0.7-0.8,1.1-2.5,0.2-2.7C233.6,385.6,231.1,388,228.2,388.6 M258.3,365.9c-32.8,2.7-54.1,52.1-25.1,78
		c29.4,26.2,65.7-7.7,64.5-39.1C296.7,380.4,276.5,365,258.3,365.9"/>
	<path d="M232.6,477.2L232.6,477.2c-1,0-2-0.1-3.1-0.4c-12.6-3-29.9-22-32.1-32.5c-1-4.7-0.1-9.1,2.5-12.3c2.3-2.8,5.8-4.4,9.6-4.4
		c3.4,0,6.8,1.3,10,3.7c6.1,4.7,16.6,25.4,18.8,30.6c0.9,2.1,2.8,8.6,0.2,12.5C237.5,475.6,235.8,477.2,232.6,477.2z M209.4,431.2
		c-2.7,0-5,1.1-6.7,3.1c-1.9,2.3-2.5,5.6-1.8,9.2c1.9,9.2,18.2,27,29.3,29.7c0.8,0.2,1.6,0.3,2.3,0.3c1.7,0,2.4-0.7,2.7-1.2
		c1.3-2.1,0.6-6.6-0.5-9c-3.1-7-12.8-25.4-17.7-29.1C214.6,432.2,212,431.2,209.4,431.2z"/>
	<path class="st8" d="M239.7,479.1c0,0-10.3-24.6-12.2-35.1c6.6,6.3,50.6,4.2,58.2-6.2v39.4C269.8,483.7,253,484.1,239.7,479.1z"/>
	<path class="st9" d="M364.3,325.2c-7.4,0-18.1-0.1-24.7-0.6c-0.6,0-1.1,0-1.4,0c0.5,0.8,1.7,2.2,3.6,3.8l0.5,0.4
		c13,11.1,22.7,13.4,28.6,13.4c0,0,0,0,0,0c2.1,0,4.1-0.3,6.1-0.9c9.1-2.7,14.7-8.4,16.9-12.7c0.8-1.6,1-2.7,1-3.2
		c-1.2-0.1-4.5-0.2-9.6-0.2c-2.7,0-5.9,0-9.2,0C372.3,325.2,368.3,325.2,364.3,325.2z"/>
	<g>
		<path class="st10" d="M215.2,350.4l-23.8,17.2c0,0-25.2-39.6-13.7-47.1C188.2,313.7,215.2,350.4,215.2,350.4z"/>
		<path class="st11" d="M201.2,359.9l-9.8,7.1c0,0-25.2-39.6-13.7-47.1C182.3,340.8,201.2,359.9,201.2,359.9z"/>
		<path d="M179.5,317.8c12.3-1.8,34.3,24.5,38.9,30.1c0.3,0.4,0.5,1,0.4,1.5c-0.1,0.5-0.4,1-0.8,1.4l-25.4,18.4
			c-0.4,0.3-1,0.4-1.5,0.3c-0.5-0.1-1-0.4-1.3-0.9c-0.3-0.4-6.4-10.2-11.3-21c-7-15.6-7.6-25.1-1.8-28.8
			C177.5,318.3,178.5,317.9,179.5,317.8z M213.9,348.8c-11.5-13.8-29.2-30.5-35.1-26.6c-6.5,4.2,3.5,26.8,13.2,42.5L213.9,348.8z"/>
		<path class="st12" d="M209.6,362c0,0-11.1-17.5-14-15.7c-2.9,1.8,8.7,19.5,8.7,19.5L209.6,362z"/>
		<path class="st13" d="M203.3,368.4c1.6-4.8,5.1-7.2,10-7.8l17.5,22.3c-2,5-5.5,7.3-10,7.8L203.3,368.4z"/>
	</g>
	<path class="st9" d="M343.1,473.9c-3.7,2.2-7.4,4-10.9,5.4c-11.5,21.1-36.5,37.2-58.2,37.7c-11.2,0.2-19.9-4-24.6-12
		c-5.3-8.9-13.4-12.2-18.6-10.8c-3.5,0.9-5.5,3.8-5.7,8.3c-0.1,3.9,3.3,9.1,9.2,13.9c10.6,8.6,28.7,15.6,45.3,11.6
		C308.4,521.1,334.3,498.8,343.1,473.9z"/>
	<path class="st9" d="M227,354.8c-0.2,0-0.2,0.1-0.2,0.1c0,0,0.1,0.2,0.5,0.5c0.8,0.5,3.8,1.9,12.2-0.3c-0.3-1.9-0.2-4.4,0.7-7.2
		C235.3,351.3,229.8,354.2,227,354.8z"/>
	<g>
		<path class="st5" d="M217.4,391.3c3.1,0.2,4.2-1.5,4.7-3.1c0.6-2,0.1-4.6-1.2-6.9c-1.5-2.6-3.9-4.2-6.5-4.4
			c-1.6-0.1-3,0.4-3.7,1.4c-0.1,0.2-0.2,0.4-0.3,0.7c-0.5,1.9,0.3,6,2.4,9.1C213.5,389.2,215.2,391.1,217.4,391.3z"/>
		<path d="M225.6,389.2L225.6,389.2c-1.1,3.9-4.3,6.1-8.6,5.8c-2.7-0.2-5.4-1.9-7.4-4.8c-2.6-3.7-3.9-8.9-3-12.2
			c0.2-0.7,0.5-1.4,0.9-1.9c1.5-2,4.1-3,6.9-2.8c3.8,0.2,7.4,2.6,9.5,6.2C225.9,382.6,226.4,386.2,225.6,389.2z M210.3,379
			c-0.5,1.9,0.3,6,2.4,9.1c0.8,1.1,2.5,3.1,4.6,3.2c3.1,0.2,4.2-1.5,4.7-3.1c0.6-2,0.1-4.6-1.2-6.9c-1.5-2.6-3.9-4.2-6.5-4.4
			c-1.6-0.1-3,0.4-3.7,1.4C210.5,378.5,210.4,378.7,210.3,379z"/>
	</g>
	<path class="st5" d="M362.5,357.8c-2.1-5.9-4.6-11.3-7.6-16.1c-4.5-2.2-9.5-5.4-15-10.1l-0.4-0.4c-6.1-5.1-5.3-7.4-5-8.2
		c0.2-0.6,0.6-1.1,1.2-1.5c-8.3-5.3-17.8-8.3-28.2-8.6c-25.8-0.8-48.5,10.2-60.6,29.4c-3.3,5.2-4.5,10-3.3,13.8
		c0.8,2.8,2.8,4.4,4.1,5.1c2.4,1,17.3-4.1,21.7-12.1c0.2-0.4,0.7-0.8,1.2-0.9c0.5-0.1,1-0.1,1.5,0.2c10.2,6.3,21.7,3.4,31.6,0.2
		c1-0.3,2,0.2,2.3,1.2c0.2,0.5,0.1,1.1-0.2,1.5c6.6-0.2,13.2,0.8,19,3.1c1,0.4,1.4,1.5,1.1,2.4c-0.4,1-1.5,1.4-2.4,1.1
		c-14.3-5.6-33.7-2.9-44.1,6.3c-3.6,3.1-5.1,6.2-4.4,8.6c0.8,2.4,4,4.4,7.9,4.8c3,0.3,7.5-0.7,12.3-1.8c7.4-1.6,15.7-3.5,23.2-2
		c12.1,2.5,20.1,9.7,32.2,20.7l1.5,1.3c0.8,0.7,0.8,1.9,0.1,2.6c-0.4,0.4-0.9,0.6-1.4,0.6c-0.4,0-0.8-0.2-1.2-0.4
		c1.2,5.1,1.8,10.3,1.8,15.6c0,6.3-0.9,12.6-2.6,18.6c1.9,1.1,3.5,2.4,4.7,3.9c0.6,0.8,0.5,2-0.3,2.6c-0.8,0.6-2,0.5-2.6-0.3
		c-3.2-4.2-11.4-6.6-19.5-5.8c-5.9,0.6-16.7,3.4-22.8,15.5c0.2,0.6,0.4,1.2,0.6,1.7c3.2,11,2.4,17.6,0,25.3
		c-0.2,1.3-0.7,2.9-1.4,4.5c8.2,0,22.7-1.8,38.1-12.4C374.6,447.9,372,384.7,362.5,357.8z"/>
	<path class="st14" d="M223.2,444.6c0,0-2.7-6.2-4.7-16.7c11.3-10.6,63.9-16.3,75-8.3l-3.6,21C266.7,446.4,241.1,449.8,223.2,444.6z
		"/>
	<path class="st15" d="M228.3,427.5c0,0,0.7-7.2,7.7-9c1.6-6.1,9.3-8.1,12.9-5c0-4,8.4-7.5,12.1-3.6c4.8-1.5,10.9,0.2,12,3.7
		c5.1-1.1,11.3,3,10.4,6.8c3.5-0.8,3.5,0.6,3.5,0.6l4.3,6.5l-31.3,2.5l-32.3,3.9L228.3,427.5z"/>
	<path class="st16" d="M317.7,354.9c0,0,6.6,7.9,2.6,21.1c7.7,2.9,23.6,12.9,27.2,18.3c1.6,2.4,0,4.2,0,4.2l1.9,3.2
		c0,0,12.4,7.6,23.5,0.8c-0.3-16-8.6-52.1-8.6-52.1s-13.2-3-20.9-2.2s-22.1,7-22.1,7L317.7,354.9z"/>
	<path class="st8" d="M223.2,444.6c0,0-2.7-6.2-4.7-16.7c16.4,5.8,54.9,3.5,74.5-7.6l1.5,19.2C271.4,445.4,248,452,223.2,444.6z"/>
	<path d="M267.6,339.3c-3,2.2-2.1,5,1.2,5.4c3.3,0.4,3.6,0.6,6.6-1.7c3.3-2.5,3.7-6.6,0-6.2C271.8,337.3,269.3,338.1,267.6,339.3z"
		/>
	<path class="st17" d="M323,355.6c-7.5-2.1,0,0-9.2-3c29.5-18.3,45.5-7.6,45.5-7.6l4.9,6.8C364.2,351.8,347.4,343.8,323,355.6z"/>
	<path class="st18" d="M266.9,447.9c0,0,3.8,28.7,0.7,32.1c4.4,0,13.7-2.8,13.7-2.8l12.8-13.3l-11.6-19.1L266.9,447.9z"/>
	<path class="st18" d="M267.3,430.9c0.5,1.9,1.9,8.3,1.8,12.6c4-0.3,16.9-3.6,16.9-3.6l10.1,6.7c0,0-3.4-18.2-4.7-23.2
		C281.4,427.8,272.6,429.8,267.3,430.9z"/>
	<path class="st5" d="M304.4,454.5c0-0.1,0-0.2-0.1-0.2c-0.2-0.7-0.4-1.4-0.6-2.2c-1.8-6.7-10.6-19.9-17.3-19.9c-1,0-2,0.3-2.9,0.9
		c-5.9,3.9-4.7,11-2.2,21.4c0.6,2.6,1.2,5.2,1.6,7.7c0.5,3.2,0.4,6.8,0.3,10.3c-0.2,5.4-0.4,11,2,13.4c1,1.1,2.6,1.6,4.9,1.6
		c0.7,0,1.3,0,1.9-0.1c0.2,0,0.4-0.1,0.5-0.1c0.4-0.1,0.8-0.1,1.2-0.2c0.2,0,0.3-0.1,0.5-0.1c0.4-0.1,0.8-0.3,1.2-0.4
		c0.1,0,0.2-0.1,0.3-0.1c0.5-0.2,0.9-0.5,1.3-0.7c0,0,0.1-0.1,0.1-0.1c0.4-0.2,0.7-0.5,1.1-0.8c0.1-0.1,0.2-0.2,0.3-0.2
		c0.3-0.2,0.5-0.5,0.8-0.7c0.1-0.1,0.2-0.2,0.3-0.3c0.3-0.3,0.5-0.6,0.8-0.9c0,0,0.1-0.1,0.1-0.1c0.3-0.3,0.5-0.7,0.8-1.1
		c0.1-0.1,0.1-0.2,0.2-0.3c0.2-0.3,0.3-0.5,0.5-0.8c0.1-0.1,0.1-0.2,0.2-0.4c0.1-0.2,0.2-0.4,0.3-0.6c0.1-0.1,0.1-0.3,0.2-0.4
		c0.1-0.2,0.2-0.4,0.2-0.5c0.2-0.4,0.3-0.7,0.4-1.1c0,0,0,0,0-0.1c0.1-0.2,0.2-0.5,0.2-0.7v0c0.3-0.9,0.4-1.6,0.4-1.7
		c0-0.1,0-0.2,0.1-0.3c1.9-5.9,2.6-10.9,1.1-18.2C304.8,455.8,304.6,455.1,304.4,454.5z"/>
	<path d="M396.2,321.8c-0.9-0.2-3.1-0.4-11-0.4c-2.7,0-5.9,0-9.2,0c-3.8,0-7.8,0-11.8,0c-6.9,0-16.5-0.1-23-0.5
		c-9.7-7.3-21.1-11.3-33.8-11.7c-27.1-0.8-50.9,10.7-63.7,30.9c-4.9,4.9-14.4,10.3-17.6,11c-1.5,0.3-2.6,1.3-3,2.6
		c-0.4,1.3,0,2.8,1.1,3.9c1,1,3.1,2.3,7.3,2.3c2.3,0,5.2-0.4,8.8-1.4c1.4,3.1,3.7,5.1,5.7,5.9c4.6,2,19.5-3.9,25.4-12.1
		c4.6,2.4,9.3,3.3,14.1,3.3c-3.3,1.5-6.4,3.4-8.9,5.6c-6.1,5.4-6.3,9.8-5.5,12.5c1.2,3.9,5.6,6.8,11.1,7.4c3.6,0.4,8.2-0.6,13.5-1.8
		c7-1.6,15-3.3,21.6-1.9c9.9,2,16.8,7.6,26.8,16.5c2.2,6.5,3.3,13.3,3.3,20.2c0,5.8-0.8,11.5-2.3,17c-4.3-1.6-9.5-2.3-14.7-1.7
		c-10.3,1-19,6.5-24.3,15c-3.9-7.6-11.4-17.6-19.7-17.6c-2,0-3.9,0.6-5.7,1.8c-9.2,6.1-6.6,17-4.3,26.7c0.6,2.6,1.2,5,1.6,7.3
		c0.4,2.8,0.3,6.1,0.2,9.4c-0.2,6.4-0.4,13.1,3.4,17c2,2,4.8,3.1,8.4,3.1c7.5,0,12.3-3.9,15.2-8.3c0.7,0,1.4,0,2.1,0
		c4.8,0,11.6-0.6,19.4-3c-11.7,18.1-33.6,31.6-52.8,32c-6.9,0.1-16.2-1.5-21.3-10.1c-6.2-10.5-16.2-14.2-22.8-12.5
		c-5.2,1.3-8.3,5.6-8.5,11.8c-0.2,5.1,3.7,11.3,10.5,16.9c9,7.4,23.3,13.6,37.8,13.6c3.6,0,7.2-0.4,10.8-1.2
		c31.7-7.5,59.9-33,67.5-60.8c17.1-12.2,22.6-36.5,24.1-54.9c2-23.4-1.7-46.6-6.1-59.3c-1.6-4.5-3.4-8.6-5.5-12.5
		c4.2,1.4,7.7,1.8,10.4,1.8c0,0,0,0,0,0c2.5,0,4.9-0.3,7.1-1c14.6-4.4,20.7-15.1,20.5-19.7C398.6,323.4,397.7,322.1,396.2,321.8z
		 M239.5,355.1c-8.3,2.2-11.4,0.8-12.2,0.3c-0.4-0.3-0.5-0.5-0.5-0.5c0,0,0.1-0.1,0.2-0.1c2.8-0.6,8.3-3.5,13.2-6.9
		C239.3,350.8,239.2,353.2,239.5,355.1z M303.8,474.6c0,0.1-0.1,0.2-0.1,0.3c-0.1,0.5-2.3,12.5-13.7,12.5c-2.2,0-3.8-0.5-4.9-1.6
		c-2.3-2.4-2.1-8-2-13.4c0.1-3.5,0.2-7.1-0.3-10.3c-0.4-2.5-1-5.1-1.6-7.7c-2.5-10.4-3.7-17.5,2.2-21.4c0.9-0.6,1.9-0.9,2.9-0.9
		c6.7,0,15.5,13.2,17.3,19.9C306.7,461.9,306,467.6,303.8,474.6z M279.6,527.9c-16.7,3.9-34.8-3-45.3-11.6c-5.9-4.8-9.3-10-9.2-13.9
		c0.1-4.4,2.2-7.4,5.7-8.3c5.3-1.4,13.3,1.9,18.6,10.8c4.7,7.9,13.4,12.2,24.6,12c21.7-0.4,46.7-16.6,58.2-37.7
		c3.5-1.4,7.2-3.2,10.9-5.4C334.3,498.8,308.4,521.1,279.6,527.9z M362.5,357.8c9.5,26.9,12.1,90.1-17.1,110.2
		c-15.4,10.6-29.9,12.4-38.1,12.4c0.7-1.6,1.2-3.2,1.4-4.5c2.4-7.7,3.2-14.4,0-25.3c-0.1-0.5-0.3-1.1-0.6-1.7
		c6.1-12.1,16.9-14.9,22.8-15.5c8.1-0.8,16.3,1.6,19.5,5.8c0.6,0.8,1.8,1,2.6,0.3c0.8-0.6,1-1.8,0.3-2.6c-1.2-1.5-2.8-2.8-4.7-3.9
		c1.7-6,2.6-12.3,2.6-18.6c0-5.3-0.6-10.5-1.8-15.6c0.3,0.3,0.8,0.4,1.2,0.4c0.5,0,1-0.2,1.4-0.6c0.7-0.8,0.6-1.9-0.1-2.6l-1.5-1.3
		c-12.1-10.9-20.1-18.2-32.2-20.7c-7.4-1.5-15.8,0.3-23.2,2c-4.8,1.1-9.3,2.1-12.3,1.8c-3.9-0.4-7.1-2.3-7.9-4.8
		c-0.8-2.4,0.8-5.4,4.4-8.6c10.4-9.2,29.8-11.9,44.1-6.3c1,0.4,2-0.1,2.4-1.1c0.4-1-0.1-2-1.1-2.4c-5.8-2.3-12.4-3.3-19-3.1
		c0.3-0.4,0.3-1,0.2-1.5c-0.3-1-1.4-1.5-2.3-1.2c-10,3.2-21.4,6.1-31.6-0.2c-0.4-0.3-1-0.3-1.5-0.2c-0.5,0.1-0.9,0.5-1.2,0.9
		c-4.3,7.9-19.3,13.1-21.7,12.1c-1.4-0.6-3.3-2.3-4.1-5.1c-1.1-3.8,0-8.5,3.3-13.8c12.1-19.2,34.7-30.2,60.6-29.4
		c10.4,0.3,19.9,3.3,28.2,8.6c-0.5,0.4-0.9,0.8-1.2,1.5c-0.3,0.8-1.1,3.1,5,8.2l0.4,0.4c5.5,4.7,10.5,7.9,15,10.1
		C357.8,346.5,360.4,351.9,362.5,357.8z M393.9,328.5c-2.2,4.4-7.8,10-16.9,12.7c-1.9,0.6-4,0.9-6.1,0.9c0,0,0,0,0,0
		c-5.9,0-15.7-2.3-28.6-13.4l-0.5-0.4c-1.9-1.6-3.1-3-3.6-3.8c0.3,0,0.8,0,1.4,0c6.6,0.5,17.2,0.6,24.7,0.6c4,0,8,0,11.8,0
		c3.3,0,6.4,0,9.2,0c5.1,0,8.4,0.1,9.6,0.2C394.9,325.8,394.7,326.9,393.9,328.5z"/>
	<path class="st0" d="M371.5,402.4c-4.3,2.1-13.5,4.2-23.3-1.8c1.7,6.5,3.8,17.2-0.7,30.7c2.1,0.3,5.1,1.8,8,3.6
		c-3-1.3-6.4-2.1-10.2-1.6c-15.5-3.7-28.3,0.3-36.5,10.7C337,443,352.3,489,352.3,489s10.2-27.8,11.8-48.5c0.7,0.6,2.2,1.9,2.2,1.9
		S373.3,422.7,371.5,402.4z"/>
	<g>
		<path class="st19" d="M256.3,417.7c0,0-1.5-13.6-7.2-20.3c2.2-2.8,5-2.5,6.2-7.6c1.1-4.9,1.8-9.6,6.6-13
			c-4.2-2.5-10.6-2.3-14.3,1.8c-3,3.2-5.6,9.7-5,14.8c-4.9-1.9-10.6-3.7-16.2,1.7c4.6,8.3,9.3,5.8,17.5,6.8
			c4.2,4.8,6.8,12.8,6.8,16.5C252.9,419.8,256.3,417.7,256.3,417.7z"/>
	</g>
	<path class="st20" d="M242.4,422.7c0,0,3.5-5.7,11.2-2.6c3-3.7,8.2-3.8,12.2-1.2"/>
	<g>
		<path class="st21" d="M243.8,393.8c-4.9-1.9-11.9-4-17.5,1.3c4.6,8.3,11.3,5.8,19.4,6.8C243.1,398.8,243.7,397.3,243.8,393.8z"/>
	</g>
	
		<ellipse transform="matrix(0.9361 -0.3516 0.3516 0.9361 -97.715 124.5327)" class="st22" cx="294" cy="331.3" rx="13.6" ry="11.3"/>
	
		<ellipse transform="matrix(0.9361 -0.3516 0.3516 0.9361 -103.6067 110.7462)" class="st22" cx="253.1" cy="340.6" rx="13.6" ry="10.1"/>
	<path d="M252.5,420.4c-0.9,0-1.9-0.2-2.7-0.8c-0.4-0.3-0.7-0.8-0.7-1.3c0-3.2-2.3-10.5-6-15c-1.6-0.2-3.1-0.2-4.5-0.2
		c-5.2-0.1-9.6-0.2-13.5-7.3c-0.3-0.6-0.2-1.3,0.3-1.8c5.6-5.3,11.4-4.2,15.6-2.8c0.2-5.1,2.7-10.6,5.4-13.7
		c4.4-4.8,11.7-4.8,16.2-2.1c0.4,0.3,0.7,0.7,0.7,1.2c0,0.5-0.2,1-0.6,1.3c-3.9,2.7-4.7,6.3-5.6,10.6c-0.1,0.5-0.2,1-0.3,1.5
		c-0.9,3.9-2.7,5.2-4.3,6.3c-0.5,0.3-0.9,0.7-1.3,1c5.3,7.2,6.7,19.6,6.7,20.1c0.1,0.6-0.2,1.1-0.7,1.4
		C256.8,419.1,254.8,420.4,252.5,420.4z M252,417.3c0.8,0.2,1.9-0.2,2.6-0.5c-0.5-3.2-2.2-13.2-6.7-18.5c-0.5-0.5-0.5-1.3,0-1.9
		c0.9-1.2,1.9-1.9,2.8-2.5c1.4-1,2.5-1.8,3.1-4.5c0.1-0.5,0.2-1,0.3-1.4c0.8-3.8,1.7-7.7,4.9-10.8c-3.4-1-7.7-0.5-10.4,2.5
		c-2.7,2.9-5.2,9-4.6,13.6c0.1,0.5-0.1,1-0.6,1.4c-0.4,0.3-1,0.4-1.5,0.2c-4.8-1.9-9.2-3.1-13.7,0.6c2.9,4.5,5.6,4.6,10.4,4.7
		c1.6,0,3.4,0.1,5.4,0.3c0.4,0,0.7,0.2,1,0.5C249.2,405.7,251.7,413.2,252,417.3z"/>
	<g>
		
			<ellipse transform="matrix(0.9588 -0.2841 0.2841 0.9588 -81.9264 97.2649)" class="st23" cx="294.4" cy="331.1" rx="14.1" ry="10.8"/>
		
			<ellipse transform="matrix(0.9588 -0.2841 0.2841 0.9588 -86.3083 85.8169)" class="st23" cx="252.7" cy="340.5" rx="12.9" ry="9.9"/>
		<path class="st20" d="M265.4,339.2c0,0,5.9-7.6,15.5-4.2"/>
		<path class="st20" d="M308.2,328.5c0,0,27.1-8.2,36.1-8.6"/>
	</g>
	<circle cx="298.3" cy="330.6" r="3.7"/>
	<circle cx="255.2" cy="341" r="3.7"/>
</g>
</svg>
