<?xml version="1.0" encoding="utf-8"?>
<!-- Generator: Adobe Illustrator 18.0.0, SVG Export Plug-In . SVG Version: 6.00 Build 0)  -->
<!DOCTYPE svg PUBLIC "-//W3C//DTD SVG 1.1//EN" "http://www.w3.org/Graphics/SVG/1.1/DTD/svg11.dtd">
<svg version="1.1" id="Ebene_1" xmlns="http://www.w3.org/2000/svg" xmlns:xlink="http://www.w3.org/1999/xlink" x="0px" y="0px"
	 viewBox="0 0 595 842" enable-background="new 0 0 595 842" xml:space="preserve">
<path fill="#B6036F" d="M312.1,279.8c0,0,17.6,8.5,11.2,28s22.9,8,22.9,8l-8.8-26.1l-17.2-7.8L312.1,279.8z"/>
<g>
	<path fill="#B6036F" d="M306.1,283.8c0.5,0.1,0.7,0.2,0.8,0.3c1.6,1.2,2,2.9,1.2,4.8c-0.1,0.3-0.3,0.3-0.5,0.2
		c-1.1-0.2-2.2-0.4-3.2,0.1c-0.3,0.2-0.3-0.2-0.3-0.4c-0.1-0.5-0.2-1.1-0.3-1.6c-0.2-1.2-0.5-1.4-1.6-1.6c-2.2-0.4-2.2-0.3-3.3,1.6
		c-1,1.9-1.9,3.7-3,5.6c-0.3,0.6-0.3,0.8,0.4,0.9c1.1,0.3,1.7,0.1,2.1-1c0.3-1,1-1.1,2-0.9c2,0.4,2,0.4,1.7,2.4
		c-0.1,0.8-0.3,1.5-0.4,2.3c0,0.4-0.2,0.5-0.6,0.4c-2-0.3-3.9-0.6-5.9-1c-1.2-0.2-2-1.4-1.8-2.7c0.4-2.9,0.9-5.8,1.4-8.7
		c0.2-1.2,1.1-1.8,2.2-2.1c0.1,0,0.5-0.1,0.9,0C300.9,282.9,303,283.3,306.1,283.8z"/>
	<path fill="#B6026E" d="M317.2,294.1c-0.5,3.1-1,6.3-1.5,9.4c-0.4,1.1-1.3,1.8-2.4,1.7c-3.1-0.5-6.1-0.9-9.1-1.5
		c-1.2-0.2-2-1.4-1.8-2.6c0.5-3,0.9-6,1.4-9c0.2-1.2,1.4-2.1,2.6-1.9c3,0.5,6,0.9,9,1.4C316.5,291.9,317.2,292.9,317.2,294.1z
		 M307.8,300.1c-0.8,0.2-1.5,0.3-2.3,0.3c-0.2,0-0.5-0.1-0.6,0.2c-0.4,1.1,0.1,1.8,1.3,1.7c1-0.1,2.1-0.8,3-0.6
		c0.9,0.1,1.7,1.1,2.6,1.5c1.2,0.6,1.2,0.5,1.6-0.7c0.1-0.5,0.1-0.7-0.4-0.9c-0.6-0.2-1.2-0.5-1.7-0.8c-0.4-0.2-0.4-0.3-0.1-0.6
		c0.6-0.5,1.1-1.2,1.4-1.9c0.2-0.6,0.5-0.7,1.1-0.6c0.5,0.1,0.9,0.2,1-0.5c0.1-0.7-0.2-0.8-0.8-0.9c-0.4,0-0.8-0.1-1.3-0.2
		c-1.8-0.3-1.8-0.3-1.5-2.1c0.1-0.5,0.2-0.9-0.6-1c-0.7-0.1-0.9,0.1-0.9,0.7c0,0.4-0.2,0.8-0.2,1.3c0,0.5-0.2,0.6-0.7,0.5
		c-0.8-0.2-1.7-0.3-2.5-0.4c-0.5-0.1-0.8-0.1-0.9,0.6c-0.1,0.6,0.1,0.8,0.7,0.9c0.3,0,0.8-0.1,0.8,0.5
		C306.9,298.1,307.3,299.1,307.8,300.1z"/>
	<path fill="#B6036F" d="M302,290.7c-0.8-0.1-1.5-0.2-2.3-0.4c0.6-1.1,1.1-2.1,1.7-3.2C301.5,288.4,301.7,289.5,302,290.7z"/>
	<path fill="#FDFCFD" d="M307.8,300.1c-0.5-1-0.9-2-1-3.1c0-0.5-0.5-0.5-0.8-0.5c-0.6-0.1-0.8-0.2-0.7-0.9c0.1-0.7,0.4-0.7,0.9-0.6
		c0.8,0.2,1.7,0.3,2.5,0.4c0.5,0.1,0.7,0,0.7-0.5c0-0.4,0.2-0.8,0.2-1.3c0-0.6,0.2-0.8,0.9-0.7c0.7,0.1,0.7,0.5,0.6,1
		c-0.3,1.8-0.3,1.8,1.5,2.1c0.4,0.1,0.8,0.2,1.3,0.2c0.5,0.1,0.9,0.1,0.8,0.9c-0.1,0.8-0.5,0.7-1,0.5c-0.6-0.2-0.9,0-1.1,0.6
		c-0.3,0.7-0.8,1.4-1.4,1.9c-0.3,0.3-0.3,0.4,0.1,0.6c0.6,0.3,1.1,0.6,1.7,0.8c0.5,0.2,0.6,0.4,0.4,0.9c-0.4,1.3-0.4,1.3-1.6,0.7
		c-0.9-0.4-1.7-1.4-2.6-1.5c-0.9-0.1-2,0.5-3,0.6c-1.2,0.1-1.7-0.5-1.3-1.7c0.1-0.3,0.4-0.2,0.6-0.2
		C306.3,300.4,307,300.3,307.8,300.1z M308.6,297c0,0.3,0,0.4,0.1,0.6c0.1,0.7,0.2,1.7,0.9,1.8c0.6,0.1,1-0.9,1.4-1.6
		c0.2-0.4,0-0.5-0.3-0.5C310,297.2,309.3,297.1,308.6,297z"/>
	<path fill="#B6036F" d="M308.6,297c0.7,0.1,1.4,0.2,2.1,0.3c0.3,0,0.5,0.1,0.3,0.5c-0.4,0.6-0.8,1.6-1.4,1.6
		c-0.7-0.1-0.8-1.1-0.9-1.8C308.6,297.4,308.6,297.2,308.6,297z"/>
</g>
<path fill="none" stroke="#000000" stroke-width="6" stroke-miterlimit="10" d="M276.4,317.6c0,0,1.3-20,5.2-25.4
	c3.9-5.5,12-13.1,31.5-10.5s26.9,9,29.3,15.1c2.4,6.1,4.9,22.3,1.1,32.4C339.8,339.4,276.4,317.6,276.4,317.6z"/>
<g>
	<defs>
		<rect id="SVGID_1_" y="24.3" width="595" height="793.3"/>
	</defs>
	<clipPath id="SVGID_2_">
		<use xlink:href="#SVGID_1_"  overflow="visible"/>
	</clipPath>
	<g clip-path="url(#SVGID_2_)">
		<defs>
			<rect id="SVGID_3_" y="24.3" width="595" height="793.3"/>
		</defs>
		<clipPath id="SVGID_4_">
			<use xlink:href="#SVGID_3_"  overflow="visible"/>
		</clipPath>
		<path clip-path="url(#SVGID_4_)" d="M280.8,474.2c0.7,0,1.4,0.1,2.1,0.4c1.9,0.8,3.3,2.6,3.4,4.7c0.4,4.7,1.4,4.7,3.7,4.7
			c3.9,0,6.6-1.6,8.7-5c1.1-1.8,3.1-2.8,5.2-2.7c1.1,0.1,2.3,0.1,3.5,0.1c5.4,0,13.9-0.9,23.7-5.1c2.7-1.2,5.9,0,7.2,2.7
			c0.1,0.2,0.2,0.4,0.3,0.6c0.9-2.2,1.7-4.5,2.3-6.8c0.3-1.3,1.1-2.4,2.2-3.2c26.4-18.2,25.2-78.7,15.7-105.5
			c-2-5.7-4.5-11-7.5-15.7c-1.3-2.1-1.1-4.8,0.6-6.7c1.6-1.8,4.3-2.4,6.6-1.3c4.4,2.1,8.6,3.2,12.3,3.2c1.7,0,3.4-0.2,5-0.7
			c7-2.1,11.2-5.9,13.3-8.8c-1.1,0-2.4,0-4,0c-2.7,0-5.8,0-9.1,0c-3.7,0-7.7,0-11.7,0c-7.1,0-17.3-0.1-24.1-0.5
			c-1.1-0.1-2.1-0.5-3-1.1c-8.6-6.6-18.6-10.1-29.8-10.5c-0.8,0-1.6,0-2.5,0c-23.3,0-43.7,10.3-54.6,27.6c-0.2,0.3-0.5,0.7-0.8,1
			c-1.4,1.4-3.2,2.9-5.2,4.4c1.5,0.8,2.6,2.4,2.8,4.2c0.3,2.6,2,3.7,2.2,3.8c2.5,1.4,3.5,4.5,2.4,7.1c-1.1,2.6-4,3.9-6.7,3.1
			c0,0,0,0,0,0c-1.9,1.6-4.7,1.7-6.7,0.3c-1.2,0.3-3.4,1.6-4.9,3.4c-0.9,1.1-1.1,1.9-1,2.1c0.1,0.3,0.2,0.5,0.2,0.6
			c1.7,1.9,1.9,4.7,0.6,6.8c-6.4,9.8-9.8,21.1-9.8,32.9c0,6.5,1,12.9,3.1,19c0.9,2.5-0.2,5.3-2.6,6.6c-2.4,1.3-5.3,0.7-7-1.4
			c-0.9-1.1-1.5-1.6-1.6-1.7c-1.8-1.4-3.7-2.1-5.4-2.1c-1.5,0-2.9,0.6-3.8,1.7c-1.2,1.4-1.5,3.6-1,6c1.6,7.9,16.9,24.4,26.4,26.7
			c0.5,0.1,0.8,0.2,1.1,0.2c0.1-1.2-0.2-3.4-0.9-4.9c-0.4-0.9-0.9-2-1.5-3.2c-1.2-2.5-0.4-5.5,1.9-7c2.3-1.6,5.4-1.2,7.2,0.8
			c10.6,11.4,24.8,18.2,40.2,19.2C279.9,474.3,280.4,474.2,280.8,474.2z M233.4,497.2c-1.8,0-4.2,0.5-4.3,4.9c0,1.5,1.1,4.3,4.6,7.9
			c6.9,7.1,21.1,14.8,36,14.8c3.2,0,6.2-0.3,9.2-1c23.4-5.5,45.3-22.4,56.3-42l-0.5,0.3C322,504,296,520.2,273.3,520.2l0,0
			c-12.1,0-21.6-4.9-26.9-13.8C242.6,500.1,237.2,497.2,233.4,497.2z M269.7,536c-18.2,0-35.3-9.2-44-18.2c-5.2-5.4-7.9-10.9-7.7-16
			c0.3-9.4,6.5-15.7,15.5-15.7c8.5,0,17.2,5.6,22.6,14.7c4.1,6.9,11.7,8.3,17.3,8.3l0,0c13.4,0,31.6-8.1,44.2-22.3
			c-3.9,0.6-7.4,0.8-10.1,0.8c-0.4,0-0.7,0-1.1,0c-4,4.9-9.7,7.6-16.3,7.6c-4.3,0-11.3-1.4-13.9-9.9c-12-1.2-23.3-5.4-33-12.1
			c-0.3,1-0.8,2-1.3,2.9c-1.9,2.9-5.1,4.5-8.9,4.5c-1.2,0-2.6-0.2-4-0.5c-14.3-3.4-32.3-23.4-34.7-35.3c-1.2-5.8,0-11.3,3.3-15.3
			c3-3.7,7.5-5.8,12.4-5.8c1,0,2,0.1,3,0.3c-0.4-3.2-0.6-6.4-0.6-9.6c0-12.7,3.4-25.1,9.8-36c-0.3-0.7-0.5-1.4-0.6-2.2
			c-0.7-3.8,0.5-7.9,3.5-11.4c0.4-0.5,0.9-1.1,1.4-1.6c-4.4-1.4-6.3-4.5-6.6-7.3c-0.4-3.8,2.1-7.2,6-8.1c2.3-0.5,10.9-5.3,15.4-9.7
			c13.5-20.9,38.4-33,66.5-32.2c13,0.4,24.7,4.3,34.9,11.7c6.4,0.4,15.3,0.4,21.7,0.4c4,0,7.9,0,11.7,0c3.3,0,6.4,0,9.1,0
			c8.5,0,10.5,0.2,11.8,0.5c3.1,0.8,5.1,3.5,5.2,6.9c0.1,6.5-7.1,18.4-23.1,23.2c-2.6,0.8-5.4,1.2-8.2,1.2c-1.2,0-2.4-0.1-3.7-0.2
			c0.8,1.9,1.6,3.9,2.3,5.9c10.2,28.9,12.7,93.6-18.2,117.2c-8.4,28.5-37.4,54.3-69.7,62C277.7,535.6,273.7,536,269.7,536z"/>
	</g>
</g>
<g>
	<defs>
		<rect id="SVGID_5_" y="24.3" width="595" height="793.3"/>
	</defs>
	<clipPath id="SVGID_6_">
		<use xlink:href="#SVGID_5_"  overflow="visible"/>
	</clipPath>
	<path clip-path="url(#SVGID_6_)" d="M280.5,481.9C280.5,481.9,280.5,481.9,280.5,481.9c-36.3-1.6-64.7-31.2-64.7-67.5
		c0-21.5,9.9-41.2,27-54.1c0.8-0.6,2-0.4,2.6,0.4c0.6,0.8,0.4,2-0.4,2.6c-16.2,12.2-25.5,30.8-25.5,51.1c0,34.3,26.8,62.3,61,63.8
		c1,0,1.8,0.9,1.8,1.9C282.4,481.1,281.5,481.9,280.5,481.9z"/>
</g>
<g>
	<defs>
		<rect id="SVGID_7_" y="24.3" width="595" height="793.3"/>
	</defs>
	<clipPath id="SVGID_8_">
		<use xlink:href="#SVGID_7_"  overflow="visible"/>
	</clipPath>
	<path clip-path="url(#SVGID_8_)" fill="#B1B3B4" d="M280.5,480c-34.9-1.5-62.8-30.3-62.8-65.6c0-21.5,10.3-40.6,26.3-52.6
		c11.3,5.9,20.2-4.9,27.3-10c20.1,5.1,52.5,2.2,74.5,41.8c3.3,6,3.4,13.5,3.4,20.8c0,6.5-0.9,12.8-2.7,18.8c-16.1-6-35.3,1.5-41,16
		C294.7,468.4,280.5,480,280.5,480z"/>
</g>
<g>
	<defs>
		<rect id="SVGID_9_" y="24.3" width="595" height="793.3"/>
	</defs>
	<clipPath id="SVGID_10_">
		<use xlink:href="#SVGID_9_"  overflow="visible"/>
	</clipPath>
	<path clip-path="url(#SVGID_10_)" fill="#FFFFFF" d="M312.2,409.8c0-27.8-22.3-50.4-50-50.8c-5.2,3.7-11.1,6.3-17.9,2.9
		c-0.3,0.1-0.5,0.2-0.8,0.3c-15.6,12-25.7,30.9-25.7,52.1c0,11.6,3.1,22.6,8.4,32.1c9.1,8.8,21.6,14.2,35.2,14.2
		C289.4,460.7,312.2,437.9,312.2,409.8z"/>
</g>
<g>
	<defs>
		<rect id="SVGID_11_" y="24.3" width="595" height="793.3"/>
	</defs>
	<clipPath id="SVGID_12_">
		<use xlink:href="#SVGID_11_"  overflow="visible"/>
	</clipPath>
</g>
<g>
	<defs>
		<rect id="SVGID_13_" y="24.3" width="595" height="793.3"/>
	</defs>
	<clipPath id="SVGID_14_">
		<use xlink:href="#SVGID_13_"  overflow="visible"/>
	</clipPath>
	<path clip-path="url(#SVGID_14_)" fill="#FF8800" d="M240.9,357c-16.1,4.5-17.8-2.9-14-3.7c3.7-0.8,13.6-6.6,18.6-11.6L240.9,357z"
		/>
</g>
<g>
	<defs>
		<rect id="SVGID_15_" y="24.3" width="595" height="793.3"/>
	</defs>
	<clipPath id="SVGID_16_">
		<use xlink:href="#SVGID_15_"  overflow="visible"/>
	</clipPath>
	<path clip-path="url(#SVGID_16_)" fill="#FF8800" d="M346.3,469.3c-7,26.9-34.7,52.5-66.1,59.9c-27,6.4-57-14.5-56.6-27.3
		c0.5-14.4,18.6-13.6,27.7,1.7c13.9,23.4,61.6,7,79.3-25.6L346.3,469.3z"/>
</g>
<g>
	<defs>
		<rect id="SVGID_17_" y="24.3" width="595" height="793.3"/>
	</defs>
	<clipPath id="SVGID_18_">
		<use xlink:href="#SVGID_17_"  overflow="visible"/>
	</clipPath>
	<path clip-path="url(#SVGID_18_)" fill="#57A1BE" d="M244,361.8c-0.2,0.1-0.4,0.3-0.5,0.4c0.3-0.1,0.5-0.2,0.8-0.3
		C244.2,361.9,244.1,361.9,244,361.8z"/>
</g>
<g>
	<defs>
		<rect id="SVGID_19_" y="24.3" width="595" height="793.3"/>
	</defs>
	<clipPath id="SVGID_20_">
		<use xlink:href="#SVGID_19_"  overflow="visible"/>
	</clipPath>
	<path clip-path="url(#SVGID_20_)" fill="#57A1BE" d="M262.2,359c-0.3,0-0.5,0-0.8,0c-6,0-11.7,1-17.1,2.9
		C251.1,365.3,257,362.8,262.2,359z"/>
</g>
<g>
	<defs>
		<rect id="SVGID_21_" y="24.3" width="595" height="793.3"/>
	</defs>
	<clipPath id="SVGID_22_">
		<use xlink:href="#SVGID_21_"  overflow="visible"/>
	</clipPath>
	<path clip-path="url(#SVGID_22_)" fill="#FFD200" d="M302.9,481.8c10.1,0.9,26.6-1,43.4-12.5c30.2-20.8,27.3-85.1,17.8-112
		c-9.5-26.9-29.3-45-56.6-45.9c-27.3-0.8-50,11.2-62,30.2c-8.1,12.8-2.1,19.8,1.6,21.5c3.7,1.7,19.4-4.5,24-12.8
		c10.7,6.6,22.7,3.7,33,0.4l19.8,5.8c-15.7-6.2-35.5-2.5-45.9,6.6c-10.3,9.1-3.3,15.7,4.6,16.5c7.9,0.8,23.1-6.2,35.1-3.7
		c12,2.5,15.7,6.9,28.5,18.4c0,0,7,28.1,0,38.9c-12.2-7-34.2,0.9-40.8,15.9L302.9,481.8z"/>
</g>
<g>
	<defs>
		<rect id="SVGID_23_" y="24.3" width="595" height="793.3"/>
	</defs>
	<clipPath id="SVGID_24_">
		<use xlink:href="#SVGID_23_"  overflow="visible"/>
	</clipPath>
	<path clip-path="url(#SVGID_24_)" d="M346.4,435c-0.2,0-0.4,0-0.5-0.1c-1-0.3-1.5-1.3-1.3-2.3c1.8-5.9,2.6-12,2.6-18.2
		c0-6.9-1.1-13.7-3.3-20.2c-0.3-1,0.2-2,1.2-2.4c1-0.3,2,0.2,2.4,1.2c2.3,6.9,3.5,14.1,3.5,21.4c0,6.6-0.9,13.1-2.8,19.3
		C348,434.5,347.2,435,346.4,435z"/>
</g>
<g>
	<defs>
		<rect id="SVGID_25_" y="24.3" width="595" height="793.3"/>
	</defs>
	<clipPath id="SVGID_26_">
		<use xlink:href="#SVGID_25_"  overflow="visible"/>
	</clipPath>
	<path clip-path="url(#SVGID_26_)" d="M306.2,450.1c-0.3,0-0.6-0.1-0.8-0.2c-0.9-0.5-1.3-1.6-0.8-2.5c5-10.2,14.4-16.7,25.8-17.8
		c9.4-0.9,18.8,2,22.8,7.2c0.6,0.8,0.5,2-0.3,2.6c-0.8,0.6-2,0.5-2.6-0.3c-3.2-4.2-11.4-6.6-19.5-5.8c-5.9,0.6-16.8,3.5-22.8,15.8
		C307.5,449.8,306.9,450.1,306.2,450.1z"/>
</g>
<g>
	<defs>
		<rect id="SVGID_27_" y="24.3" width="595" height="793.3"/>
	</defs>
	<clipPath id="SVGID_28_">
		<use xlink:href="#SVGID_27_"  overflow="visible"/>
	</clipPath>
	<path clip-path="url(#SVGID_28_)" d="M307.3,483.9c-1.9,0-3.4-0.1-4.6-0.2c-1-0.1-1.8-1-1.7-2c0.1-1,1-1.8,2-1.7
		c6.5,0.6,23.7,0.6,42.2-12.2c29.1-20,26.5-83.1,17.1-109.8c-9.8-27.6-29.8-43.9-54.9-44.6c-25.7-0.8-48.3,10.2-60.3,29.3
		c-3.3,5.2-4.4,10-3.3,13.8c0.8,2.7,2.8,4.4,4.1,5c2.3,1,17.3-4.1,21.6-12c0.3-0.5,0.7-0.8,1.1-0.9c0.5-0.1,1-0.1,1.5,0.2
		c10.2,6.3,21.6,3.4,31.5,0.2c1-0.3,2,0.2,2.3,1.2c0.3,1-0.2,2-1.2,2.3c-10.9,3.5-22.5,5.9-33,0.3c-5.9,8.1-20.8,14.1-25.3,12
		c-2.2-1-5-3.4-6.2-7.4c-1-3.4-1.2-9,3.7-16.8c12.8-20.3,36.5-31.9,63.6-31c26.7,0.8,48,18,58.3,47.1c4.5,12.6,8.1,35.7,6.1,59
		c-1.6,18.5-7.1,43-24.6,55.1C331.3,481.9,316.1,483.9,307.3,483.9z"/>
</g>
<g>
	<defs>
		<rect id="SVGID_29_" y="24.3" width="595" height="793.3"/>
	</defs>
	<clipPath id="SVGID_30_">
		<use xlink:href="#SVGID_29_"  overflow="visible"/>
	</clipPath>
	<path clip-path="url(#SVGID_30_)" d="M338.1,324.9c0.5,0.8,1.7,2.2,3.6,3.8l0.5,0.4c12.9,11,22.6,13.3,28.5,13.3l0,0
		c2.1,0,4.1-0.3,6-0.9c9.1-2.7,14.6-8.4,16.8-12.7c0.8-1.6,1-2.7,1-3.2c-1.2-0.1-4.5-0.2-9.6-0.2c-2.7,0-5.8,0-9.1,0
		c-3.8,0-7.8,0-11.8,0c-7.4,0-18-0.1-24.6-0.6C338.9,324.9,338.4,324.9,338.1,324.9z M370.7,346.1L370.7,346.1
		c-6.5,0-17.2-2.5-30.9-14.2l-0.5-0.4c-6.1-5.1-5.3-7.4-5-8.2c0.5-1.5,2-2.2,4.3-2.2c0.4,0,0.8,0,1.2,0c6.4,0.5,16.9,0.6,24.3,0.6
		c4,0,8,0,11.7,0c3.3,0,6.4,0,9.1,0c7.9,0,10,0.1,10.9,0.4c1.4,0.4,2.3,1.6,2.4,3.4c0.1,4.5-6,15.2-20.5,19.6
		C375.5,345.8,373.1,346.1,370.7,346.1z"/>
	<path clip-path="url(#SVGID_30_)" fill="#FF8800" d="M339.6,323.1c-7.4-0.6-1.7,5,0.8,7c2.5,2.1,20.3,18.2,36.8,13.2
		c16.5-5,21.5-18.6,18.2-19.4C392.1,323.1,354.9,324.3,339.6,323.1z"/>
</g>
<g>
	<defs>
		<rect id="SVGID_31_" y="24.3" width="595" height="793.3"/>
	</defs>
	<clipPath id="SVGID_32_">
		<use xlink:href="#SVGID_31_"  overflow="visible"/>
	</clipPath>
</g>
<g>
	<defs>
		<rect id="SVGID_33_" y="24.3" width="595" height="793.3"/>
	</defs>
	<clipPath id="SVGID_34_">
		<use xlink:href="#SVGID_33_"  overflow="visible"/>
	</clipPath>
	<path clip-path="url(#SVGID_34_)" d="M231.9,360.3c-4.2,0-6.3-1.3-7.3-2.3c-1.1-1.1-1.5-2.6-1.1-3.9c0.4-1.3,1.5-2.3,3-2.6
		c3.2-0.7,12.8-6.2,17.7-11.1c0.7-0.7,1.9-0.7,2.6,0c0.7,0.7,0.7,1.9,0,2.6c-5.1,5.1-15.3,11.1-19.5,12.1c-0.2,0-0.2,0.1-0.2,0.1
		c0,0,0.1,0.2,0.5,0.5c0.8,0.5,4,2,12.8-0.5c1-0.3,2,0.3,2.3,1.3c0.3,1-0.3,2-1.3,2.3C237.4,359.9,234.3,360.3,231.9,360.3z"/>
</g>
<g>
	<defs>
		<rect id="SVGID_35_" y="24.3" width="595" height="793.3"/>
	</defs>
	<clipPath id="SVGID_36_">
		<use xlink:href="#SVGID_35_"  overflow="visible"/>
	</clipPath>
	<path clip-path="url(#SVGID_36_)" d="M267.8,339.6c-3,2.2-2.1,5,1.2,5.4c3.3,0.4,3.6,0.6,6.6-1.6c3.3-2.5,3.7-6.6,0-6.2
		C271.9,337.5,269.4,338.4,267.8,339.6z"/>
</g>
<g>
	<defs>
		<rect id="SVGID_37_" y="24.3" width="595" height="793.3"/>
	</defs>
	<clipPath id="SVGID_38_">
		<use xlink:href="#SVGID_37_"  overflow="visible"/>
	</clipPath>
	<path clip-path="url(#SVGID_38_)" d="M259.1,341.3c0,2.1-1.7,3.7-3.7,3.7c-2.1,0-3.7-1.7-3.7-3.7c0-2,1.7-3.7,3.7-3.7
		C257.4,337.5,259.1,339.2,259.1,341.3z"/>
</g>
<g>
	<defs>
		<rect id="SVGID_39_" y="24.3" width="595" height="793.3"/>
	</defs>
	<clipPath id="SVGID_40_">
		<use xlink:href="#SVGID_39_"  overflow="visible"/>
	</clipPath>
	<path clip-path="url(#SVGID_40_)" d="M302,330.9c0,2.1-1.7,3.7-3.7,3.7c-2.1,0-3.7-1.7-3.7-3.7c0-2.1,1.7-3.7,3.7-3.7
		C300.4,327.2,302,328.9,302,330.9z"/>
</g>
<g>
	<defs>
		<rect id="SVGID_41_" y="24.3" width="595" height="793.3"/>
	</defs>
	<clipPath id="SVGID_42_">
		<use xlink:href="#SVGID_41_"  overflow="visible"/>
	</clipPath>
	<path clip-path="url(#SVGID_42_)" d="M269.8,532.3c-14.5,0-28.6-6.2-37.6-13.6c-6.8-5.6-10.7-11.7-10.5-16.8
		c0.2-6.1,3.3-10.4,8.5-11.7c6.6-1.7,16.5,2,22.7,12.5c5.1,8.6,14.4,10.3,21.3,10.1c20.4-0.4,44-15.7,54.9-35.7
		c0.5-0.9,1.6-1.2,2.5-0.7c0.9,0.5,1.2,1.6,0.7,2.5c-11.4,21-36.4,37.2-58,37.6c-11.2,0.2-19.8-4-24.5-11.9
		c-5.3-8.9-13.3-12.1-18.6-10.8c-3.5,0.9-5.5,3.8-5.7,8.2c-0.1,3.9,3.3,9,9.1,13.8c10.5,8.6,28.6,15.5,45.2,11.6
		c30.5-7.2,57.8-31.9,64.7-58.6c0.3-1,1.3-1.6,2.3-1.3c1,0.3,1.6,1.3,1.3,2.3c-7.3,28-35.7,53.7-67.5,61.3
		C277,531.9,273.4,532.3,269.8,532.3z"/>
</g>
<g>
	<defs>
		<rect id="SVGID_43_" y="24.3" width="595" height="793.3"/>
	</defs>
	<clipPath id="SVGID_44_">
		<use xlink:href="#SVGID_43_"  overflow="visible"/>
	</clipPath>
	<path clip-path="url(#SVGID_44_)" d="M350.4,399.3c-0.4,0-0.9-0.2-1.3-0.5l-1.5-1.3c-12-10.9-19.3-17.4-30.3-19.7
		c-6.6-1.4-14.5,0.4-21.5,1.9c-5.3,1.2-9.9,2.2-13.4,1.8c-5.5-0.6-9.8-3.5-11-7.3c-0.9-2.7-0.6-7.1,5.4-12.4c11.4-10,32.3-13,47.8-7
		c1,0.4,1.4,1.5,1,2.4c-0.4,1-1.5,1.4-2.4,1c-14.3-5.6-33.6-2.9-44,6.3c-3.6,3.1-5.1,6.2-4.4,8.5c0.8,2.4,3.9,4.3,7.9,4.8
		c3,0.3,7.5-0.7,12.2-1.8c7.4-1.6,15.7-3.5,23.1-1.9c12,2.5,20,9.7,32,20.6l1.5,1.3c0.8,0.7,0.8,1.9,0.1,2.6
		C351.4,399.1,350.9,399.3,350.4,399.3z"/>
</g>
<g>
	<defs>
		<rect id="SVGID_45_" y="24.3" width="595" height="793.3"/>
	</defs>
	<clipPath id="SVGID_46_">
		<use xlink:href="#SVGID_45_"  overflow="visible"/>
	</clipPath>
	<path clip-path="url(#SVGID_46_)" fill="#FFD200" d="M218.6,432.6c-10.1-7.8-21.5-0.8-19,11.2c2,9.8,18.7,28.1,30.6,31
		c10.3,2.5,8.2-8.7,6.6-12.4C233.9,455.7,223.9,436.7,218.6,432.6z"/>
</g>
<g>
	<defs>
		<rect id="SVGID_47_" y="24.3" width="595" height="793.3"/>
	</defs>
	<clipPath id="SVGID_48_">
		<use xlink:href="#SVGID_47_"  overflow="visible"/>
	</clipPath>
	<path clip-path="url(#SVGID_48_)" d="M209.8,431.1c-2.7,0-5,1.1-6.6,3.1c-1.9,2.3-2.5,5.6-1.8,9.1c1.9,9.2,18.2,26.9,29.2,29.6
		c0.8,0.2,1.6,0.3,2.3,0.3c1.7,0,2.4-0.7,2.7-1.2c1.4-2,0.6-6.5-0.5-9c-3.1-7-12.7-25.3-17.6-29C215,432.1,212.3,431.1,209.8,431.1z
		 M232.9,476.9L232.9,476.9c-1,0-2-0.1-3.1-0.4c-12.6-3-29.8-21.9-32-32.4c-1-4.7-0.1-9.1,2.5-12.2c2.3-2.8,5.8-4.4,9.5-4.4
		c3.4,0,6.8,1.3,9.9,3.7c6.1,4.7,16.5,25.4,18.8,30.5c0.9,2.1,2.8,8.5,0.2,12.5C237.8,475.4,236.1,476.9,232.9,476.9z"/>
</g>
<g>
	<defs>
		<rect id="SVGID_49_" y="24.3" width="595" height="793.3"/>
	</defs>
	<clipPath id="SVGID_50_">
		<use xlink:href="#SVGID_49_"  overflow="visible"/>
	</clipPath>
</g>
<g>
	<defs>
		<rect id="SVGID_51_" y="24.3" width="595" height="793.3"/>
	</defs>
	<clipPath id="SVGID_52_">
		<use xlink:href="#SVGID_51_"  overflow="visible"/>
	</clipPath>
	<path clip-path="url(#SVGID_52_)" fill="#FFD200" d="M306.2,475.1c0,0-2.5,14.5-16.1,14.5c-13.6,0-7.9-16.5-9.5-27.3
		c-1.6-10.7-8.3-24.8,1.6-31.4c9.9-6.6,21.9,12.8,24,20.2C309.1,461.1,308.7,467.3,306.2,475.1z"/>
</g>
<g>
	<defs>
		<rect id="SVGID_53_" y="24.3" width="595" height="793.3"/>
	</defs>
	<clipPath id="SVGID_54_">
		<use xlink:href="#SVGID_53_"  overflow="visible"/>
	</clipPath>
	<path clip-path="url(#SVGID_54_)" d="M286.5,432c-1,0-2,0.3-2.9,0.9c-5.9,3.9-4.7,11-2.2,21.3c0.6,2.5,1.2,5.2,1.6,7.7
		c0.5,3.2,0.4,6.8,0.3,10.3c-0.2,5.4-0.4,10.9,2,13.3c1,1.1,2.6,1.6,4.8,1.6c11.3,0,13.6-11.9,13.7-12.4c0-0.1,0-0.2,0.1-0.3
		c2.2-7,2.9-12.7,0-22.5C302,445.2,293.2,432,286.5,432z M290.1,492.1c-3.6,0-6.4-1-8.4-3.1c-3.8-3.9-3.6-10.5-3.4-17
		c0.1-3.2,0.2-6.6-0.2-9.4c-0.3-2.3-0.9-4.7-1.5-7.3c-2.3-9.6-4.9-20.5,4.3-26.6c1.8-1.2,3.7-1.8,5.7-1.8c10.8,0,20.3,17,22.1,23.4
		c3.2,10.9,2.4,17.5,0,25.2C307.5,481.5,302.4,492.1,290.1,492.1z"/>
</g>
<g>
	<defs>
		<rect id="SVGID_55_" y="24.3" width="595" height="793.3"/>
	</defs>
	<clipPath id="SVGID_56_">
		<use xlink:href="#SVGID_55_"  overflow="visible"/>
	</clipPath>
</g>
<g>
	<defs>
		<rect id="SVGID_57_" y="24.3" width="595" height="793.3"/>
	</defs>
	<clipPath id="SVGID_58_">
		<use xlink:href="#SVGID_57_"  overflow="visible"/>
	</clipPath>
	<path clip-path="url(#SVGID_58_)" fill="#FFD200" d="M240.1,363.1c-4.1-1.6-14.5,5.4-13.2,12c1.2,6.6,8.7,6.6,13.6,1.6
		C245.4,371.8,244.1,364.8,240.1,363.1z"/>
</g>
<g>
	<defs>
		<rect id="SVGID_59_" y="24.3" width="595" height="793.3"/>
	</defs>
	<clipPath id="SVGID_60_">
		<use xlink:href="#SVGID_59_"  overflow="visible"/>
	</clipPath>
	<path clip-path="url(#SVGID_60_)" d="M238.6,364.8c-2,0-5.7,1.8-8.1,4.7c-0.9,1.1-2.3,3.2-1.9,5.3c0.6,3,2.6,3.7,4.2,3.7
		c2.1,0,4.4-1.1,6.3-3c2.1-2.1,3-4.8,2.5-7.4c-0.3-1.6-1.2-2.8-2.3-3.2C239.2,364.8,238.9,364.8,238.6,364.8z M232.8,382.2
		L232.8,382.2c-4.1,0-7.1-2.6-7.8-6.7c-0.5-2.7,0.4-5.7,2.7-8.4c2.9-3.5,7.5-6.1,10.9-6.1c0.8,0,1.5,0.1,2.1,0.4
		c2.3,0.9,4,3.1,4.6,5.9c0.8,3.8-0.5,7.8-3.5,10.8C239.2,380.7,235.9,382.2,232.8,382.2z"/>
</g>
<g>
	<defs>
		<rect id="SVGID_61_" y="24.3" width="595" height="793.3"/>
	</defs>
	<clipPath id="SVGID_62_">
		<use xlink:href="#SVGID_61_"  overflow="visible"/>
	</clipPath>
</g>
<g>
	<defs>
		<rect id="SVGID_63_" y="24.3" width="595" height="793.3"/>
	</defs>
	<clipPath id="SVGID_64_">
		<use xlink:href="#SVGID_63_"  overflow="visible"/>
	</clipPath>
</g>
<g>
	<defs>
		<rect id="SVGID_65_" y="24.3" width="595" height="793.3"/>
	</defs>
	<clipPath id="SVGID_66_">
		<use xlink:href="#SVGID_65_"  overflow="visible"/>
	</clipPath>
</g>
<g>
	<defs>
		<rect id="SVGID_67_" y="24.3" width="595" height="793.3"/>
	</defs>
	<clipPath id="SVGID_68_">
		<use xlink:href="#SVGID_67_"  overflow="visible"/>
	</clipPath>
</g>
<g>
	<defs>
		<rect id="SVGID_69_" y="24.3" width="595" height="793.3"/>
	</defs>
	<clipPath id="SVGID_70_">
		<use xlink:href="#SVGID_69_"  overflow="visible"/>
	</clipPath>
</g>
<g>
	<defs>
		<rect id="SVGID_71_" y="24.3" width="595" height="793.3"/>
	</defs>
	<clipPath id="SVGID_72_">
		<use xlink:href="#SVGID_71_"  overflow="visible"/>
	</clipPath>
</g>
<g>
	<defs>
		<rect id="SVGID_73_" width="595" height="842"/>
	</defs>
	<clipPath id="SVGID_74_">
		<use xlink:href="#SVGID_73_"  overflow="visible"/>
	</clipPath>
</g>
<rect fill="none" width="595" height="842"/>
<g>
	<path fill="#009DE9" stroke="#000000" stroke-width="3" stroke-miterlimit="10" d="M287.9,365.3c0,0,8.4-30.4,39-50.1
		c6.9-4.4,16.5-7.8,28.1-9.8c0.8-0.1,1.8,14.2,2.6,14.1c0.7-0.1,1.4-14.7,2.2-14.8c2.7-0.4,5.5-0.7,8.4-0.9
		c0.9-0.1,1.7,14.2,2.6,14.1c1.2-0.1,1.3-14.6,2.5-14.7c28.7-0.9,68.3,15.6,90.4,48c0,0-108.5-48.3-159.9,12.6L287.9,365.3"/>
	<path fill="#0078B9" stroke="#000000" stroke-width="3" stroke-miterlimit="10" d="M297.9,356.8c30.9-34.4,69.3-36,70.8-36.1
		c17.8-1.1,48.3,0.9,90.5,28.7c0,0-104-46.4-155.4,14.5l-7.7-2.1L297.9,356.8"/>
	<path fill="#FFFFFF" stroke="#000000" stroke-width="3" stroke-miterlimit="10" d="M296.6,364.9c-8.4,9.7-16.5,21.3-16.5,21.3
		l-9.1,1.2c0,0,10-13.7,19-24.4c9-10.6,59.7-85.6,171.4-13.6C351.2,285.2,305,355.1,296.6,364.9z"/>
</g>
<polygon fill="#FFD200" points="320.3,356 305.7,375.7 285.3,379.7 275.3,377.7 273.3,371.7 275.3,364.7 291,355.7 308.7,353.3 "/>
<path d="M350.4,399.3c-0.4,0-0.9-0.2-1.3-0.5l-1.5-1.3c-12-10.9-19.3-17.4-30.3-19.7c-6.6-1.4-14.5,0.4-21.5,1.9
	c-5.3,1.2-9.9,2.2-13.4,1.8c-5.5-0.6-9.8-3.5-11-7.3c-0.9-2.7-0.6-7.1,5.4-12.4c11.4-10,32.3-13,47.8-7c1,0.4,1.4,1.5,1,2.4
	c-0.4,1-1.5,1.4-2.4,1c-14.3-5.6-33.6-2.9-44,6.3c-3.6,3.1-5.1,6.2-4.4,8.5c0.8,2.4,3.9,4.3,7.9,4.8c3,0.3,7.5-0.7,12.2-1.8
	c7.4-1.6,15.7-3.5,23.1-1.9c12,2.5,20,9.7,32,20.6l1.5,1.3c0.8,0.7,0.8,1.9,0.1,2.6C351.4,399.1,350.9,399.3,350.4,399.3z"/>
<path fill="#720246" stroke="#000000" stroke-width="6" stroke-miterlimit="10" d="M254.3,324.7c0,0-2.7-0.7-11-3.7
	c-8.3-3-19-14-0.7-22.3c18.3-8.3,45.7-3.3,57.3,3.3s12.3,7,12.3,7S270.3,304.7,254.3,324.7z"/>
<text transform="matrix(0.9089 0.4169 -0.4169 0.9089 268.3166 409.7133)" font-family="'MalgunGothicRegular'" font-size="24.748">Ω</text>
<text transform="matrix(0.9477 0.3193 -0.3193 0.9477 289.9307 419.1952)" font-family="'Latha'" font-size="17.7007">ஜ</text>
<text transform="matrix(0.9477 0.3193 -0.3193 0.9477 240.608 447.5813)" font-family="'KozGoPr6N-Regular-90ms-RKSJ-H'" font-size="25.9615">⻯</text>
<text transform="matrix(0.9625 -0.2712 0.2712 0.9625 222.0484 433.6198)" font-family="'KozGoPr6N-Regular-90ms-RKSJ-H'" font-size="20.988">ダ</text>
<text transform="matrix(0.9625 -0.2712 0.2712 0.9625 291.0484 399.1198)" font-family="'AdobeArabic-Regular'" font-size="20.988">ڞ</text>
<text transform="matrix(0.8099 -0.5866 0.5866 0.8099 227.6532 405.2316)" font-family="'AdobeDevanagari-Regular'" font-size="22.2203">ओ</text>
<text transform="matrix(0.9989 4.620000e-002 -4.620000e-002 0.9989 245.4296 389.7675)" font-family="'GungsuhChe'" font-size="22.32">Ж</text>
<g>
	<path stroke="#000000" stroke-width="0.5" stroke-miterlimit="10" d="M255.3,424.3c-6.9,1.6-13.6-2.7-15.3-9.4
		c-0.9-3.6-0.4-7,1.6-10.1c1.8-2.9,4.4-4.7,7.7-5.6c3.5-0.9,6.8-0.4,9.9,1.5c3,1.8,4.9,4.4,5.8,7.8c0.9,3.5,0.4,6.8-1.5,9.9
		C261.6,421.4,258.6,423.5,255.3,424.3z M259.6,417.3C259.6,417.2,259.6,417.2,259.6,417.3c0.1-1,0.1-2,0.2-2.9c0-0.4,0-0.8,0.1-1.2
		c0.1-0.7,0.2-1.4,0.2-2.1c0-0.7,0-1.4-0.2-2.1c-0.2-0.7-0.5-1.3-0.9-1.8c-0.3-0.4-0.7-0.8-1.1-1.2c-0.3-0.3-0.6-0.7-0.9-1.1
		c-0.3-0.5-0.4-0.9-0.4-1.5c0.1-0.8,0.6-1.6,1.6-1.8c0,0,0,0,0,0c-2.8-1.7-6.8-2.2-10.5-0.5c-1.4,0.6-2.6,1.5-3.7,2.6
		c-1,1.1-1.8,2.4-2.4,3.8c0.2,0,0.4-0.1,0.6-0.1c0.2,0,0.4-0.1,0.6-0.1c0.2-0.1,0.5-0.1,0.7-0.2c0.3-0.1,0.6-0.2,0.9-0.3
		c0.3-0.1,0.5-0.2,0.8-0.2c0.1,0,0.2-0.1,0.3-0.1c0.2,0,0.4,0.2,0.4,0.4c0,0.2-0.1,0.4-0.3,0.5c-0.3,0.1-0.6,0.2-0.9,0.3
		c-0.1,0-0.2,0.1-0.3,0.1c2.3,3.8,4.6,7.5,6.9,11.3c0-0.1,0-0.2,0-0.3c0.3-2.5,0.5-5.1,0.8-7.6c0,0,0-0.1,0-0.1
		c-0.9-1.4-1.8-2.9-2.8-4.3c0-0.1-0.1-0.1-0.2-0.1c-0.4,0.1-0.7,0.1-1.1,0.1c-0.3,0.1-0.6-0.2-0.6-0.5c0-0.2,0.2-0.4,0.4-0.5
		c0.2,0,0.3,0,0.5-0.1c0.4-0.1,0.7-0.1,1.1-0.2c0.4-0.1,0.9-0.2,1.3-0.3c0.2,0,0.4-0.1,0.6-0.1c0.2-0.1,0.5-0.1,0.7-0.2
		c0.3-0.1,0.6-0.2,0.9-0.3c0.3-0.1,0.5-0.2,0.8-0.2c0.1,0,0.2-0.1,0.3-0.1c0.2,0,0.4,0.2,0.4,0.4c0,0.2-0.1,0.4-0.3,0.5
		c-0.3,0.1-0.6,0.2-0.9,0.3c-0.1,0-0.2,0.1-0.3,0.1C255.1,409.8,257.3,413.5,259.6,417.3z M252.9,412.7
		C252.8,412.7,252.8,412.7,252.9,412.7c-0.4,3.5-0.8,7.1-1.2,10.6c1.2,0.1,3.1,0,5-0.8c0.7-0.3,1.3-0.6,1.9-0.9
		C256.7,418.6,254.8,415.6,252.9,412.7z M249.8,423c-2.9-4.5-5.8-9-8.7-13.5C239.9,415.3,243.5,421.5,249.8,423z M261.2,404.1
		C261.2,404.1,261.1,404.1,261.2,404.1C261.1,404.1,261.1,404.1,261.2,404.1c0.1,0.3,0.2,0.6,0.2,0.8c0.1,0.5,0.2,1,0.3,1.4
		c0,0.5,0.1,1,0,1.5c0,0.5-0.1,1.1-0.2,1.6c-0.2,1.7-0.4,3.4-0.6,5.2c-0.2,1.8-0.4,3.6-0.6,5.4c0,0.1,0,0.1,0,0.2c0,0,0,0,0,0
		c2.2-2.1,3.4-4.7,3.6-7.7C264.2,409.3,263.2,406.5,261.2,404.1z"/>
</g>
</svg>
