<svg id="Layer_1" data-name="Layer 1" xmlns="http://www.w3.org/2000/svg" viewBox="0 0 109.17 128.5"><defs><style>.cls-1{fill:#c6c1ba;}.cls-1,.cls-2,.cls-3{stroke:#000;}.cls-1,.cls-11,.cls-2{stroke-miterlimit:10;}.cls-1,.cls-2{stroke-width:2.33px;}.cls-2{fill:#9e9c9a;}.cls-11,.cls-3{stroke-linecap:round;stroke-width:1.48px;}.cls-3{stroke-linejoin:round;}.cls-4{fill:#00709c;}.cls-5{fill:#005683;}.cls-6{fill:#fff;}.cls-7{fill:#ffd200;}.cls-8{fill:#f80;}.cls-9{fill:#6d4632;}.cls-10{fill:#51352a;}.cls-11{fill:none;stroke:#fff;}</style></defs><title>wapuu-Bernhard</title><path class="cls-1" d="M307.55,301.06s-2-11.94-7.93-14c-2.19-.77-23.32-7.48-28.6-2s-6.6,16.28-6.6,16.28Z" transform="translate(-224.33 -281.72)"/><path class="cls-2" d="M313.65,304.73c.32,6.07-13.6,10-31.46,11s-32.6-3.2-32.92-9.27,14.33-12.31,32.19-13.26S313.33,298.66,313.65,304.73Z" transform="translate(-224.33 -281.72)"/><path class="cls-3" d="M267.18,293.08c1.66-1.11,16.42-3.62,34.69,2.45,0,0-13.53-3.93-35.72-.44C266.62,293.08,267.18,293.08,267.18,293.08Z" transform="translate(-224.33 -281.72)"/><path d="M278,290.33l-1.19,0a.5.5,0,0,1-.37-.1.54.54,0,0,1-.12-.36l-.1-2.92a.49.49,0,0,1,.09-.37.55.55,0,0,1,.37-.13l1.25,0a3.59,3.59,0,0,1,.48,0,1.07,1.07,0,0,1,.37.12,1.28,1.28,0,0,1,.26.2,1,1,0,0,1,.17.28.81.81,0,0,1,.06.31.9.9,0,0,1-.55.88.94.94,0,0,1,.8.92,1,1,0,0,1-.15.59,1,1,0,0,1-.43.4,2,2,0,0,1-.41.12Zm-1-3.26,0,1,.72,0a1.51,1.51,0,0,0,.45-.07.43.43,0,0,0,.24-.22.55.55,0,0,0,.06-.26.39.39,0,0,0-.23-.38,1.58,1.58,0,0,0-.64-.07Zm.87,1.54-.82,0,0,1.13.84,0c.54,0,.79-.22.78-.6a.47.47,0,0,0-.22-.42A1.19,1.19,0,0,0,277.88,288.61Z" transform="translate(-224.33 -281.72)"/><path d="M282.83,287.08l-1.77-.05,0,1,1.63,0a.37.37,0,0,1,.27.09.29.29,0,0,1,.08.21.29.29,0,0,1-.09.21.39.39,0,0,1-.28.08l-1.63,0,0,1.1,1.83.05a.38.38,0,0,1,.28.09.32.32,0,0,1,.09.24.3.3,0,0,1-.1.22.41.41,0,0,1-.28.07l-2.14-.06a.5.5,0,0,1-.37-.12.55.55,0,0,1-.1-.37l.08-2.92a.9.9,0,0,1,.06-.27.33.33,0,0,1,.16-.15.61.61,0,0,1,.28,0l2.07.05a.49.49,0,0,1,.28.09.32.32,0,0,1,.09.23.3.3,0,0,1-.1.21A.39.39,0,0,1,282.83,287.08Z" transform="translate(-224.33 -281.72)"/><path d="M284.92,288.84l-.28,0-.11,1.25a.49.49,0,0,1-.14.35.35.35,0,0,1-.29.09.36.36,0,0,1-.28-.15.56.56,0,0,1-.07-.36l.26-3a.52.52,0,0,1,.15-.35.51.51,0,0,1,.37-.09l1.28.12a2.73,2.73,0,0,1,.45.06.93.93,0,0,1,.33.12,1,1,0,0,1,.3.25.9.9,0,0,1,.18.35,1.07,1.07,0,0,1,0,.4,1,1,0,0,1-.3.67.43.43,0,1,0-.41.66,2.8,2.8,0,0,1,.3.49,3,3,0,0,1,.19.46,1,1,0,0,1,.07.28.34.34,0,0,1-.07.15.31.31,0,0,1-.14.11.44.44,0,0,1-.2,0,.33.33,0,0,1-.22-.08.79.79,0,0,1-.14-.17c0-.07-.09-.16-.15-.29l-.27-.55a2.73,2.73,0,0,0-.26-.47.76.76,0,0,0-.25-.23A1,1,0,0,0,284.92,288.84Zm.59-1.59-.72-.06-.1,1.06.7.06a1.91,1.91,0,0,0,.48,0,.56.56,0,0,0,.31-.14.47.47,0,0,0,.13-.32.56.56,0,0,0-.05-.29.48.48,0,0,0-.22-.2A1.58,1.58,0,0,0,285.51,287.25Z" transform="translate(-224.33 -281.72)"/><path d="M288.81,287.44l-.4,2.8,1.57.23a.39.39,0,0,1,.28.13.3.3,0,0,1,.07.24.31.31,0,0,1-.14.22.4.4,0,0,1-.3,0l-1.88-.27a.52.52,0,0,1-.35-.16.55.55,0,0,1-.06-.38l.43-3a.52.52,0,0,1,.16-.34.37.37,0,0,1,.29-.08.38.38,0,0,1,.27.16A.53.53,0,0,1,288.81,287.44Z" transform="translate(-224.33 -281.72)"/><path d="M290.86,290.86l.55-3a.58.58,0,0,1,.17-.33.42.42,0,0,1,.56.1.56.56,0,0,1,.05.38l-.56,3a.58.58,0,0,1-.17.34.41.41,0,0,1-.31.06.34.34,0,0,1-.25-.17A.49.49,0,0,1,290.86,290.86Z" transform="translate(-224.33 -281.72)"/><path d="M294.16,288.4l.95,2.56.52-2.24a.54.54,0,0,1,.17-.31.31.31,0,0,1,.28-.05.33.33,0,0,1,.24.17.5.5,0,0,1,0,.35l-.69,3c-.08.33-.25.47-.53.4a.48.48,0,0,1-.18-.07.4.4,0,0,1-.13-.13.77.77,0,0,1-.1-.18c0-.07-.06-.14-.08-.2l-.93-2.54-.51,2.21a.46.46,0,0,1-.18.31.34.34,0,0,1-.28.05.36.36,0,0,1-.24-.17.57.57,0,0,1,0-.35l.68-2.92a.74.74,0,0,1,.11-.28.43.43,0,0,1,.2-.15.47.47,0,0,1,.26,0,.38.38,0,0,1,.17.08.32.32,0,0,1,.11.12.54.54,0,0,1,.08.17Z" transform="translate(-224.33 -281.72)"/><path d="M330.93,302.51c-.64-.16-1.68-.23-5.87-.23h-4.52l-5.77,0c-3.16,0-7.58,0-10.73-.2a30.39,30.39,0,0,0-17.27-5.82c-13.93-.42-26.26,5.6-32.93,15.94a26.09,26.09,0,0,1-7.65,4.79,3.68,3.68,0,0,0-3,4,4.42,4.42,0,0,0,3.28,3.61,8.63,8.63,0,0,0-.71.77,6.9,6.9,0,0,0-1.73,5.66,7.12,7.12,0,0,0,.3,1.08A35.18,35.18,0,0,0,239.53,350a34.15,34.15,0,0,0,.32,4.75,8.56,8.56,0,0,0-1.51-.13,7.89,7.89,0,0,0-6.14,2.87,9,9,0,0,0-1.62,7.6c1.22,5.87,10.11,15.77,17.2,17.47a8.45,8.45,0,0,0,2,.25,5.08,5.08,0,0,0,4.42-2.25,5.59,5.59,0,0,0,.67-1.45,34.89,34.89,0,0,0,16.36,6,6.68,6.68,0,0,0,6.88,4.89,10.13,10.13,0,0,0,8-3.75h.55a33.19,33.19,0,0,0,5-.4c-6.24,7-15.25,11-21.89,11h0c-2.8,0-6.56-.71-8.58-4.11-2.67-4.49-7-7.28-11.17-7.28-4.44,0-7.52,3.13-7.67,7.79-.08,2.52,1.24,5.26,3.82,7.93a32.2,32.2,0,0,0,21.8,9,25.3,25.3,0,0,0,5.81-.66c16-3.79,30.33-16.6,34.5-30.69,15.26-11.66,14.05-43.73,9-58-.35-1-.73-2-1.13-2.91a16,16,0,0,0,1.82.1,14,14,0,0,0,4.05-.58c7.94-2.38,11.52-8.27,11.45-11.5A3.47,3.47,0,0,0,330.93,302.51Z" transform="translate(-224.33 -281.72)"/><path class="cls-4" d="M283.69,332.25c-.93.18-1.85.38-2.74.58a23.33,23.33,0,0,1-6.64.9c-2.7-.29-4.85-1.71-5.46-3.63-.43-1.35-.31-3.52,2.7-6.16l.14-.11a24.61,24.61,0,0,0-6.09-1.18c-3.34,2.25-7.54,3.54-9.16,2.82a5.35,5.35,0,0,1-1.58-1.14l-.15.11a40.77,40.77,0,0,0-7.63,8.58,32.55,32.55,0,0,0-3.7,25.35c2,1.68,5,6.72,7,10.61a25.08,25.08,0,0,0,21.33,2.67c-.1-.43-.2-.88-.31-1.33-1.14-4.75-2.43-10.14,2.11-13.16a5,5,0,0,1,2.81-.88c3.14,0,6.06,2.91,8.11,6a25.13,25.13,0,0,0-.75-30Z" transform="translate(-224.33 -281.72)"/><path class="cls-5" d="M304.82,340c-4.93-4.42-8.33-7.13-13.21-8.14-3.28-.68-7.2.19-10.66,1a23.33,23.33,0,0,1-6.64.9c-2.7-.29-4.85-1.71-5.46-3.63-.43-1.35-.31-3.52,2.7-6.16a17.64,17.64,0,0,1,4.39-2.78,14.48,14.48,0,0,1-7-1.64c-2.9,4-10.27,7-12.54,6a5.37,5.37,0,0,1-1.59-1.15s-5.17,4.34-7.77,8.7a32.46,32.46,0,0,0-3.69,25.35c3,2.51,8.06,12.49,9.15,15,.06.13.13.31.2.51a32.44,32.44,0,0,0,19.54,8.55,38.57,38.57,0,0,1,0-3.88,26,26,0,0,0-.1-4.63c-.17-1.12-.46-2.32-.76-3.59-1.14-4.75-2.43-10.14,2.11-13.16a5,5,0,0,1,2.81-.88c4.08,0,7.79,4.92,9.71,8.66a15.68,15.68,0,0,1,12-7.41,16.62,16.62,0,0,1,7.27.86,31.86,31.86,0,0,0-.47-18.38Z" transform="translate(-224.33 -281.72)"/><path class="cls-6" d="M261.71,367.06a13.63,13.63,0,0,1-3.92-.28c-.42-4.16-.69-9.37,1.41-18.44a132.84,132.84,0,0,0,8,17.15,15.34,15.34,0,0,1-5.53,1.57m-6.4-1.05c-10.9-5-12.91-16.71-9.25-25.75.14,8.95,2.65,15.93,9.25,25.75m14.77-2.21c1.73-7.46,4.6-14.59,6.29-22.06a14.83,14.83,0,0,0,.1-6.19c5,7.87,4.47,20.11-6.39,28.25M247.6,337.26c4.92-7.58,14.34-13.75,24.67-6.18-.07,0-6.62.3-1.86,7.35,2.58,3.81,2.74,6.86.7,13.08-.73,3.06-1,4-1.61,7.14a143.07,143.07,0,0,1-7.74-22.09c1.78-.26,3.8-.56,2.76-1.71-.13-.14-9.51.79-9.6.8-.72.13-.85,1-.85,1-.07.67.05.67,2.08.54a55.92,55.92,0,0,0,2.11,8.43,61.09,61.09,0,0,0-2.09,14.46c-4.27-8.51-6-14.42-6.31-21.81.61-.37,1.42-.23,1.95-.78.37-.37.55-1.22.09-1.32-1.62-.34-2.85.8-4.3,1.11m14.86-11.21c-16.18,1.34-26.69,25.72-12.38,38.48,14.5,12.93,32.42-3.78,31.8-19.28-.48-12-10.43-19.63-19.42-19.2" transform="translate(-224.33 -281.72)"/><polygon class="cls-7" points="66.15 70.61 64.13 69.5 62.07 70.53 62.5 68.27 60.88 66.63 63.17 66.34 64.22 64.3 65.2 66.38 67.48 66.75 65.8 68.33 66.15 70.61"/><polygon class="cls-7" points="63.91 58.2 61.9 57.1 59.85 58.13 60.28 55.87 58.66 54.24 60.94 53.95 61.99 51.92 62.97 53.99 65.23 54.36 63.56 55.93 63.91 58.2"/><polygon class="cls-7" points="49.7 45.14 47.85 44.13 45.97 45.07 46.37 43 44.89 41.51 46.98 41.24 47.94 39.37 48.84 41.28 50.91 41.62 49.38 43.06 49.7 45.14"/><polygon class="cls-7" points="30.11 46.24 28.43 44.46 30.2 42.86 31.22 43.03 29.82 44.34 30.11 46.24"/><polygon class="cls-7" points="38.78 43.45 36.65 42.29 34.48 43.38 34.93 40.99 33.23 39.26 35.64 38.96 36.75 36.8 37.78 39 40.18 39.39 38.41 41.05 38.78 43.45"/><polygon class="cls-7" points="62.42 82.06 60.5 80.97 58.51 81.94 58.95 79.78 57.42 78.19 59.61 77.94 60.65 75.99 61.57 78 63.74 78.38 62.11 79.87 62.42 82.06"/><polygon class="cls-7" points="46.86 92.91 45.03 92.1 43.34 93.15 43.54 91.17 42.02 89.87 43.97 89.45 44.73 87.61 45.73 89.33 47.72 89.49 46.39 90.97 46.86 92.91"/><polygon class="cls-7" points="37.28 93.66 35.64 92.93 34.14 93.61 34.29 92.08 32.92 90.92 34.68 90.54 35.36 88.88 36.27 90.44 38.06 90.57 36.86 91.91 37.28 93.66"/><polygon class="cls-7" points="29 90.79 27.37 90.07 25.88 90.74 26.04 89.23 24.68 88.08 26.42 87.7 27.1 86.06 27.99 87.6 29.77 87.73 28.58 89.06 29 90.79"/><polygon class="cls-7" points="18.66 75.02 19.92 75.24 18.93 76.54 18.66 75.02"/><polygon class="cls-7" points="23.1 85.25 21.33 84.46 19.71 85.19 19.88 83.55 18.4 82.3 20.3 81.89 21.03 80.1 22 81.78 23.93 81.92 22.64 83.36 23.1 85.25"/><path class="cls-5" d="M248,368.42c-.79-1.47-1.66-3-2.51-4.33A33.19,33.19,0,0,0,248,368.42Z" transform="translate(-224.33 -281.72)"/><path class="cls-7" d="M285.21,369.75l0-.12c-.08-.35-.18-.71-.29-1.08-.91-3.29-5.25-9.81-8.56-9.81a2.56,2.56,0,0,0-1.45.46c-2.9,1.93-2.31,5.43-1.09,10.54.31,1.27.62,2.58.81,3.8a29.4,29.4,0,0,1,.13,5.08c-.09,2.67-.18,5.42,1,6.61a3.21,3.21,0,0,0,2.4.77,6.88,6.88,0,0,0,.92-.06l.25,0a4.72,4.72,0,0,0,.59-.12l.25-.07a4.79,4.79,0,0,0,.57-.21l.16-.07a4.71,4.71,0,0,0,.67-.35l.06,0c.18-.12.36-.24.52-.37l.14-.12a4.49,4.49,0,0,0,.39-.36l.12-.12a5.46,5.46,0,0,0,.39-.45l.05-.05a6.15,6.15,0,0,0,.37-.52.83.83,0,0,0,.08-.12c.08-.13.16-.26.23-.39a1.74,1.74,0,0,0,.1-.19c.06-.1.11-.21.16-.31l.1-.2c0-.09.08-.18.11-.27s.15-.36.21-.53v0c0-.12.08-.23.11-.34h0a7.71,7.71,0,0,0,.21-.82.94.94,0,0,1,0-.16,16,16,0,0,0,.54-9C285.37,370.41,285.3,370.08,285.21,369.75Z" transform="translate(-224.33 -281.72)"/><path class="cls-8" d="M314.74,306c-3.67,0-8.92,0-12.17-.29a5.7,5.7,0,0,0-.7,0,8.81,8.81,0,0,0,1.77,1.86l.24.2c6.39,5.46,11.21,6.6,14.12,6.6h0a10.15,10.15,0,0,0,3-.43,13.62,13.62,0,0,0,8.34-6.28,3.93,3.93,0,0,0,.49-1.59c-.61-.06-2.2-.09-4.74-.09l-4.52,0Z" transform="translate(-224.33 -281.72)"/><path class="cls-7" d="M235.06,359.81a5.31,5.31,0,0,0-.87,4.52c.94,4.54,9,13.33,14.45,14.64a5,5,0,0,0,1.12.15,1.43,1.43,0,0,0,1.34-.58c.66-1,.28-3.24-.24-4.44-1.52-3.46-6.3-12.51-8.72-14.37a6.29,6.29,0,0,0-3.8-1.44A4.13,4.13,0,0,0,235.06,359.81Z" transform="translate(-224.33 -281.72)"/><path class="cls-8" d="M304.3,379.33a37.68,37.68,0,0,1-5.38,2.66c-5.68,10.39-18,18.37-28.71,18.57-5.53.09-9.82-2-12.14-5.9-2.61-4.39-6.6-6-9.19-5.35-1.74.45-2.74,1.9-2.81,4.09-.06,1.91,1.63,4.47,4.53,6.84,5.21,4.26,14.15,7.68,22.37,5.73C287.18,402.61,300,391.62,304.3,379.33Z" transform="translate(-224.33 -281.72)"/><path class="cls-8" d="M247,320.62a.27.27,0,0,0-.12,0,1.54,1.54,0,0,0,.27.24c.38.25,1.9,1,6-.14a8.82,8.82,0,0,1,.34-3.56A24.36,24.36,0,0,1,247,320.62Z" transform="translate(-224.33 -281.72)"/><path class="cls-7" d="M313.84,322.07a40.91,40.91,0,0,0-3.76-7.93,35.69,35.69,0,0,1-7.4-5l-.22-.18c-3-2.52-2.6-3.66-2.46-4a1.44,1.44,0,0,1,.57-.72A27.06,27.06,0,0,0,286.65,300c-12.74-.38-23.91,5-29.88,14.51-1.63,2.59-2.19,4.94-1.63,6.81a4.1,4.1,0,0,0,2.05,2.5c1.16.51,8.54-2.05,10.68-6a.91.91,0,0,1,1.29-.34c5,3.1,10.7,1.68,15.61.11a.91.91,0,0,1,1.15.6.93.93,0,0,1-.08.75,23.75,23.75,0,0,1,9.36,1.54.92.92,0,0,1-.67,1.71c-7.06-2.79-16.62-1.42-21.76,3.11-1.77,1.55-2.54,3.05-2.16,4.22s1.95,2.15,3.89,2.35a22.49,22.49,0,0,0,6.05-.86c3.64-.81,7.76-1.72,11.43-1,5.95,1.23,9.9,4.8,15.87,10.2l.73.65a.93.93,0,0,1,.06,1.3.89.89,0,0,1-.68.31.94.94,0,0,1-.59-.22,33.4,33.4,0,0,1-.38,16.86,7.77,7.77,0,0,1,2.31,1.92.92.92,0,0,1-1.46,1.13c-1.59-2.06-5.64-3.26-9.64-2.85A13.77,13.77,0,0,0,287,367c.12.31.21.59.28.84,1.58,5.41,1.21,8.69,0,12.49a10.06,10.06,0,0,1-.68,2.2,33,33,0,0,0,18.81-6.11C319.8,366.53,318.53,335.32,313.84,322.07Z" transform="translate(-224.33 -281.72)"/><path d="M267,313c-1.46,1.09-1,2.45.62,2.66s1.76.31,3.27-.82,1.84-3.28,0-3.07A7.79,7.79,0,0,0,267,313Z" transform="translate(-224.33 -281.72)"/><circle cx="36.57" cy="32.06" r="1.84"/><circle cx="57.85" cy="26.95" r="1.84"/><path class="cls-9" d="M253.76,328.15c2.8,2.79,1.87,13.77-5.45,21.09s-19,9.19-21.54,6-1.32-14.34,6-21.66S251.07,325.48,253.76,328.15Z" transform="translate(-224.33 -281.72)"/><path class="cls-10" d="M253.79,327.73s4.44,13.31-5,22a22.87,22.87,0,0,1-22,5.54s10.29-2.31,17.61-9.63S253.79,327.73,253.79,327.73Z" transform="translate(-224.33 -281.72)"/><path class="cls-6" d="M226.59,344.77a21.05,21.05,0,0,0,10.83,10.82c5.14-1.8,4-1.75,4-1.75S232.58,349.06,228,340C226.51,343.32,226.59,344.77,226.59,344.77Z" transform="translate(-224.33 -281.72)"/><path class="cls-6" d="M254.33,338a33.8,33.8,0,0,0-10.85-10.63c-5.14,1.8-3.94,1.74-3.94,1.74A46,46,0,0,1,252.88,343C254.4,339.68,254.33,338,254.33,338Z" transform="translate(-224.33 -281.72)"/><path d="M231.37,358l-.73,0c-2.24-.11-3.91-.77-4.83-1.91-3.05-3.75-1.54-15.69,6.09-23.31s19.39-8.78,22.73-5.46c1.17,1.17,1.82,3.29,1.82,6a24.76,24.76,0,0,1-7.27,16.86C243.7,355.59,236.29,358,231.37,358Zm17.42-30a22.43,22.43,0,0,0-15.15,6.48c-6.95,6.95-8,17.42-5.92,20a4.43,4.43,0,0,0,3.05,1c4.5.23,11.68-2.15,16.67-7.14A22.5,22.5,0,0,0,254,333.25c0-2-.41-3.54-1.09-4.22h0C252.25,328.39,250.75,328,248.79,328Z" transform="translate(-224.33 -281.72)"/><path class="cls-11" d="M232.19,341.48c.87-1.46,5.52-7,8-8.33" transform="translate(-224.33 -281.72)"/><line class="cls-11" x1="7.32" y1="57" x2="10.38" y2="59.54"/><line class="cls-11" x1="9.03" y1="54.95" x2="12.08" y2="57.48"/><line class="cls-11" x1="10.9" y1="53.05" x2="13.95" y2="55.58"/><line class="cls-11" x1="13.05" y1="50.96" x2="15.97" y2="53.65"/><path class="cls-7" d="M229.49,334.54a2,2,0,0,0,2.06,1.82,4.72,4.72,0,0,0,3.13-1.48,4.08,4.08,0,0,0,1.24-3.65,2.1,2.1,0,0,0-1.13-1.6,1,1,0,0,0-.36-.05,6.34,6.34,0,0,0-4,2.33A3.46,3.46,0,0,0,229.49,334.54Z" transform="translate(-224.33 -281.72)"/><path d="M330.48,304.3a33.34,33.34,0,0,0-5.4-.18h-4.53l-5.81,0c-3.39,0-8.14,0-11.36-.24a28.78,28.78,0,0,0-16.67-5.78c-13.35-.41-25.09,5.3-31.43,15.26-2.43,2.41-7.12,5.08-8.69,5.43a1.91,1.91,0,0,0-1.47,1.3,2,2,0,0,0,.56,1.95,4.89,4.89,0,0,0,3.62,1.14,17.2,17.2,0,0,0,4.35-.67,5.75,5.75,0,0,0,2.79,2.93c2.27,1,9.64-1.92,12.54-6a14.48,14.48,0,0,0,7,1.64,17.64,17.64,0,0,0-4.39,2.78c-3,2.64-3.13,4.81-2.7,6.16.61,1.92,2.76,3.34,5.46,3.63a23.33,23.33,0,0,0,6.64-.9c3.46-.77,7.38-1.64,10.66-1,4.88,1,8.28,3.72,13.21,8.14a31.86,31.86,0,0,1,.47,18.38,16.62,16.62,0,0,0-7.27-.86,15.68,15.68,0,0,0-12,7.41c-1.92-3.74-5.63-8.66-9.71-8.66a5,5,0,0,0-2.81.88c-4.54,3-3.25,8.41-2.11,13.16.3,1.27.59,2.47.76,3.59a26,26,0,0,1,.1,4.63c-.1,3.17-.21,6.46,1.66,8.4a5.59,5.59,0,0,0,4.16,1.52,8.72,8.72,0,0,0,7.51-4.07l1,0a32.91,32.91,0,0,0,9.58-1.48c-5.76,8.95-16.59,15.61-26.05,15.79-3.39.07-8-.75-10.52-5-3.07-5.16-8-7-11.23-6.18-2.56.66-4.09,2.78-4.19,5.81-.08,2.52,1.82,5.56,5.2,8.32a30.89,30.89,0,0,0,18.64,6.71,22.86,22.86,0,0,0,5.32-.61c15.62-3.69,29.57-16.28,33.32-30,8.45-6,11.14-18,11.9-27.08,1-11.54-.83-23-3-29.22a45.21,45.21,0,0,0-2.72-6.18,16.14,16.14,0,0,0,5.14.91h0a12.43,12.43,0,0,0,3.52-.5c7.18-2.16,10.19-7.47,10.14-9.7A1.63,1.63,0,0,0,330.48,304.3Zm-77.33,16.46c-4.11,1.1-5.63.39-6,.14a1.54,1.54,0,0,1-.27-.24.27.27,0,0,1,.12,0,24.36,24.36,0,0,0,6.5-3.42A8.82,8.82,0,0,0,253.15,320.76ZM284.9,379.7a.94.94,0,0,0,0,.16c-.05.25-1.16,6.14-6.77,6.14a3.21,3.21,0,0,1-2.4-.77c-1.14-1.19-1.05-3.94-1-6.61a29.4,29.4,0,0,0-.13-5.08c-.19-1.22-.5-2.53-.81-3.8-1.22-5.11-1.81-8.61,1.09-10.54a2.56,2.56,0,0,1,1.45-.46c3.31,0,7.65,6.52,8.56,9.81C286.31,373.43,286,376.23,284.9,379.7ZM273,406c-8.22,1.95-17.16-1.47-22.37-5.73-2.9-2.37-4.59-4.93-4.53-6.84.07-2.19,1.07-3.64,2.81-4.09,2.59-.67,6.58,1,9.19,5.35,2.32,3.91,6.61,6,12.14,5.9,10.7-.2,23-8.18,28.71-18.57a37.68,37.68,0,0,0,5.38-2.66C300,391.62,287.18,402.61,273,406Zm40.87-83.9c4.69,13.25,6,44.46-8.45,54.38a33,33,0,0,1-18.81,6.11,10.06,10.06,0,0,0,.68-2.2c1.2-3.8,1.57-7.08,0-12.49-.07-.25-.16-.53-.28-.84a13.77,13.77,0,0,1,11.23-7.66c4-.41,8.05.79,9.64,2.85a.92.92,0,0,0,1.46-1.13,7.77,7.77,0,0,0-2.31-1.92,33.4,33.4,0,0,0,.38-16.86.94.94,0,0,0,.59.22.89.89,0,0,0,.68-.31.93.93,0,0,0-.06-1.3l-.73-.65c-6-5.4-9.92-9-15.87-10.2-3.67-.76-7.79.15-11.43,1a22.49,22.49,0,0,1-6.05.86c-1.94-.2-3.51-1.15-3.89-2.35s.39-2.67,2.16-4.22c5.14-4.53,14.7-5.9,21.76-3.11a.92.92,0,0,0,.67-1.71,23.75,23.75,0,0,0-9.36-1.54.93.93,0,0,0,.08-.75.91.91,0,0,0-1.15-.6c-4.91,1.57-10.57,3-15.61-.11a.91.91,0,0,0-1.29.34c-2.14,3.9-9.52,6.46-10.68,6a4.1,4.1,0,0,1-2.05-2.5c-.56-1.87,0-4.22,1.63-6.81,6-9.47,17.14-14.89,29.88-14.51a27.06,27.06,0,0,1,13.92,4.24,1.44,1.44,0,0,0-.57.72c-.14.38-.56,1.52,2.46,4l.22.18a35.69,35.69,0,0,0,7.4,5A40.91,40.91,0,0,1,313.84,322.07Zm15.49-14.43a13.62,13.62,0,0,1-8.34,6.28,10.15,10.15,0,0,1-3,.43h0c-2.91,0-7.73-1.14-14.12-6.6l-.24-.2a8.81,8.81,0,0,1-1.77-1.86,5.7,5.7,0,0,1,.7,0c3.25.26,8.5.29,12.17.29h5.82l4.52,0c2.54,0,4.13,0,4.74.09A3.93,3.93,0,0,1,329.33,307.64Z" transform="translate(-224.33 -281.72)"/><path d="M249.76,381h0a6.94,6.94,0,0,1-1.55-.2c-6.23-1.5-14.75-10.84-15.83-16.05a7.14,7.14,0,0,1,1.25-6.06,6,6,0,0,1,4.71-2.2,8.08,8.08,0,0,1,4.92,1.82c3,2.33,8.17,12.55,9.28,15.09.46,1.05,1.38,4.22.1,6.18A3.23,3.23,0,0,1,249.76,381Zm-11.42-22.67a4.13,4.13,0,0,0-3.28,1.52,5.31,5.31,0,0,0-.87,4.52c.94,4.54,9,13.33,14.45,14.64a5,5,0,0,0,1.12.15,1.43,1.43,0,0,0,1.34-.58c.66-1,.28-3.24-.24-4.44-1.52-3.46-6.3-12.51-8.72-14.37A6.29,6.29,0,0,0,238.34,358.29Z" transform="translate(-224.33 -281.72)"/><path d="M231.55,338.2h0a3.8,3.8,0,0,1-3.87-3.32,5.12,5.12,0,0,1,1.33-4.15,8.07,8.07,0,0,1,5.42-3,2.87,2.87,0,0,1,1,.19,3.93,3.93,0,0,1,2.26,2.93,5.9,5.9,0,0,1-1.75,5.33A6.46,6.46,0,0,1,231.55,338.2Zm2.88-8.62a6.34,6.34,0,0,0-4,2.33,3.46,3.46,0,0,0-.94,2.63,2,2,0,0,0,2.06,1.82,4.72,4.72,0,0,0,3.13-1.48,4.08,4.08,0,0,0,1.24-3.65,2.1,2.1,0,0,0-1.13-1.6A1,1,0,0,0,234.43,329.58Z" transform="translate(-224.33 -281.72)"/></svg>