<?xml version="1.0" encoding="utf-8"?>
<!-- Generator: Adobe Illustrator 22.0.0, SVG Export Plug-In . SVG Version: 6.00 Build 0)  -->
<svg version="1.1" xmlns="http://www.w3.org/2000/svg" xmlns:xlink="http://www.w3.org/1999/xlink" x="0px" y="0px"
	 viewBox="0 0 595 842" style="enable-background:new 0 0 595 842;" xml:space="preserve">
<style type="text/css">
	.st0{fill:#E90000;}
	.st1{fill:#1E1E1E;}
	.st2{fill:#FFFFFF;}
	.st3{fill:#005683;}
	.st4{fill:#FFD200;}
	.st5{fill:#FF8800;}
	.st6{fill:#FF0000;stroke:#000000;stroke-width:3;stroke-linecap:round;stroke-linejoin:round;stroke-miterlimit:10;}
</style>
<g id="Accessoires">
	<path class="st0" d="M378.8,345.7c0,0,23.2,16.7,36.4,15c13.1-1.6,11.8-3.4,11.8-3.4s-33.2-5.9-42.5-13.6
		C375.2,336,378.8,345.7,378.8,345.7z"/>
	<path class="st0" d="M368.5,362.3l29.1,18.1c0,0-17.5-23.7-26.8-28.3C361.6,347.6,368.5,362.3,368.5,362.3z"/>
	<g>
		<path d="M416.3,388.8l-7.6-1.5c-11.7-2.4-18.3-7.5-24.6-12.4c-5.9-4.6-11.6-9-21.5-11.2c-13.3-2.9-23.2-12.6-24.9-14.3
			c-16.7-10.6-16.2-11.8-15.5-13.8c0.2-0.5,1-2.1,3.5-1.7c0.8,0.1,1.9,0.1,3.2,0c4.4-0.3,11.1-0.7,20,7.5c9.9,9.1,17.1,9.2,24,9.2
			c4.7,0.1,9.6,0.1,14.4,3.5c2.9,2,4.6,4.5,7.2,8.3c2.9,4.3,7.4,10.8,16.5,20.6L416.3,388.8z M341.2,345.7
			c0.2,0.2,9.8,10.3,22.5,13.1c11,2.4,17.4,7.3,23.5,12.1c4.4,3.4,8.6,6.7,14.4,9c-5.6-6.6-8.8-11.2-11.1-14.6
			c-2.4-3.5-3.8-5.6-5.9-7c-3.5-2.5-7.1-2.5-11.6-2.6c-7.1-0.1-16-0.2-27.3-10.6c-6.3-5.8-10.9-6.4-14.6-6.3
			c2.7,1.9,6.4,4.4,9.6,6.4l0.3,0.2L341.2,345.7z"/>
	</g>
	<g>
		<path d="M404.2,365.7c-0.7,0-1.3,0-1.9-0.1c-5.6-0.4-9.3-2.7-13.2-5.1c-5.6-3.5-11.4-7.2-25.1-6.4c-12.1,0.7-17-3.8-20.3-6.8
			c-0.9-0.9-1.7-1.6-2.5-2c-2.2-1.2-1.8-3-1.7-3.5c0.6-1.9,1-3.2,20.6-0.9c3.1-0.6,21.4-4,33.3,3c12.9,7.5,34.9,5.5,43.8,2.8
			l10.2-3.1l-7.7,7.3C428.1,362,412.9,365.7,404.2,365.7z M367.5,349c12.7,0,19,4,24.2,7.2c3.6,2.3,6.5,4.1,10.9,4.4
			c5.4,0.4,15.7-1.4,25.3-7.1c-11,1.3-26.3,0.9-37-5.3c-11.2-6.5-29.9-2.4-30.1-2.3l-0.4,0.1l-0.4-0.1c-3.9-0.5-8.2-0.9-11.5-1.1
			c2.8,2.4,6.7,4.8,15.3,4.3C365,349.1,366.3,349,367.5,349z"/>
	</g>
</g>
<g id="Hintergrund">
	<path d="M397.1,318.2c-1.3-0.3-3.4-0.5-11.9-0.5c-2.7,0-5.9,0-9.2,0c-3.7,0-7.7,0-11.7,0c-6.4,0-15.4,0-21.7-0.4
		c-10.2-7.4-22-11.4-35-11.8c-28.2-0.9-53.2,11.3-66.8,32.3c-4.6,4.3-13.2,9.2-15.5,9.7c-3.9,0.9-6.4,4.3-6,8.1
		c0.3,2.8,2.3,5.9,6.7,7.3c-0.5,0.5-1,1-1.4,1.6c-3,3.6-4.2,7.7-3.5,11.5c0.1,0.8,0.3,1.5,0.6,2.2c-6.4,11-9.8,23.4-9.8,36.2
		c0,3.2,0.2,6.4,0.6,9.6c-1-0.2-2-0.3-3-0.3c-4.9,0-9.4,2.1-12.4,5.8c-3.3,4.1-4.5,9.6-3.3,15.4c2.5,11.9,20.5,32,34.9,35.4
		c1.4,0.3,2.8,0.5,4,0.5c3.8,0,7-1.6,8.9-4.6c0.6-0.9,1.1-1.9,1.4-2.9c9.8,6.8,21.2,11,33.2,12.2c2.6,8.5,9.6,9.9,14,9.9
		c6.6,0,12.3-2.7,16.3-7.6c0.4,0,0.7,0,1.1,0c2.8,0,6.2-0.2,10.2-0.8c-12.6,14.2-30.9,22.4-44.4,22.4c0,0,0,0,0,0
		c-5.7,0-13.3-1.4-17.4-8.3c-5.4-9.1-14.1-14.8-22.7-14.8c-9,0-15.2,6.3-15.5,15.8c-0.2,5.1,2.5,10.7,7.7,16.1
		c8.8,9.1,25.9,18.3,44.2,18.3c4,0,8-0.5,11.8-1.3c32.4-7.7,61.5-33.6,69.9-62.2c31-23.6,28.5-88.7,18.2-117.6c-0.7-2-1.5-4-2.3-5.9
		c1.2,0.1,2.5,0.2,3.7,0.2c2.8,0,5.6-0.4,8.2-1.2c16.1-4.8,23.4-16.8,23.2-23.3C402.2,321.7,400.2,318.9,397.1,318.2z"/>
</g>
<g id="Ball">
	<path class="st1" d="M344.2,394.2c-10-9-16.9-14.5-26.8-16.5c-6.7-1.4-14.6,0.4-21.6,1.9c-5.3,1.2-9.9,2.2-13.5,1.8
		c-5.5-0.6-9.8-3.5-11.1-7.4c-0.9-2.7-0.6-7.1,5.5-12.5c2.5-2.2,5.6-4.1,8.9-5.6c-4.8,0-9.5-0.9-14.1-3.3
		c-5.9,8.2-20.8,14.1-25.4,12.1c-1-0.5-2.2-1.2-3.2-2.3c-0.1,0.1-0.2,0.2-0.3,0.2c1.2,1.1,2.1,2.7,2.5,4.6c0.8,3.8-0.5,7.8-3.5,10.8
		c-2.6,2.6-5.9,4.1-9,4.1c-2.2,0-4-0.8-5.4-2.1c-6.2,10-9.7,21.8-9.7,34.4c0,5.9,0.8,11.6,2.2,17c6.2,5.1,16.3,25.3,18.6,30.4
		c0.1,0.3,0.3,0.6,0.4,1c10.6,9.8,24.4,16.2,39.6,17.3c-0.2-2.5-0.1-5.2,0-7.9c0.1-3.3,0.2-6.6-0.2-9.4c-0.4-2.3-0.9-4.7-1.6-7.3
		c-2.3-9.6-4.9-20.5,4.3-26.7c1.8-1.2,3.7-1.8,5.7-1.8c8.3,0,15.8,10,19.7,17.6c5.3-8.6,14-14,24.3-15c5.2-0.5,10.4,0.1,14.7,1.7
		c1.5-5.5,2.3-11.2,2.3-17C347.4,407.5,346.3,400.7,344.2,394.2z"/>
	<g>
		<path class="st2" d="M299.9,435.2c2.5,3,4.7,6.4,6.2,9.5c1.4-2.2,3-4.2,4.8-6C307,438.2,303.3,437,299.9,435.2z"/>
		<path class="st2" d="M290.3,427.8c-3.6-4-6.3-8.9-7.6-14.4c-4.4-18-22.5-29-40.5-24.6c-12.7,3.1-21.9,13.1-24.7,25
			c0,0.2,0,0.4,0,0.6c0,5.9,0.8,11.6,2.2,17c6.2,5.1,16.3,25.3,18.6,30.4c0.1,0.3,0.3,0.6,0.4,1c10.6,9.8,24.4,16.2,39.6,17.3
			c-0.2-2.5-0.1-5.2,0-7.9c0.1-3.3,0.2-6.6-0.2-9.4c-0.4-2.3-0.9-4.7-1.6-7.3c-2.3-9.6-4.9-20.5,4.3-26.7c1.8-1.2,3.7-1.8,5.7-1.8
			C287.7,427.2,289,427.4,290.3,427.8z"/>
		<path class="st2" d="M347.4,414.5c-1.6,5.8-4.8,11.1-9.2,15.3c2.5,0.3,4.8,0.9,6.9,1.7C346.7,425.9,347.4,420.3,347.4,414.5z"/>
	</g>
	<circle class="st1" cx="249.6" cy="425.5" r="17.5"/>
	<circle class="st2" cx="317.4" cy="397.7" r="16.5"/>
</g>
<g id="Körper">
	<path class="st3" d="M229,451.8c-1.6-3-3.4-6-5.1-8.8C225.4,446,227.1,449,229,451.8z"/>
	<path class="st4" d="M304.4,454.5c0-0.1,0-0.2-0.1-0.2c-0.2-0.7-0.4-1.4-0.6-2.2c-1.8-6.7-10.6-19.9-17.3-19.9c-1,0-2,0.3-2.9,0.9
		c-5.9,3.9-4.7,11-2.2,21.4c0.6,2.6,1.2,5.2,1.6,7.7c0.5,3.2,0.4,6.8,0.3,10.3c-0.2,5.4-0.4,11,2,13.4c1,1.1,2.6,1.6,4.9,1.6
		c0.7,0,1.3,0,1.9-0.1c0.2,0,0.4-0.1,0.5-0.1c0.4-0.1,0.8-0.1,1.2-0.2c0.2,0,0.3-0.1,0.5-0.1c0.4-0.1,0.8-0.3,1.2-0.4
		c0.1,0,0.2-0.1,0.3-0.1c0.5-0.2,0.9-0.5,1.3-0.7c0,0,0.1-0.1,0.1-0.1c0.4-0.2,0.7-0.5,1.1-0.8c0.1-0.1,0.2-0.2,0.3-0.2
		c0.3-0.2,0.5-0.5,0.8-0.7c0.1-0.1,0.2-0.2,0.3-0.3c0.3-0.3,0.5-0.6,0.8-0.9c0,0,0.1-0.1,0.1-0.1c0.3-0.3,0.5-0.7,0.8-1.1
		c0.1-0.1,0.1-0.2,0.2-0.3c0.2-0.3,0.3-0.5,0.5-0.8c0.1-0.1,0.1-0.2,0.2-0.4c0.1-0.2,0.2-0.4,0.3-0.6c0.1-0.1,0.1-0.3,0.2-0.4
		c0.1-0.2,0.2-0.4,0.2-0.5c0.2-0.4,0.3-0.7,0.4-1.1c0,0,0,0,0-0.1c0.1-0.2,0.2-0.5,0.2-0.7v0c0.3-0.9,0.4-1.6,0.4-1.7
		c0-0.1,0-0.2,0.1-0.3c1.9-5.9,2.6-10.9,1.1-18.2C304.8,455.8,304.6,455.1,304.4,454.5z"/>
	<path class="st5" d="M364.3,325.2c-7.4,0-18.1-0.1-24.7-0.6c-0.6,0-1.1,0-1.4,0c0.5,0.8,1.7,2.2,3.6,3.8l0.5,0.4
		c13,11.1,22.7,13.4,28.6,13.4c0,0,0,0,0,0c2.1,0,4.1-0.3,6.1-0.9c9.1-2.7,14.7-8.4,16.9-12.7c0.8-1.6,1-2.7,1-3.2
		c-1.2-0.1-4.5-0.2-9.6-0.2c-2.7,0-5.9,0-9.2,0C372.3,325.2,368.3,325.2,364.3,325.2z"/>
	<path class="st4" d="M202.8,434.3c-1.9,2.3-2.5,5.6-1.8,9.2c1.9,9.2,18.2,27,29.3,29.7c0.8,0.2,1.6,0.3,2.3,0.3
		c1.7,0,2.4-0.7,2.7-1.2c1.3-2.1,0.6-6.6-0.5-9c-3.1-7-12.8-25.4-17.7-29.1c-2.5-1.9-5.1-2.9-7.7-2.9
		C206.7,431.2,204.4,432.3,202.8,434.3z"/>
	<path class="st4" d="M228.4,374.7c0.6,3,2.6,3.7,4.2,3.7c2.1,0,4.5-1.1,6.3-3c2.1-2.1,3-4.9,2.5-7.4c-0.3-1.6-1.2-2.8-2.3-3.2
		c-0.2-0.1-0.4-0.1-0.7-0.1c-2,0-5.7,1.8-8.1,4.7C229.4,370.4,228,372.5,228.4,374.7z"/>
	<path class="st5" d="M343.1,473.9c-3.7,2.2-7.4,4-10.9,5.4c-11.5,21.1-36.5,37.2-58.2,37.7c-11.2,0.2-19.9-4-24.6-12
		c-5.3-8.9-13.4-12.2-18.6-10.8c-3.5,0.9-5.5,3.8-5.7,8.3c-0.1,3.9,3.3,9.1,9.2,13.9c10.6,8.6,28.7,15.6,45.3,11.6
		C308.4,521.1,334.3,498.8,343.1,473.9z"/>
	<path class="st5" d="M227,354.8c-0.2,0-0.2,0.1-0.2,0.1c0,0,0.1,0.2,0.5,0.5c0.8,0.5,3.8,1.9,12.2-0.3c-0.3-1.9-0.2-4.4,0.7-7.2
		C235.3,351.3,229.8,354.2,227,354.8z"/>
	<path class="st4" d="M362.5,357.8c-2.1-5.9-4.6-11.3-7.6-16.1c-4.5-2.2-9.5-5.4-15-10.1l-0.4-0.4c-6.1-5.1-5.3-7.4-5-8.2
		c0.2-0.6,0.6-1.1,1.2-1.5c-8.3-5.3-17.8-8.3-28.2-8.6c-25.8-0.8-48.5,10.2-60.6,29.4c-3.3,5.2-4.5,10-3.3,13.8
		c0.8,2.8,2.8,4.4,4.1,5.1c2.4,1,17.3-4.1,21.7-12.1c0.2-0.4,0.7-0.8,1.2-0.9c0.5-0.1,1-0.1,1.5,0.2c10.2,6.3,21.7,3.4,31.6,0.2
		c1-0.3,2,0.2,2.3,1.2c0.2,0.5,0.1,1.1-0.2,1.5c6.6-0.2,13.2,0.8,19,3.1c1,0.4,1.4,1.5,1.1,2.4c-0.4,1-1.5,1.4-2.4,1.1
		c-14.3-5.6-33.7-2.9-44.1,6.3c-3.6,3.1-5.1,6.2-4.4,8.6c0.8,2.4,4,4.4,7.9,4.8c3,0.3,7.5-0.7,12.3-1.8c7.4-1.6,15.7-3.5,23.2-2
		c12.1,2.5,20.1,9.7,32.2,20.7l1.5,1.3c0.8,0.7,0.8,1.9,0.1,2.6c-0.4,0.4-0.9,0.6-1.4,0.6c-0.4,0-0.8-0.2-1.2-0.4
		c1.2,5.1,1.8,10.3,1.8,15.6c0,6.3-0.9,12.6-2.6,18.6c1.9,1.1,3.5,2.4,4.7,3.9c0.6,0.8,0.5,2-0.3,2.6c-0.8,0.6-2,0.5-2.6-0.3
		c-3.2-4.2-11.4-6.6-19.5-5.8c-5.9,0.6-16.7,3.4-22.8,15.5c0.2,0.6,0.4,1.2,0.6,1.7c3.2,11,2.4,17.6,0,25.3
		c-0.2,1.3-0.7,2.9-1.4,4.5c8.2,0,22.7-1.8,38.1-12.4C374.6,447.9,372,384.7,362.5,357.8z"/>
	<path d="M267.6,339.3c-3,2.2-2.1,5,1.2,5.4c3.3,0.4,3.6,0.6,6.6-1.7c3.3-2.5,3.7-6.6,0-6.2C271.8,337.3,269.3,338.1,267.6,339.3z"
		/>
	<circle cx="255.2" cy="341" r="3.7"/>
	<circle cx="298.3" cy="330.6" r="3.7"/>
	<g>
		<path class="st2" d="M249.8,334.6c2.1-3.7,6.7-9.8,16.2-15.4c11-6,23.1-9.1,36-9.1c16.1,0,28.2,4.9,30.1,5.7
			c4.9,5.5,10,11.9,12.2,15.4c-14.2-5-28.7-7.6-43.4-7.6C276,323.7,257.5,331,249.8,334.6z"/>
		<path d="M302,311.6c15.1,0,26.7,4.4,29.2,5.5c3.3,3.7,6.8,7.9,9.3,11.2c-12.9-4.1-26.2-6.2-39.5-6.2c-21,0-37.5,5.1-46.9,8.9
			c2.6-3.2,6.6-7,12.7-10.6C277.5,314.6,289.4,311.6,302,311.6 M302,308.6c-11,0-23.8,2.2-36.7,9.3c-15.8,9.3-18.5,19.9-18.5,19.9
			s21.7-12.6,54.2-12.6c13.7,0,29.2,2.2,45.8,8.6c1.7-1.7-13.8-19.1-13.8-19.1S320.1,308.6,302,308.6L302,308.6z"/>
	</g>
	<path class="st6" d="M336,324.6c0,0-4-3.6-17.5-6.2"/>
	<path class="st6" d="M384.5,363.7c0,0-4.3-4.5-16.6-10.7"/>
	<path class="st6" d="M396.9,354.5c0,0-5-3.7-18.1-7.8"/>
	<path class="st0" d="M285.5,320.4c0.1,1,0,1.9-0.5,2.8c-2.9,0.5-6.5,0.7-12.3,2.1c-0.8-0.8-1.4-1.7-1.5-2.8c-0.4-3.1,2.4-6,6.4-6.6
		C281.5,315.3,285.1,317.4,285.5,320.4z"/>
	<path class="st0" d="M285.5,320.4c0.1,1,0,1.9-0.5,2.8c-3,0.3-6.5,0.7-12.3,2.1"/>
	<path class="st0" d="M283.9,317.5l5.2-3c0,0,9.8-2,16.5-1.5c-7.3,0.6-21,5.9-21,5.9l0.3,1.2c0,0,19.6-4.8,32.7-1.3
		s17.6,6.3,17.6,6.3v1.5c0,0-23.8-8.7-49.9-5c-1.4-0.6-2.8-2.2-2.8-2.2L283.9,317.5z"/>
	<path class="st0" d="M284.8,322.5l9.8-0.1c0,0-5.3,0.3-9.5,0.8C280.8,323.8,284.8,322.5,284.8,322.5z"/>
	<path class="st0" d="M271.2,321.2c0,0-0.7,0.2-1.7,0.3c-1,0.4-3.5,2-3.5,2s4.4-1.2,5.2-1.3C271.8,322.3,271.2,321.2,271.2,321.2z"
		/>
	<path class="st0" d="M271.5,323.6c0,0-8.4,2.2-11.2,3.9c-1.9,1.5-2.7,2.3-2.7,2.3s5.3-1.9,6.9-2.3c1.4-0.6,5.6-2.6,7.5-2.9
		C275.5,323.8,271.5,323.6,271.5,323.6z"/>
</g>
<g id="Rahmen">
	<path d="M396.2,321.8c-0.9-0.2-3.1-0.4-11-0.4c-2.7,0-5.9,0-9.2,0c-3.8,0-7.8,0-11.8,0c-6.9,0-16.5-0.1-23-0.5
		c-9.7-7.3-21.1-11.3-33.8-11.7c-27.1-0.8-50.9,10.7-63.7,30.9c-4.9,4.9-14.4,10.3-17.6,11c-1.5,0.3-2.6,1.3-3,2.6
		c-0.4,1.3,0,2.8,1.1,3.9c1,1,3.1,2.3,7.3,2.3c2.3,0,5.2-0.4,8.8-1.4c1.4,3.1,3.7,5.1,5.7,5.9c4.6,2,19.5-3.9,25.4-12.1
		c4.6,2.4,9.3,3.3,14.1,3.3c-3.3,1.5-6.4,3.4-8.9,5.6c-6.1,5.4-6.3,9.8-5.5,12.5c1.2,3.9,5.6,6.8,11.1,7.4c3.6,0.4,8.2-0.6,13.5-1.8
		c7-1.6,15-3.3,21.6-1.9c9.9,2,16.8,7.6,26.8,16.5c2.2,6.5,3.3,13.3,3.3,20.2c0,5.8-0.8,11.5-2.3,17c-4.3-1.6-9.5-2.3-14.7-1.7
		c-10.3,1-19,6.5-24.3,15c-3.9-7.6-11.4-17.6-19.7-17.6c-2,0-3.9,0.6-5.7,1.8c-9.2,6.1-6.6,17-4.3,26.7c0.6,2.6,1.2,5,1.6,7.3
		c0.4,2.8,0.3,6.1,0.2,9.4c-0.2,6.4-0.4,13.1,3.4,17c2,2,4.8,3.1,8.4,3.1c7.5,0,12.3-3.9,15.2-8.3c0.7,0,1.4,0,2.1,0
		c4.8,0,11.6-0.6,19.4-3c-11.7,18.1-33.6,31.6-52.8,32c-6.9,0.1-16.2-1.5-21.3-10.1c-6.2-10.5-16.2-14.2-22.8-12.5
		c-5.2,1.3-8.3,5.6-8.5,11.8c-0.2,5.1,3.7,11.3,10.5,16.9c9,7.4,23.3,13.6,37.8,13.6c3.6,0,7.2-0.4,10.8-1.2
		c31.7-7.5,59.9-33,67.5-60.8c17.1-12.2,22.6-36.5,24.1-54.9c2-23.4-1.7-46.6-6.1-59.3c-1.6-4.5-3.4-8.6-5.5-12.5
		c4.2,1.4,7.7,1.8,10.4,1.8c0,0,0,0,0,0c2.5,0,4.9-0.3,7.1-1c14.6-4.4,20.7-15.1,20.5-19.7C398.6,323.4,397.7,322.1,396.2,321.8z
		 M239.5,355.1c-8.3,2.2-11.4,0.8-12.2,0.3c-0.4-0.3-0.5-0.5-0.5-0.5c0,0,0.1-0.1,0.2-0.1c2.8-0.6,8.3-3.5,13.2-6.9
		C239.3,350.8,239.2,353.2,239.5,355.1z M303.8,474.6c0,0.1-0.1,0.2-0.1,0.3c-0.1,0.5-2.3,12.5-13.7,12.5c-2.2,0-3.8-0.5-4.9-1.6
		c-2.3-2.4-2.1-8-2-13.4c0.1-3.5,0.2-7.1-0.3-10.3c-0.4-2.5-1-5.1-1.6-7.7c-2.5-10.4-3.7-17.5,2.2-21.4c0.9-0.6,1.9-0.9,2.9-0.9
		c6.7,0,15.5,13.2,17.3,19.9C306.7,461.9,306,467.6,303.8,474.6z M279.6,527.9c-16.7,3.9-34.8-3-45.3-11.6c-5.9-4.8-9.3-10-9.2-13.9
		c0.1-4.4,2.2-7.4,5.7-8.3c5.3-1.4,13.3,1.9,18.6,10.8c4.7,7.9,13.4,12.2,24.6,12c21.7-0.4,46.7-16.6,58.2-37.7
		c3.5-1.4,7.2-3.2,10.9-5.4C334.3,498.8,308.4,521.1,279.6,527.9z M362.5,357.8c9.5,26.9,12.1,90.1-17.1,110.2
		c-15.4,10.6-29.9,12.4-38.1,12.4c0.7-1.6,1.2-3.2,1.4-4.5c2.4-7.7,3.2-14.4,0-25.3c-0.1-0.5-0.3-1.1-0.6-1.7
		c6.1-12.1,16.9-14.9,22.8-15.5c8.1-0.8,16.3,1.6,19.5,5.8c0.6,0.8,1.8,1,2.6,0.3c0.8-0.6,1-1.8,0.3-2.6c-1.2-1.5-2.8-2.8-4.7-3.9
		c1.7-6,2.6-12.3,2.6-18.6c0-5.3-0.6-10.5-1.8-15.6c0.3,0.3,0.8,0.4,1.2,0.4c0.5,0,1-0.2,1.4-0.6c0.7-0.8,0.6-1.9-0.1-2.6l-1.5-1.3
		c-12.1-10.9-20.1-18.2-32.2-20.7c-7.4-1.5-15.8,0.3-23.2,2c-4.8,1.1-9.3,2.1-12.3,1.8c-3.9-0.4-7.1-2.3-7.9-4.8
		c-0.8-2.4,0.8-5.4,4.4-8.6c10.4-9.2,29.8-11.9,44.1-6.3c1,0.4,2-0.1,2.4-1.1c0.4-1-0.1-2-1.1-2.4c-5.8-2.3-12.4-3.3-19-3.1
		c0.3-0.4,0.3-1,0.2-1.5c-0.3-1-1.4-1.5-2.3-1.2c-10,3.2-21.4,6.1-31.6-0.2c-0.4-0.3-1-0.3-1.5-0.2c-0.5,0.1-0.9,0.5-1.2,0.9
		c-4.3,7.9-19.3,13.1-21.7,12.1c-1.4-0.6-3.3-2.3-4.1-5.1c-1.1-3.8,0-8.5,3.3-13.8c12.1-19.2,34.7-30.2,60.6-29.4
		c10.4,0.3,19.9,3.3,28.2,8.6c-0.5,0.4-0.9,0.8-1.2,1.5c-0.3,0.8-1.1,3.1,5,8.2l0.4,0.4c5.5,4.7,10.5,7.9,15,10.1
		C357.8,346.5,360.4,351.9,362.5,357.8z M393.9,328.5c-2.2,4.4-7.8,10-16.9,12.7c-1.9,0.6-4,0.9-6.1,0.9c0,0,0,0,0,0
		c-5.9,0-15.7-2.3-28.6-13.4l-0.5-0.4c-1.9-1.6-3.1-3-3.6-3.8c0.3,0,0.8,0,1.4,0c6.6,0.5,17.2,0.6,24.7,0.6c4,0,8,0,11.8,0
		c3.3,0,6.4,0,9.2,0c5.1,0,8.4,0.1,9.6,0.2C394.9,325.8,394.7,326.9,393.9,328.5z"/>
	<path d="M232.6,477.2L232.6,477.2c-1,0-2-0.1-3.1-0.4c-12.6-3-29.9-22-32.1-32.5c-1-4.7-0.1-9.1,2.5-12.3c2.3-2.8,5.8-4.4,9.6-4.4
		c3.4,0,6.8,1.3,10,3.7c6.1,4.7,16.6,25.4,18.8,30.6c0.9,2.1,2.8,8.6,0.2,12.5C237.5,475.6,235.8,477.2,232.6,477.2z M209.4,431.2
		c-2.7,0-5,1.1-6.7,3.1c-1.9,2.3-2.5,5.6-1.8,9.2c1.9,9.2,18.2,27,29.3,29.7c0.8,0.2,1.6,0.3,2.3,0.3c1.7,0,2.4-0.7,2.7-1.2
		c1.3-2.1,0.6-6.6-0.5-9c-3.1-7-12.8-25.4-17.7-29.1C214.6,432.2,212,431.2,209.4,431.2z"/>
	<path d="M232.6,382.1L232.6,382.1c-4.1,0-7.1-2.6-7.9-6.7c-0.5-2.7,0.5-5.7,2.7-8.4c2.9-3.5,7.5-6.1,11-6.1c0.8,0,1.5,0.1,2.1,0.4
		c2.3,0.9,4,3.1,4.6,5.9c0.8,3.8-0.5,7.8-3.5,10.8C239,380.6,235.7,382.1,232.6,382.1z M238.4,364.6c-2,0-5.7,1.8-8.1,4.7
		c-0.9,1.1-2.3,3.2-1.9,5.3c0.6,3,2.6,3.7,4.2,3.7c2.1,0,4.5-1.1,6.3-3c2.1-2.1,3-4.9,2.5-7.4c-0.3-1.6-1.2-2.8-2.3-3.2
		C238.9,364.6,238.7,364.6,238.4,364.6z"/>
</g>
</svg>
